<svg width="1920" height="1007" viewBox="0 0 1920 1007" fill="none" xmlns="http://www.w3.org/2000/svg">
<rect width="1920" height="1007" fill="#0A1C29"/>
<mask id="mask0" mask-type="alpha" maskUnits="userSpaceOnUse" x="0" y="107" width="1920" height="895">
<rect y="107" width="1920" height="895" fill="#C4C4C4"/>
</mask>
<g mask="url(#mask0)">
<mask id="path-2-inside-1" fill="white">
<path d="M-220.8 287.117L-339.92 310.339L-416.965 235.066L-374.213 137.227L-370.776 138.131L-412.775 234.25L-338.417 306.894L-221.392 284.081L-220.8 287.117Z"/>
<path d="M-152.729 627.929L-156.167 627.022L-113.787 530.045L-110.355 530.947L-152.729 627.929Z"/>
<path d="M-26.4099 337.937L-146.58 361.363L-223.625 286.09L-180.495 187.393L-60.3247 163.966L16.7156 239.237L-26.4099 337.937ZM-145.079 357.925L-29.0996 335.315L12.5258 240.057L-61.8317 167.412L-177.811 190.022L-219.434 285.277L-145.079 357.925Z"/>
<path d="M6.91423 508.876L-113.256 532.303L-189.627 457.689L-186.782 455.56L-111.756 528.862L4.22395 506.252L45.8493 410.994L-29.1771 337.692L-26.3324 335.56L50.0397 410.177L6.91423 508.876Z"/>
<path d="M-186.427 457.849L-306.597 481.276L-383.641 406.003L-340.512 307.303L-221.392 284.081L-220.8 287.117L-337.825 309.931L-379.451 405.186L-305.093 477.834L-189.113 455.224L-147.111 359.105L-143.677 360.013L-186.427 457.849Z"/>
<path d="M167.491 388.071L164.054 387.166L206.052 291.045L131.694 218.4L14.6689 241.214L14.077 238.177L133.201 214.954L210.242 290.228L167.491 388.071Z"/>
<path d="M134.167 217.131L130.729 216.223L173.106 119.25L176.542 120.152L134.167 217.131Z"/>
<path d="M409.626 249.788L207.852 289.123L208.443 292.153L410.217 252.818L409.626 249.788Z"/>
<path d="M-381.841 404.081L-664.621 459.208L-664.031 462.238L-381.251 407.112L-381.841 404.081Z"/>
<path d="M-186.811 461.465C-183.555 460.83 -181.345 458.109 -181.876 455.388C-182.407 452.666 -185.476 450.975 -188.732 451.609C-191.989 452.244 -194.198 454.965 -193.667 457.687C-193.137 460.408 -190.067 462.1 -186.811 461.465Z"/>
<path d="M-304.886 484.483C-301.63 483.849 -299.421 481.128 -299.951 478.406C-300.482 475.685 -303.551 473.993 -306.807 474.628C-310.064 475.262 -312.273 477.983 -311.742 480.705C-311.212 483.426 -308.142 485.118 -304.886 484.483Z"/>
<path d="M-153.488 632.402C-150.231 631.767 -148.022 629.046 -148.553 626.325C-149.083 623.603 -152.153 621.911 -155.409 622.546C-158.665 623.181 -160.875 625.902 -160.344 628.623C-159.813 631.345 -156.744 633.037 -153.488 632.402Z"/>
<path d="M-144.436 364.486C-141.18 363.851 -138.97 361.13 -139.501 358.409C-140.031 355.687 -143.101 353.996 -146.357 354.63C-149.613 355.265 -151.823 357.986 -151.292 360.708C-150.761 363.429 -147.692 365.121 -144.436 364.486Z"/>
<path d="M-111.112 535.426C-107.855 534.791 -105.646 532.07 -106.177 529.349C-106.707 526.627 -109.777 524.935 -113.033 525.57C-116.289 526.205 -118.499 528.926 -117.968 531.647C-117.437 534.369 -114.368 536.061 -111.112 535.426Z"/>
<path d="M-25.836 341.366C-22.5799 340.731 -20.3704 338.01 -20.9009 335.288C-21.4315 332.567 -24.5013 330.875 -27.7574 331.51C-31.0135 332.145 -33.2229 334.865 -32.6924 337.587C-32.1618 340.309 -29.0922 342 -25.836 341.366Z"/>
<path d="M-59.1595 170.429C-55.9034 169.794 -53.6938 167.073 -54.2244 164.352C-54.755 161.63 -57.8247 159.938 -61.0808 160.573C-64.337 161.208 -66.5464 163.929 -66.0158 166.65C-65.4853 169.372 -62.4156 171.064 -59.1595 170.429Z"/>
<path d="M-178.193 193.634C-174.937 192.999 -172.727 190.278 -173.258 187.557C-173.788 184.835 -176.858 183.143 -180.114 183.778C-183.37 184.413 -185.58 187.134 -185.049 189.855C-184.519 192.577 -181.449 194.269 -178.193 193.634Z"/>
<path d="M209.108 295.564C212.364 294.929 214.573 292.209 214.043 289.487C213.512 286.765 210.443 285.074 207.186 285.708C203.93 286.343 201.721 289.064 202.251 291.786C202.782 294.507 205.852 296.199 209.108 295.564Z"/>
<path d="M410.882 256.229C414.138 255.594 416.347 252.873 415.817 250.152C415.286 247.43 412.216 245.739 408.96 246.373C405.704 247.008 403.495 249.729 404.025 252.451C404.556 255.172 407.626 256.864 410.882 256.229Z"/>
<path d="M-380.586 410.523C-377.329 409.888 -375.12 407.167 -375.651 404.445C-376.181 401.724 -379.251 400.032 -382.507 400.667C-385.763 401.302 -387.973 404.023 -387.442 406.744C-386.911 409.466 -383.842 411.157 -380.586 410.523Z"/>
<path d="M-220.135 290.528C-216.878 289.894 -214.669 287.173 -215.2 284.451C-215.73 281.73 -218.8 280.038 -222.056 280.673C-225.312 281.307 -227.521 284.028 -226.991 286.75C-226.46 289.471 -223.391 291.163 -220.135 290.528Z"/>
<path d="M-338.21 313.547C-334.953 312.912 -332.744 310.191 -333.275 307.469C-333.805 304.748 -336.875 303.056 -340.131 303.691C-343.387 304.326 -345.597 307.047 -345.066 309.768C-344.535 312.49 -341.466 314.181 -338.21 313.547Z"/>
<path d="M133.223 221.643C136.479 221.008 138.689 218.287 138.158 215.565C137.628 212.844 134.558 211.152 131.302 211.787C128.046 212.422 125.836 215.143 126.367 217.864C126.897 220.586 129.967 222.277 133.223 221.643Z"/>
<path d="M175.784 124.627C179.04 123.993 181.25 121.272 180.719 118.55C180.189 115.829 177.119 114.137 173.863 114.772C170.607 115.406 168.397 118.127 168.928 120.849C169.458 123.57 172.528 125.262 175.784 124.627Z"/>
<path d="M15.1481 244.661C18.4042 244.026 20.6137 241.305 20.0832 238.584C19.5526 235.862 16.4829 234.17 13.2267 234.805C9.97062 235.44 7.76119 238.161 8.29175 240.882C8.82231 243.604 11.892 245.296 15.1481 244.661Z"/>
<path d="M7.48803 512.305C10.7442 511.671 12.9537 508.95 12.4231 506.228C11.8926 503.507 8.82283 501.815 5.5667 502.45C2.31058 503.084 0.101146 505.805 0.631707 508.527C1.16227 511.248 4.23191 512.94 7.48803 512.305Z"/>
<path d="M48.4715 415.598C51.7277 414.963 53.9372 412.242 53.4066 409.52C52.8761 406.799 49.8063 405.107 46.5502 405.742C43.2941 406.377 41.0847 409.098 41.6152 411.819C42.1458 414.541 45.2154 416.232 48.4715 415.598Z"/>
<path d="M166.546 392.579C169.803 391.945 172.012 389.224 171.482 386.502C170.951 383.781 167.881 382.089 164.625 382.724C161.369 383.358 159.16 386.079 159.69 388.801C160.221 391.522 163.29 393.214 166.546 392.579Z"/>
<path d="M-413.909 239.586C-410.653 238.951 -408.443 236.23 -408.974 233.509C-409.505 230.787 -412.574 229.095 -415.83 229.73C-419.087 230.365 -421.296 233.086 -420.765 235.807C-420.235 238.529 -417.165 240.221 -413.909 239.586Z"/>
<path d="M-371.261 144.005C-368.005 143.37 -365.796 140.649 -366.326 137.928C-366.857 135.206 -369.926 133.514 -373.182 134.149C-376.439 134.784 -378.648 137.505 -378.118 140.226C-377.587 142.948 -374.517 144.64 -371.261 144.005Z"/>
<path d="M607.292 577.766L512.399 596.265L451.562 536.826L485.618 458.888L580.511 440.389L641.348 499.828L607.292 577.766ZM513.947 592.72L604.526 575.062L637.033 500.669L578.963 443.935L488.384 461.592L455.876 535.985L513.947 592.72Z"/>
<path d="M202.536 726.14L108.722 744.429L47.88 684.984L81.5497 607.937L85.0931 608.865L52.1979 684.143L110.269 740.88L201.926 723.012L202.536 726.14Z"/>
<path d="M355.461 766.002L260.568 784.501L199.731 725.062L233.787 647.124L328.68 628.625L389.517 688.064L355.461 766.002ZM262.117 780.958L352.695 763.3L385.203 688.908L327.132 632.173L236.554 649.831L204.046 724.224L262.117 780.958Z"/>
<path d="M412.063 823.838L352.613 765.748L355.544 763.554L414.998 821.644L412.063 823.838Z"/>
<path d="M507.845 805.166L504.301 804.235L537.196 728.954L477.698 670.873L480.625 668.681L541.514 728.113L507.845 805.166Z"/>
<path d="M481.235 671.809L477.698 670.873L511.411 593.815L514.951 594.746L481.235 671.809Z"/>
<path d="M638.835 707.518L539.052 726.971L539.661 730.093L639.444 710.64L638.835 707.518Z"/>
<path d="M2.93554 536.992L61.0956 593.816L28.5387 668.326L-62.1784 686.011L-120.335 629.186L-87.7815 554.677L2.93554 536.992ZM4.61157 533.153L-90.7805 551.749L-125.013 630.098L-63.8593 689.845L31.5328 671.248L65.7706 592.905L4.61157 533.153Z"/>
<path d="M49.5094 689.753C52.8641 689.099 55.1405 686.296 54.5939 683.492C54.0473 680.688 50.8846 678.945 47.5299 679.599C44.1752 680.253 41.8987 683.056 42.4453 685.86C42.9919 688.664 46.1547 690.407 49.5094 689.753Z"/>
<path d="M83.5147 613.845C86.8694 613.191 89.1459 610.388 88.5993 607.584C88.0526 604.78 84.8899 603.037 81.5351 603.691C78.1804 604.345 75.904 607.149 76.4506 609.953C76.9973 612.757 80.1599 614.499 83.5147 613.845Z"/>
<path d="M237.397 653.125C240.751 652.471 243.028 649.668 242.481 646.864C241.934 644.06 238.772 642.317 235.417 642.971C232.062 643.625 229.786 646.429 230.333 649.233C230.879 652.037 234.042 653.779 237.397 653.125Z"/>
<path d="M514.135 599.176C517.49 598.522 519.766 595.719 519.22 592.915C518.673 590.111 515.51 588.368 512.156 589.022C508.801 589.676 506.525 592.479 507.071 595.283C507.618 598.087 510.78 599.83 514.135 599.176Z"/>
<path d="M414.88 829.653C418.235 828.999 420.511 826.196 419.965 823.392C419.418 820.588 416.255 818.845 412.9 819.499C409.546 820.153 407.269 822.956 407.816 825.76C408.363 828.564 411.525 830.307 414.88 829.653Z"/>
<path d="M262.332 787.808C265.687 787.154 267.964 784.351 267.417 781.547C266.87 778.743 263.708 777 260.353 777.654C256.998 778.308 254.722 781.111 255.268 783.915C255.815 786.719 258.978 788.462 262.332 787.808Z"/>
<path d="M634.055 715.342C637.41 714.688 639.686 711.885 639.14 709.081C638.593 706.277 635.43 704.534 632.076 705.188C628.721 705.842 626.444 708.645 626.991 711.449C627.538 714.253 630.7 715.996 634.055 715.342Z"/>
<path d="M540.343 733.611C543.697 732.957 545.974 730.154 545.427 727.35C544.881 724.546 541.718 722.803 538.363 723.457C535.008 724.111 532.732 726.914 533.279 729.718C533.825 732.522 536.988 734.265 540.343 733.611Z"/>
<path d="M153.237 428.416L209.599 483.489L178.049 555.693L90.1342 572.832L33.7694 517.766L65.3219 445.555L153.237 428.416ZM154.912 424.574L62.3224 442.624L29.0937 518.675L88.4539 576.669L181.044 558.619L214.274 482.574L154.912 424.574Z"/>
<path d="M-204.184 481.098L-147.821 536.171L-179.371 608.379L-267.286 625.517L-323.651 570.448L-292.099 498.237L-204.184 481.098ZM-202.508 477.259L-295.098 495.309L-328.326 571.36L-268.965 629.357L-176.375 611.307L-143.143 535.259L-202.508 477.259Z"/>
</mask>
<path d="M-220.8 287.117L-339.92 310.339L-416.965 235.066L-374.213 137.227L-370.776 138.131L-412.775 234.25L-338.417 306.894L-221.392 284.081L-220.8 287.117Z" fill="url(#paint0_linear)" fill-opacity="0.4"/>
<path d="M-152.729 627.929L-156.167 627.022L-113.787 530.045L-110.355 530.947L-152.729 627.929Z" fill="url(#paint1_linear)" fill-opacity="0.4"/>
<path d="M-26.4099 337.937L-146.58 361.363L-223.625 286.09L-180.495 187.393L-60.3247 163.966L16.7156 239.237L-26.4099 337.937ZM-145.079 357.925L-29.0996 335.315L12.5258 240.057L-61.8317 167.412L-177.811 190.022L-219.434 285.277L-145.079 357.925Z" fill="url(#paint2_linear)" fill-opacity="0.4"/>
<path d="M6.91423 508.876L-113.256 532.303L-189.627 457.689L-186.782 455.56L-111.756 528.862L4.22395 506.252L45.8493 410.994L-29.1771 337.692L-26.3324 335.56L50.0397 410.177L6.91423 508.876Z" fill="url(#paint3_linear)" fill-opacity="0.4"/>
<path d="M-186.427 457.849L-306.597 481.276L-383.641 406.003L-340.512 307.303L-221.392 284.081L-220.8 287.117L-337.825 309.931L-379.451 405.186L-305.093 477.834L-189.113 455.224L-147.111 359.105L-143.677 360.013L-186.427 457.849Z" fill="url(#paint4_linear)" fill-opacity="0.4"/>
<path d="M167.491 388.071L164.054 387.166L206.052 291.045L131.694 218.4L14.6689 241.214L14.077 238.177L133.201 214.954L210.242 290.228L167.491 388.071Z" fill="url(#paint5_linear)" fill-opacity="0.4"/>
<path d="M134.167 217.131L130.729 216.223L173.106 119.25L176.542 120.152L134.167 217.131Z" fill="url(#paint6_linear)" fill-opacity="0.4"/>
<path d="M409.626 249.788L207.852 289.123L208.443 292.153L410.217 252.818L409.626 249.788Z" fill="url(#paint7_linear)" fill-opacity="0.4"/>
<path d="M-381.841 404.081L-664.621 459.208L-664.031 462.238L-381.251 407.112L-381.841 404.081Z" fill="url(#paint8_linear)" fill-opacity="0.4"/>
<path d="M-186.811 461.465C-183.555 460.83 -181.345 458.109 -181.876 455.388C-182.407 452.666 -185.476 450.975 -188.732 451.609C-191.989 452.244 -194.198 454.965 -193.667 457.687C-193.137 460.408 -190.067 462.1 -186.811 461.465Z" fill="url(#paint9_linear)" fill-opacity="0.4"/>
<path d="M-304.886 484.483C-301.63 483.849 -299.421 481.128 -299.951 478.406C-300.482 475.685 -303.551 473.993 -306.807 474.628C-310.064 475.262 -312.273 477.983 -311.742 480.705C-311.212 483.426 -308.142 485.118 -304.886 484.483Z" fill="url(#paint10_linear)" fill-opacity="0.4"/>
<path d="M-153.488 632.402C-150.231 631.767 -148.022 629.046 -148.553 626.325C-149.083 623.603 -152.153 621.911 -155.409 622.546C-158.665 623.181 -160.875 625.902 -160.344 628.623C-159.813 631.345 -156.744 633.037 -153.488 632.402Z" fill="url(#paint11_linear)" fill-opacity="0.4"/>
<path d="M-144.436 364.486C-141.18 363.851 -138.97 361.13 -139.501 358.409C-140.031 355.687 -143.101 353.996 -146.357 354.63C-149.613 355.265 -151.823 357.986 -151.292 360.708C-150.761 363.429 -147.692 365.121 -144.436 364.486Z" fill="url(#paint12_linear)" fill-opacity="0.4"/>
<path d="M-111.112 535.426C-107.855 534.791 -105.646 532.07 -106.177 529.349C-106.707 526.627 -109.777 524.935 -113.033 525.57C-116.289 526.205 -118.499 528.926 -117.968 531.647C-117.437 534.369 -114.368 536.061 -111.112 535.426Z" fill="url(#paint13_linear)" fill-opacity="0.4"/>
<path d="M-25.836 341.366C-22.5799 340.731 -20.3704 338.01 -20.9009 335.288C-21.4315 332.567 -24.5013 330.875 -27.7574 331.51C-31.0135 332.145 -33.2229 334.865 -32.6924 337.587C-32.1618 340.309 -29.0922 342 -25.836 341.366Z" fill="url(#paint14_linear)" fill-opacity="0.4"/>
<path d="M-59.1595 170.429C-55.9034 169.794 -53.6938 167.073 -54.2244 164.352C-54.755 161.63 -57.8247 159.938 -61.0808 160.573C-64.337 161.208 -66.5464 163.929 -66.0158 166.65C-65.4853 169.372 -62.4156 171.064 -59.1595 170.429Z" fill="url(#paint15_linear)" fill-opacity="0.4"/>
<path d="M-178.193 193.634C-174.937 192.999 -172.727 190.278 -173.258 187.557C-173.788 184.835 -176.858 183.143 -180.114 183.778C-183.37 184.413 -185.58 187.134 -185.049 189.855C-184.519 192.577 -181.449 194.269 -178.193 193.634Z" fill="url(#paint16_linear)" fill-opacity="0.4"/>
<path d="M209.108 295.564C212.364 294.929 214.573 292.209 214.043 289.487C213.512 286.765 210.443 285.074 207.186 285.708C203.93 286.343 201.721 289.064 202.251 291.786C202.782 294.507 205.852 296.199 209.108 295.564Z" fill="url(#paint17_linear)" fill-opacity="0.4"/>
<path d="M410.882 256.229C414.138 255.594 416.347 252.873 415.817 250.152C415.286 247.43 412.216 245.739 408.96 246.373C405.704 247.008 403.495 249.729 404.025 252.451C404.556 255.172 407.626 256.864 410.882 256.229Z" fill="url(#paint18_linear)" fill-opacity="0.4"/>
<path d="M-380.586 410.523C-377.329 409.888 -375.12 407.167 -375.651 404.445C-376.181 401.724 -379.251 400.032 -382.507 400.667C-385.763 401.302 -387.973 404.023 -387.442 406.744C-386.911 409.466 -383.842 411.157 -380.586 410.523Z" fill="url(#paint19_linear)" fill-opacity="0.4"/>
<path d="M-220.135 290.528C-216.878 289.894 -214.669 287.173 -215.2 284.451C-215.73 281.73 -218.8 280.038 -222.056 280.673C-225.312 281.307 -227.521 284.028 -226.991 286.75C-226.46 289.471 -223.391 291.163 -220.135 290.528Z" fill="url(#paint20_linear)" fill-opacity="0.4"/>
<path d="M-338.21 313.547C-334.953 312.912 -332.744 310.191 -333.275 307.469C-333.805 304.748 -336.875 303.056 -340.131 303.691C-343.387 304.326 -345.597 307.047 -345.066 309.768C-344.535 312.49 -341.466 314.181 -338.21 313.547Z" fill="url(#paint21_linear)" fill-opacity="0.4"/>
<path d="M133.223 221.643C136.479 221.008 138.689 218.287 138.158 215.565C137.628 212.844 134.558 211.152 131.302 211.787C128.046 212.422 125.836 215.143 126.367 217.864C126.897 220.586 129.967 222.277 133.223 221.643Z" fill="url(#paint22_linear)" fill-opacity="0.4"/>
<path d="M175.784 124.627C179.04 123.993 181.25 121.272 180.719 118.55C180.189 115.829 177.119 114.137 173.863 114.772C170.607 115.406 168.397 118.127 168.928 120.849C169.458 123.57 172.528 125.262 175.784 124.627Z" fill="url(#paint23_linear)" fill-opacity="0.4"/>
<path d="M15.1481 244.661C18.4042 244.026 20.6137 241.305 20.0832 238.584C19.5526 235.862 16.4829 234.17 13.2267 234.805C9.97062 235.44 7.76119 238.161 8.29175 240.882C8.82231 243.604 11.892 245.296 15.1481 244.661Z" fill="url(#paint24_linear)" fill-opacity="0.4"/>
<path d="M7.48803 512.305C10.7442 511.671 12.9537 508.95 12.4231 506.228C11.8926 503.507 8.82283 501.815 5.5667 502.45C2.31058 503.084 0.101146 505.805 0.631707 508.527C1.16227 511.248 4.23191 512.94 7.48803 512.305Z" fill="url(#paint25_linear)" fill-opacity="0.4"/>
<path d="M48.4715 415.598C51.7277 414.963 53.9372 412.242 53.4066 409.52C52.8761 406.799 49.8063 405.107 46.5502 405.742C43.2941 406.377 41.0847 409.098 41.6152 411.819C42.1458 414.541 45.2154 416.232 48.4715 415.598Z" fill="url(#paint26_linear)" fill-opacity="0.4"/>
<path d="M166.546 392.579C169.803 391.945 172.012 389.224 171.482 386.502C170.951 383.781 167.881 382.089 164.625 382.724C161.369 383.358 159.16 386.079 159.69 388.801C160.221 391.522 163.29 393.214 166.546 392.579Z" fill="url(#paint27_linear)" fill-opacity="0.4"/>
<path d="M-413.909 239.586C-410.653 238.951 -408.443 236.23 -408.974 233.509C-409.505 230.787 -412.574 229.095 -415.83 229.73C-419.087 230.365 -421.296 233.086 -420.765 235.807C-420.235 238.529 -417.165 240.221 -413.909 239.586Z" fill="url(#paint28_linear)" fill-opacity="0.4"/>
<path d="M-371.261 144.005C-368.005 143.37 -365.796 140.649 -366.326 137.928C-366.857 135.206 -369.926 133.514 -373.182 134.149C-376.439 134.784 -378.648 137.505 -378.118 140.226C-377.587 142.948 -374.517 144.64 -371.261 144.005Z" fill="url(#paint29_linear)" fill-opacity="0.4"/>
<path d="M607.292 577.766L512.399 596.265L451.562 536.826L485.618 458.888L580.511 440.389L641.348 499.828L607.292 577.766ZM513.947 592.72L604.526 575.062L637.033 500.669L578.963 443.935L488.384 461.592L455.876 535.985L513.947 592.72Z" fill="url(#paint30_linear)" fill-opacity="0.4"/>
<path d="M202.536 726.14L108.722 744.429L47.88 684.984L81.5497 607.937L85.0931 608.865L52.1979 684.143L110.269 740.88L201.926 723.012L202.536 726.14Z" fill="url(#paint31_linear)" fill-opacity="0.4"/>
<path d="M355.461 766.002L260.568 784.501L199.731 725.062L233.787 647.124L328.68 628.625L389.517 688.064L355.461 766.002ZM262.117 780.958L352.695 763.3L385.203 688.908L327.132 632.173L236.554 649.831L204.046 724.224L262.117 780.958Z" fill="url(#paint32_linear)" fill-opacity="0.4"/>
<path d="M412.063 823.838L352.613 765.748L355.544 763.554L414.998 821.644L412.063 823.838Z" fill="url(#paint33_linear)" fill-opacity="0.4"/>
<path d="M507.845 805.166L504.301 804.235L537.196 728.954L477.698 670.873L480.625 668.681L541.514 728.113L507.845 805.166Z" fill="url(#paint34_linear)" fill-opacity="0.4"/>
<path d="M481.235 671.809L477.698 670.873L511.411 593.815L514.951 594.746L481.235 671.809Z" fill="url(#paint35_linear)" fill-opacity="0.4"/>
<path d="M638.835 707.518L539.052 726.971L539.661 730.093L639.444 710.64L638.835 707.518Z" fill="url(#paint36_linear)" fill-opacity="0.4"/>
<path d="M2.93554 536.992L61.0956 593.816L28.5387 668.326L-62.1784 686.011L-120.335 629.186L-87.7815 554.677L2.93554 536.992ZM4.61157 533.153L-90.7805 551.749L-125.013 630.098L-63.8593 689.845L31.5328 671.248L65.7706 592.905L4.61157 533.153Z" fill="url(#paint37_linear)" fill-opacity="0.4"/>
<path d="M49.5094 689.753C52.8641 689.099 55.1405 686.296 54.5939 683.492C54.0473 680.688 50.8846 678.945 47.5299 679.599C44.1752 680.253 41.8987 683.056 42.4453 685.86C42.9919 688.664 46.1547 690.407 49.5094 689.753Z" fill="url(#paint38_linear)" fill-opacity="0.4"/>
<path d="M83.5147 613.845C86.8694 613.191 89.1459 610.388 88.5993 607.584C88.0526 604.78 84.8899 603.037 81.5351 603.691C78.1804 604.345 75.904 607.149 76.4506 609.953C76.9973 612.757 80.1599 614.499 83.5147 613.845Z" fill="url(#paint39_linear)" fill-opacity="0.4"/>
<path d="M237.397 653.125C240.751 652.471 243.028 649.668 242.481 646.864C241.934 644.06 238.772 642.317 235.417 642.971C232.062 643.625 229.786 646.429 230.333 649.233C230.879 652.037 234.042 653.779 237.397 653.125Z" fill="url(#paint40_linear)" fill-opacity="0.4"/>
<path d="M514.135 599.176C517.49 598.522 519.766 595.719 519.22 592.915C518.673 590.111 515.51 588.368 512.156 589.022C508.801 589.676 506.525 592.479 507.071 595.283C507.618 598.087 510.78 599.83 514.135 599.176Z" fill="url(#paint41_linear)" fill-opacity="0.4"/>
<path d="M414.88 829.653C418.235 828.999 420.511 826.196 419.965 823.392C419.418 820.588 416.255 818.845 412.9 819.499C409.546 820.153 407.269 822.956 407.816 825.76C408.363 828.564 411.525 830.307 414.88 829.653Z" fill="url(#paint42_linear)" fill-opacity="0.4"/>
<path d="M262.332 787.808C265.687 787.154 267.964 784.351 267.417 781.547C266.87 778.743 263.708 777 260.353 777.654C256.998 778.308 254.722 781.111 255.268 783.915C255.815 786.719 258.978 788.462 262.332 787.808Z" fill="url(#paint43_linear)" fill-opacity="0.4"/>
<path d="M634.055 715.342C637.41 714.688 639.686 711.885 639.14 709.081C638.593 706.277 635.43 704.534 632.076 705.188C628.721 705.842 626.444 708.645 626.991 711.449C627.538 714.253 630.7 715.996 634.055 715.342Z" fill="url(#paint44_linear)" fill-opacity="0.4"/>
<path d="M540.343 733.611C543.697 732.957 545.974 730.154 545.427 727.35C544.881 724.546 541.718 722.803 538.363 723.457C535.008 724.111 532.732 726.914 533.279 729.718C533.825 732.522 536.988 734.265 540.343 733.611Z" fill="url(#paint45_linear)" fill-opacity="0.4"/>
<path d="M153.237 428.416L209.599 483.489L178.049 555.693L90.1342 572.832L33.7694 517.766L65.3219 445.555L153.237 428.416ZM154.912 424.574L62.3224 442.624L29.0937 518.675L88.4539 576.669L181.044 558.619L214.274 482.574L154.912 424.574Z" fill="url(#paint46_linear)" fill-opacity="0.4"/>
<path d="M-204.184 481.098L-147.821 536.171L-179.371 608.379L-267.286 625.517L-323.651 570.448L-292.099 498.237L-204.184 481.098ZM-202.508 477.259L-295.098 495.309L-328.326 571.36L-268.965 629.357L-176.375 611.307L-143.143 535.259L-202.508 477.259Z" fill="url(#paint47_linear)" fill-opacity="0.4"/>
<path d="M-221.882 284.176L-221.29 287.213L-220.309 287.022L-220.901 283.985L-221.882 284.176ZM-339.92 310.339L-340.619 311.055L-340.244 311.421L-339.729 311.321L-339.92 310.339ZM-416.965 235.066L-417.881 234.666L-418.158 235.299L-417.664 235.782L-416.965 235.066ZM-374.213 137.227L-373.958 136.26L-374.786 136.042L-375.129 136.826L-374.213 137.227ZM-370.776 138.131L-369.86 138.532L-369.392 137.461L-370.521 137.164L-370.776 138.131ZM-412.775 234.25L-413.691 233.849L-413.967 234.482L-413.473 234.965L-412.775 234.25ZM-338.417 306.894L-339.116 307.61L-338.741 307.976L-338.226 307.876L-338.417 306.894ZM-152.729 627.929L-152.985 628.896L-152.156 629.115L-151.813 628.33L-152.729 627.929ZM-156.167 627.022L-157.083 626.621L-157.55 627.691L-156.422 627.989L-156.167 627.022ZM-113.787 530.045L-113.533 529.078L-114.361 528.86L-114.703 529.645L-113.787 530.045ZM-110.355 530.947L-109.438 531.348L-108.97 530.277L-110.1 529.98L-110.355 530.947ZM-26.4099 337.937L-26.2185 338.918L-25.7036 338.818L-25.4935 338.337L-26.4099 337.937ZM-146.58 361.363L-147.279 362.079L-146.904 362.445L-146.389 362.345L-146.58 361.363ZM-223.625 286.09L-224.541 285.69L-224.818 286.323L-224.324 286.806L-223.625 286.09ZM-180.495 187.393L-180.686 186.412L-181.201 186.512L-181.411 186.993L-180.495 187.393ZM-60.3247 163.966L-59.6259 163.251L-60.0011 162.885L-60.5161 162.985L-60.3247 163.966ZM16.7156 239.237L17.6319 239.637L17.9085 239.004L17.4144 238.522L16.7156 239.237ZM-145.079 357.925L-145.778 358.64L-145.403 359.007L-144.888 358.907L-145.079 357.925ZM-29.0996 335.315L-28.9082 336.297L-28.3933 336.197L-28.1833 335.716L-29.0996 335.315ZM12.5258 240.057L13.4421 240.457L13.7187 239.824L13.2246 239.342L12.5258 240.057ZM-61.8317 167.412L-61.1329 166.697L-61.5081 166.33L-62.023 166.431L-61.8317 167.412ZM-177.811 190.022L-178.003 189.04L-178.518 189.141L-178.728 189.622L-177.811 190.022ZM-219.434 285.277L-220.35 284.876L-220.627 285.509L-220.133 285.992L-219.434 285.277ZM6.91423 508.876L7.10558 509.858L7.62052 509.758L7.83058 509.277L6.91423 508.876ZM-113.256 532.303L-113.955 533.018L-113.58 533.385L-113.065 533.285L-113.256 532.303ZM-189.627 457.689L-190.227 456.889L-191.162 457.588L-190.326 458.405L-189.627 457.689ZM-186.782 455.56L-186.083 454.845L-186.696 454.247L-187.381 454.76L-186.782 455.56ZM-111.756 528.862L-112.455 529.577L-112.079 529.944L-111.564 529.843L-111.756 528.862ZM4.22395 506.252L4.41529 507.234L4.93022 507.133L5.14028 506.653L4.22395 506.252ZM45.8493 410.994L46.7657 411.394L47.0422 410.761L46.5482 410.278L45.8493 410.994ZM-29.1771 337.692L-29.7768 336.892L-30.7107 337.592L-29.8759 338.407L-29.1771 337.692ZM-26.3324 335.56L-25.6335 334.845L-26.2464 334.246L-26.9321 334.76L-26.3324 335.56ZM50.0397 410.177L50.9561 410.577L51.2326 409.944L50.7385 409.462L50.0397 410.177ZM-186.427 457.849L-186.235 458.831L-185.72 458.731L-185.51 458.25L-186.427 457.849ZM-306.597 481.276L-307.296 481.991L-306.92 482.358L-306.406 482.258L-306.597 481.276ZM-383.641 406.003L-384.558 405.603L-384.834 406.236L-384.34 406.719L-383.641 406.003ZM-340.512 307.303L-340.704 306.321L-341.219 306.422L-341.429 306.902L-340.512 307.303ZM-337.825 309.931L-338.016 308.949L-338.531 309.05L-338.741 309.531L-337.825 309.931ZM-379.451 405.186L-380.367 404.786L-380.644 405.419L-380.15 405.902L-379.451 405.186ZM-305.093 477.834L-305.792 478.549L-305.417 478.916L-304.902 478.816L-305.093 477.834ZM-189.113 455.224L-188.922 456.206L-188.407 456.106L-188.197 455.625L-189.113 455.224ZM-147.111 359.105L-146.855 358.139L-147.684 357.919L-148.027 358.705L-147.111 359.105ZM-143.677 360.013L-142.761 360.414L-142.294 359.345L-143.422 359.047L-143.677 360.013ZM167.491 388.071L167.236 389.038L168.064 389.256L168.407 388.471L167.491 388.071ZM164.054 387.166L163.138 386.766L162.67 387.836L163.799 388.133L164.054 387.166ZM206.052 291.045L206.968 291.445L207.245 290.812L206.751 290.329L206.052 291.045ZM131.694 218.4L132.393 217.685L132.018 217.318L131.503 217.418L131.694 218.4ZM14.6689 241.214L13.6874 241.405L13.8787 242.386L14.8602 242.195L14.6689 241.214ZM14.077 238.177L13.8856 237.196L12.9041 237.387L13.0954 238.368L14.077 238.177ZM133.201 214.954L133.9 214.239L133.525 213.872L133.01 213.973L133.201 214.954ZM210.242 290.228L211.159 290.628L211.435 289.995L210.941 289.513L210.242 290.228ZM134.167 217.131L133.911 218.098L134.74 218.316L135.083 217.531L134.167 217.131ZM130.729 216.223L129.813 215.823L129.346 216.892L130.474 217.19L130.729 216.223ZM173.106 119.25L173.36 118.283L172.532 118.066L172.19 118.85L173.106 119.25ZM176.542 120.152L177.458 120.552L177.926 119.481L176.796 119.184L176.542 120.152ZM207.852 289.123L207.661 288.141L206.679 288.332L206.871 289.314L207.852 289.123ZM409.626 249.788L410.607 249.596L410.416 248.615L409.435 248.806L409.626 249.788ZM410.217 252.818L410.408 253.799L411.39 253.608L411.198 252.627L410.217 252.818ZM208.443 292.153L207.461 292.344L207.653 293.326L208.634 293.135L208.443 292.153ZM-664.621 459.208L-664.813 458.227L-665.794 458.418L-665.603 459.399L-664.621 459.208ZM-381.841 404.081L-380.86 403.89L-381.051 402.908L-382.033 403.1L-381.841 404.081ZM-381.251 407.112L-381.059 408.093L-380.078 407.902L-380.269 406.92L-381.251 407.112ZM-664.031 462.238L-665.012 462.43L-664.821 463.411L-663.839 463.22L-664.031 462.238ZM607.292 577.766L607.483 578.747L607.998 578.647L608.208 578.166L607.292 577.766ZM512.399 596.265L511.7 596.98L512.075 597.347L512.59 597.246L512.399 596.265ZM451.562 536.826L450.646 536.426L450.369 537.059L450.863 537.541L451.562 536.826ZM485.618 458.888L485.427 457.907L484.912 458.007L484.702 458.488L485.618 458.888ZM580.511 440.389L581.21 439.674L580.834 439.307L580.319 439.408L580.511 440.389ZM641.348 499.828L642.264 500.228L642.541 499.595L642.046 499.113L641.348 499.828ZM513.947 592.72L513.248 593.435L513.623 593.801L514.138 593.701L513.947 592.72ZM604.526 575.062L604.717 576.043L605.232 575.943L605.442 575.462L604.526 575.062ZM637.033 500.669L637.95 501.07L638.226 500.437L637.732 499.954L637.033 500.669ZM578.963 443.935L579.662 443.219L579.286 442.853L578.771 442.953L578.963 443.935ZM488.384 461.592L488.193 460.611L487.678 460.711L487.468 461.192L488.384 461.592ZM455.876 535.985L454.96 535.585L454.683 536.218L455.177 536.7L455.876 535.985ZM202.536 726.14L202.727 727.121L203.709 726.93L203.517 725.949L202.536 726.14ZM108.722 744.429L108.023 745.144L108.398 745.511L108.913 745.41L108.722 744.429ZM47.88 684.984L46.9637 684.584L46.6871 685.217L47.1811 685.7L47.88 684.984ZM81.5497 607.937L81.803 606.97L80.9758 606.753L80.6334 607.537L81.5497 607.937ZM85.0931 608.865L86.0094 609.266L86.4777 608.194L85.3464 607.898L85.0931 608.865ZM52.1979 684.143L51.2816 683.742L51.005 684.375L51.4991 684.858L52.1979 684.143ZM110.269 740.88L109.57 741.595L109.946 741.962L110.46 741.862L110.269 740.88ZM201.926 723.012L202.908 722.821L202.716 721.839L201.735 722.03L201.926 723.012ZM355.461 766.002L355.652 766.983L356.167 766.883L356.377 766.402L355.461 766.002ZM260.568 784.501L259.869 785.216L260.245 785.583L260.759 785.482L260.568 784.501ZM199.731 725.062L198.815 724.661L198.538 725.294L199.032 725.777L199.731 725.062ZM233.787 647.124L233.596 646.142L233.081 646.243L232.871 646.723L233.787 647.124ZM328.68 628.625L329.379 627.91L329.003 627.543L328.489 627.643L328.68 628.625ZM389.517 688.064L390.433 688.464L390.71 687.831L390.216 687.348L389.517 688.064ZM262.117 780.958L261.418 781.674L261.793 782.04L262.308 781.94L262.117 780.958ZM352.695 763.3L352.887 764.282L353.401 764.182L353.612 763.701L352.695 763.3ZM385.203 688.908L386.119 689.308L386.396 688.675L385.902 688.193L385.203 688.908ZM327.132 632.173L327.831 631.458L327.456 631.091L326.941 631.192L327.132 632.173ZM236.554 649.831L236.363 648.85L235.848 648.95L235.638 649.431L236.554 649.831ZM204.046 724.224L203.13 723.823L202.853 724.456L203.347 724.939L204.046 724.224ZM412.063 823.838L411.364 824.553L411.977 825.152L412.662 824.639L412.063 823.838ZM352.613 765.748L352.013 764.947L351.078 765.647L351.914 766.463L352.613 765.748ZM355.544 763.554L356.243 762.839L355.63 762.241L354.945 762.754L355.544 763.554ZM414.998 821.644L415.597 822.445L416.533 821.746L415.697 820.929L414.998 821.644ZM507.845 805.166L507.591 806.133L508.419 806.35L508.762 805.566L507.845 805.166ZM504.301 804.235L503.385 803.834L502.917 804.905L504.047 805.202L504.301 804.235ZM537.196 728.954L538.112 729.355L538.389 728.722L537.894 728.239L537.196 728.954ZM477.698 670.873L476.782 670.472L476.504 671.106L476.999 671.589L477.698 670.873ZM480.625 668.681L481.324 667.965L480.711 667.367L480.026 667.88L480.625 668.681ZM541.514 728.113L542.43 728.513L542.707 727.88L542.212 727.397L541.514 728.113ZM481.235 671.809L480.979 672.775L481.808 672.994L482.151 672.209L481.235 671.809ZM511.411 593.815L511.665 592.848L510.837 592.63L510.494 593.414L511.411 593.815ZM514.951 594.746L515.867 595.147L516.335 594.077L515.205 593.779L514.951 594.746ZM539.052 726.971L538.861 725.989L537.879 726.181L538.071 727.162L539.052 726.971ZM638.835 707.518L639.816 707.327L639.625 706.346L638.644 706.537L638.835 707.518ZM639.444 710.64L639.635 711.622L640.616 711.43L640.425 710.449L639.444 710.64ZM539.661 730.093L538.679 730.284L538.87 731.265L539.852 731.074L539.661 730.093ZM2.93554 536.992L3.63438 536.276L3.25913 535.91L2.74419 536.01L2.93554 536.992ZM61.0956 593.816L62.0119 594.217L62.2885 593.584L61.7944 593.101L61.0956 593.816ZM28.5387 668.326L28.73 669.308L29.2449 669.207L29.455 668.726L28.5387 668.326ZM-62.1784 686.011L-62.8773 686.726L-62.502 687.093L-61.987 686.992L-62.1784 686.011ZM-120.335 629.186L-121.251 628.785L-121.528 629.418L-121.034 629.901L-120.335 629.186ZM-87.7815 554.677L-87.9729 553.695L-88.4878 553.796L-88.6979 554.276L-87.7815 554.677ZM4.61157 533.153L5.3104 532.437L4.93515 532.071L4.42022 532.171L4.61157 533.153ZM-90.7805 551.749L-90.9718 550.768L-91.4868 550.868L-91.6968 551.349L-90.7805 551.749ZM-125.013 630.098L-125.93 629.697L-126.206 630.33L-125.712 630.813L-125.013 630.098ZM-63.8593 689.845L-64.5581 690.56L-64.1829 690.926L-63.6679 690.826L-63.8593 689.845ZM31.5328 671.248L31.7241 672.23L32.239 672.129L32.4491 671.649L31.5328 671.248ZM65.7706 592.905L66.6869 593.305L66.9635 592.672L66.4694 592.19L65.7706 592.905ZM153.237 428.416L153.936 427.701L153.56 427.334L153.045 427.435L153.237 428.416ZM209.599 483.489L210.516 483.889L210.792 483.256L210.298 482.774L209.599 483.489ZM178.049 555.693L178.24 556.675L178.755 556.575L178.965 556.094L178.049 555.693ZM90.1342 572.832L89.4354 573.547L89.8106 573.914L90.3255 573.814L90.1342 572.832ZM33.7694 517.766L32.8531 517.366L32.5765 517.999L33.0706 518.481L33.7694 517.766ZM65.3219 445.555L65.1306 444.573L64.6157 444.674L64.4056 445.154L65.3219 445.555ZM154.912 424.574L155.611 423.859L155.236 423.492L154.721 423.592L154.912 424.574ZM62.3224 442.624L62.131 441.643L61.6161 441.743L61.406 442.224L62.3224 442.624ZM29.0937 518.675L28.1773 518.274L27.9008 518.907L28.3949 519.39L29.0937 518.675ZM88.4539 576.669L87.7551 577.384L88.1303 577.751L88.6453 577.65L88.4539 576.669ZM181.044 558.619L181.235 559.6L181.75 559.5L181.96 559.019L181.044 558.619ZM214.274 482.574L215.19 482.975L215.467 482.342L214.972 481.859L214.274 482.574ZM-204.184 481.098L-203.485 480.383L-203.86 480.016L-204.375 480.117L-204.184 481.098ZM-147.821 536.171L-146.905 536.571L-146.628 535.938L-147.122 535.456L-147.821 536.171ZM-179.371 608.379L-179.179 609.36L-178.664 609.26L-178.454 608.779L-179.371 608.379ZM-267.286 625.517L-267.985 626.233L-267.609 626.599L-267.094 626.499L-267.286 625.517ZM-323.651 570.448L-324.567 570.048L-324.844 570.681L-324.35 571.164L-323.651 570.448ZM-292.099 498.237L-292.29 497.255L-292.805 497.356L-293.015 497.836L-292.099 498.237ZM-202.508 477.259L-201.809 476.544L-202.184 476.177L-202.699 476.278L-202.508 477.259ZM-295.098 495.309L-295.289 494.328L-295.804 494.428L-296.014 494.909L-295.098 495.309ZM-328.326 571.36L-329.243 570.959L-329.519 571.592L-329.025 572.075L-328.326 571.36ZM-268.965 629.357L-269.664 630.072L-269.289 630.439L-268.774 630.339L-268.965 629.357ZM-176.375 611.307L-176.184 612.289L-175.669 612.188L-175.459 611.707L-176.375 611.307ZM-143.143 535.259L-142.226 535.659L-141.95 535.026L-142.444 534.544L-143.143 535.259ZM-220.991 286.136L-340.112 309.358L-339.729 311.321L-220.608 288.099L-220.991 286.136ZM-339.222 309.624L-416.266 234.351L-417.664 235.782L-340.619 311.055L-339.222 309.624ZM-416.049 235.467L-373.296 137.627L-375.129 136.826L-417.881 234.666L-416.049 235.467ZM-374.467 138.194L-371.03 139.098L-370.521 137.164L-373.958 136.26L-374.467 138.194ZM-371.692 137.731L-413.691 233.849L-411.858 234.65L-369.86 138.532L-371.692 137.731ZM-413.473 234.965L-339.116 307.61L-337.718 306.179L-412.076 233.534L-413.473 234.965ZM-338.226 307.876L-221.2 285.062L-221.583 283.099L-338.608 305.913L-338.226 307.876ZM-152.474 626.962L-155.911 626.055L-156.422 627.989L-152.985 628.896L-152.474 626.962ZM-155.25 627.422L-112.871 530.446L-114.703 529.645L-157.083 626.621L-155.25 627.422ZM-114.041 531.012L-110.609 531.914L-110.1 529.98L-113.533 529.078L-114.041 531.012ZM-111.271 530.547L-153.646 627.529L-151.813 628.33L-109.438 531.348L-111.271 530.547ZM-26.6012 336.955L-146.771 360.382L-146.389 362.345L-26.2185 338.918L-26.6012 336.955ZM-145.881 360.648L-222.926 285.375L-224.324 286.806L-147.279 362.079L-145.881 360.648ZM-222.708 286.491L-179.579 187.794L-181.411 186.993L-224.541 285.69L-222.708 286.491ZM-180.304 188.375L-60.1334 164.948L-60.5161 162.985L-180.686 186.412L-180.304 188.375ZM-61.0236 164.682L16.0167 239.952L17.4144 238.522L-59.6259 163.251L-61.0236 164.682ZM15.7992 238.837L-27.3262 337.536L-25.4935 338.337L17.6319 239.637L15.7992 238.837ZM-144.888 358.907L-28.9082 336.297L-29.2909 334.334L-145.271 356.944L-144.888 358.907ZM-28.1833 335.716L13.4421 240.457L11.6095 239.657L-30.0159 334.915L-28.1833 335.716ZM13.2246 239.342L-61.1329 166.697L-62.5305 168.127L11.827 240.772L13.2246 239.342ZM-62.023 166.431L-178.003 189.04L-177.62 191.003L-61.6404 168.394L-62.023 166.431ZM-178.728 189.622L-220.35 284.876L-218.517 285.677L-176.895 190.422L-178.728 189.622ZM-220.133 285.992L-145.778 358.64L-144.38 357.21L-218.735 284.561L-220.133 285.992ZM6.72289 507.895L-113.447 531.322L-113.065 533.285L7.10558 509.858L6.72289 507.895ZM-112.557 531.588L-188.929 456.974L-190.326 458.405L-113.955 533.018L-112.557 531.588ZM-189.028 458.49L-186.183 456.361L-187.381 454.76L-190.227 456.889L-189.028 458.49ZM-187.481 456.276L-112.455 529.577L-111.057 528.147L-186.083 454.845L-187.481 456.276ZM-111.564 529.843L4.41529 507.234L4.03261 505.271L-111.947 527.88L-111.564 529.843ZM5.14028 506.653L46.7657 411.394L44.933 410.593L3.30762 505.852L5.14028 506.653ZM46.5482 410.278L-28.4783 336.977L-29.8759 338.407L45.1505 411.709L46.5482 410.278ZM-28.5774 338.492L-25.7326 336.36L-26.9321 334.76L-29.7768 336.892L-28.5774 338.492ZM-27.0312 336.275L49.3409 410.892L50.7385 409.462L-25.6335 334.845L-27.0312 336.275ZM49.1234 409.776L5.99789 508.476L7.83058 509.277L50.9561 410.577L49.1234 409.776ZM-186.618 456.868L-306.788 480.295L-306.406 482.258L-186.235 458.831L-186.618 456.868ZM-305.898 480.561L-382.943 405.288L-384.34 406.719L-307.296 481.991L-305.898 480.561ZM-382.725 406.404L-339.596 307.703L-341.429 306.902L-384.558 405.603L-382.725 406.404ZM-340.321 308.284L-221.2 285.062L-221.583 283.099L-340.704 306.321L-340.321 308.284ZM-220.991 286.136L-338.016 308.949L-337.634 310.912L-220.608 288.099L-220.991 286.136ZM-338.741 309.531L-380.367 404.786L-378.535 405.587L-336.909 310.331L-338.741 309.531ZM-380.15 405.902L-305.792 478.549L-304.394 477.119L-378.752 404.471L-380.15 405.902ZM-304.902 478.816L-188.922 456.206L-189.305 454.243L-305.284 476.853L-304.902 478.816ZM-188.197 455.625L-146.195 359.506L-148.027 358.705L-190.03 454.824L-188.197 455.625ZM-147.367 360.072L-143.933 360.98L-143.422 359.047L-146.855 358.139L-147.367 360.072ZM-144.594 359.613L-187.343 457.449L-185.51 458.25L-142.761 360.414L-144.594 359.613ZM167.745 387.103L164.308 386.199L163.799 388.133L167.236 389.038L167.745 387.103ZM164.97 387.566L206.968 291.445L205.136 290.644L163.138 386.766L164.97 387.566ZM206.751 290.329L132.393 217.685L130.996 219.115L205.353 291.76L206.751 290.329ZM131.503 217.418L14.4776 240.232L14.8602 242.195L131.886 219.381L131.503 217.418ZM15.6504 241.022L15.0585 237.986L13.0954 238.368L13.6874 241.405L15.6504 241.022ZM14.2683 239.159L133.393 215.936L133.01 213.973L13.8856 237.196L14.2683 239.159ZM132.503 215.669L209.543 290.943L210.941 289.513L133.9 214.239L132.503 215.669ZM209.326 289.827L166.574 387.67L168.407 388.471L211.159 290.628L209.326 289.827ZM134.422 216.164L130.985 215.256L130.474 217.19L133.911 218.098L134.422 216.164ZM131.646 216.624L174.022 119.651L172.19 118.85L129.813 215.823L131.646 216.624ZM172.852 120.218L176.288 121.119L176.796 119.184L173.36 118.283L172.852 120.218ZM175.626 119.751L133.25 216.73L135.083 217.531L177.458 120.552L175.626 119.751ZM208.043 290.104L409.817 250.769L409.435 248.806L207.661 288.141L208.043 290.104ZM408.644 249.979L409.235 253.009L411.198 252.627L410.607 249.596L408.644 249.979ZM410.025 251.836L208.251 291.171L208.634 293.135L410.408 253.799L410.025 251.836ZM209.424 291.962L208.834 288.931L206.871 289.314L207.461 292.344L209.424 291.962ZM-664.43 460.19L-381.65 405.063L-382.033 403.1L-664.813 458.227L-664.43 460.19ZM-382.823 404.272L-382.232 407.303L-380.269 406.92L-380.86 403.89L-382.823 404.272ZM-381.442 406.13L-664.222 461.257L-663.839 463.22L-381.059 408.093L-381.442 406.13ZM-663.049 462.047L-663.64 459.017L-665.603 459.399L-665.012 462.43L-663.049 462.047ZM-182.858 455.579C-182.463 457.601 -184.116 459.921 -187.002 460.484L-186.62 462.447C-182.994 461.74 -180.228 458.618 -180.895 455.197L-182.858 455.579ZM-187.002 460.484C-189.889 461.046 -192.292 459.517 -192.686 457.495L-194.649 457.878C-193.982 461.299 -190.246 463.154 -186.62 462.447L-187.002 460.484ZM-192.686 457.495C-193.08 455.473 -191.427 453.154 -188.541 452.591L-188.924 450.628C-192.55 451.335 -195.316 454.457 -194.649 457.878L-192.686 457.495ZM-188.541 452.591C-185.655 452.028 -183.252 453.557 -182.858 455.579L-180.895 455.197C-181.561 451.775 -185.298 449.921 -188.924 450.628L-188.541 452.591ZM-300.933 478.598C-300.538 480.62 -302.191 482.939 -305.077 483.502L-304.695 485.465C-301.069 484.758 -298.303 481.636 -298.97 478.215L-300.933 478.598ZM-305.077 483.502C-307.964 484.065 -310.367 482.536 -310.761 480.514L-312.724 480.896C-312.057 484.317 -308.321 486.172 -304.695 485.465L-305.077 483.502ZM-310.761 480.514C-311.155 478.492 -309.502 476.172 -306.616 475.609L-306.999 473.646C-310.625 474.353 -313.391 477.475 -312.724 480.896L-310.761 480.514ZM-306.616 475.609C-303.73 475.047 -301.327 476.575 -300.933 478.598L-298.97 478.215C-299.636 474.794 -303.373 472.939 -306.999 473.646L-306.616 475.609ZM-149.534 626.516C-149.14 628.538 -150.793 630.858 -153.679 631.42L-153.296 633.383C-149.67 632.676 -146.904 629.554 -147.571 626.133L-149.534 626.516ZM-153.679 631.42C-156.565 631.983 -158.968 630.454 -159.362 628.432L-161.326 628.815C-160.659 632.236 -156.922 634.09 -153.296 633.383L-153.679 631.42ZM-159.362 628.432C-159.757 626.41 -158.104 624.09 -155.218 623.528L-155.6 621.565C-159.226 622.271 -161.992 625.394 -161.326 628.815L-159.362 628.432ZM-155.218 623.528C-152.331 622.965 -149.928 624.494 -149.534 626.516L-147.571 626.133C-148.238 622.712 -151.974 620.858 -155.6 621.565L-155.218 623.528ZM-140.482 358.6C-140.088 360.622 -141.741 362.942 -144.627 363.505L-144.244 365.468C-140.618 364.761 -137.852 361.639 -138.519 358.218L-140.482 358.6ZM-144.627 363.505C-147.513 364.067 -149.916 362.538 -150.311 360.516L-152.274 360.899C-151.607 364.32 -147.87 366.174 -144.244 365.468L-144.627 363.505ZM-150.311 360.516C-150.705 358.494 -149.052 356.175 -146.166 355.612L-146.548 353.649C-150.174 354.356 -152.941 357.478 -152.274 360.899L-150.311 360.516ZM-146.166 355.612C-143.279 355.049 -140.876 356.578 -140.482 358.6L-138.519 358.218C-139.186 354.796 -142.922 352.942 -146.548 353.649L-146.166 355.612ZM-107.158 529.54C-106.764 531.562 -108.417 533.882 -111.303 534.444L-110.92 536.407C-107.294 535.701 -104.528 532.578 -105.195 529.157L-107.158 529.54ZM-111.303 534.444C-114.189 535.007 -116.592 533.478 -116.986 531.456L-118.949 531.839C-118.283 535.26 -114.546 537.114 -110.92 536.407L-111.303 534.444ZM-116.986 531.456C-117.381 529.434 -115.728 527.114 -112.842 526.552L-113.224 524.589C-116.85 525.296 -119.616 528.418 -118.949 531.839L-116.986 531.456ZM-112.842 526.552C-109.955 525.989 -107.552 527.518 -107.158 529.54L-105.195 529.157C-105.862 525.736 -109.598 523.882 -113.224 524.589L-112.842 526.552ZM-21.8825 335.48C-21.4883 337.502 -23.1411 339.821 -26.0274 340.384L-25.6447 342.347C-22.0187 341.64 -19.2525 338.518 -19.9194 335.097L-21.8825 335.48ZM-26.0274 340.384C-28.9136 340.947 -31.3167 339.418 -31.7108 337.396L-33.6739 337.778C-33.007 341.199 -29.2707 343.054 -25.6447 342.347L-26.0274 340.384ZM-31.7108 337.396C-32.105 335.374 -30.4523 333.054 -27.566 332.491L-27.9487 330.528C-31.5747 331.235 -34.3408 334.357 -33.6739 337.778L-31.7108 337.396ZM-27.566 332.491C-24.6798 331.929 -22.2766 333.458 -21.8825 335.48L-19.9194 335.097C-20.5863 331.676 -24.3227 329.821 -27.9487 330.528L-27.566 332.491ZM-55.2059 164.543C-54.8117 166.565 -56.4646 168.885 -59.3509 169.447L-58.9682 171.41C-55.3422 170.703 -52.5759 167.581 -53.2429 164.16L-55.2059 164.543ZM-59.3509 169.447C-62.2371 170.01 -64.6401 168.481 -65.0343 166.459L-66.9974 166.842C-66.3304 170.263 -62.5942 172.117 -58.9682 171.41L-59.3509 169.447ZM-65.0343 166.459C-65.4285 164.437 -63.7757 162.117 -60.8895 161.555L-61.2722 159.592C-64.8982 160.298 -67.6643 163.42 -66.9974 166.842L-65.0343 166.459ZM-60.8895 161.555C-58.0033 160.992 -55.6001 162.521 -55.2059 164.543L-53.2429 164.16C-53.9098 160.739 -57.6462 158.885 -61.2722 159.592L-60.8895 161.555ZM-174.239 187.748C-173.845 189.77 -175.498 192.09 -178.384 192.652L-178.001 194.615C-174.375 193.909 -171.609 190.786 -172.276 187.365L-174.239 187.748ZM-178.384 192.652C-181.27 193.215 -183.673 191.686 -184.068 189.664L-186.031 190.047C-185.364 193.468 -181.627 195.322 -178.001 194.615L-178.384 192.652ZM-184.068 189.664C-184.462 187.642 -182.809 185.322 -179.923 184.76L-180.305 182.797C-183.931 183.504 -186.698 186.626 -186.031 190.047L-184.068 189.664ZM-179.923 184.76C-177.037 184.197 -174.633 185.726 -174.239 187.748L-172.276 187.365C-172.943 183.944 -176.68 182.09 -180.305 182.797L-179.923 184.76ZM213.061 289.678C213.455 291.7 211.803 294.02 208.916 294.583L209.299 296.546C212.925 295.839 215.691 292.717 215.024 289.296L213.061 289.678ZM208.916 294.583C206.03 295.145 203.627 293.616 203.233 291.594L201.27 291.977C201.937 295.398 205.673 297.252 209.299 296.546L208.916 294.583ZM203.233 291.594C202.839 289.572 204.492 287.253 207.378 286.69L206.995 284.727C203.369 285.434 200.603 288.556 201.27 291.977L203.233 291.594ZM207.378 286.69C210.264 286.127 212.667 287.656 213.061 289.678L215.024 289.296C214.357 285.874 210.621 284.02 206.995 284.727L207.378 286.69ZM414.835 250.343C415.229 252.365 413.577 254.685 410.69 255.248L411.073 257.211C414.699 256.504 417.465 253.382 416.798 249.96L414.835 250.343ZM410.69 255.248C407.804 255.81 405.401 254.281 405.007 252.259L403.044 252.642C403.711 256.063 407.447 257.917 411.073 257.211L410.69 255.248ZM405.007 252.259C404.613 250.237 406.265 247.918 409.152 247.355L408.769 245.392C405.143 246.099 402.377 249.221 403.044 252.642L405.007 252.259ZM409.152 247.355C412.038 246.792 414.441 248.321 414.835 250.343L416.798 249.96C416.131 246.539 412.395 244.685 408.769 245.392L409.152 247.355ZM-376.632 404.637C-376.238 406.659 -377.891 408.978 -380.777 409.541L-380.394 411.504C-376.768 410.797 -374.002 407.675 -374.669 404.254L-376.632 404.637ZM-380.777 409.541C-383.663 410.104 -386.066 408.575 -386.46 406.553L-388.424 406.935C-387.757 410.357 -384.02 412.211 -380.394 411.504L-380.777 409.541ZM-386.46 406.553C-386.855 404.531 -385.202 402.211 -382.316 401.648L-382.698 399.685C-386.324 400.392 -389.09 403.514 -388.424 406.935L-386.46 406.553ZM-382.316 401.648C-379.429 401.086 -377.026 402.615 -376.632 404.637L-374.669 404.254C-375.336 400.833 -379.072 398.979 -382.698 399.685L-382.316 401.648ZM-216.181 284.643C-215.787 286.665 -217.44 288.984 -220.326 289.547L-219.943 291.51C-216.317 290.803 -213.551 287.681 -214.218 284.26L-216.181 284.643ZM-220.326 289.547C-223.212 290.11 -225.615 288.581 -226.009 286.559L-227.972 286.941C-227.306 290.362 -223.569 292.217 -219.943 291.51L-220.326 289.547ZM-226.009 286.559C-226.404 284.537 -224.751 282.217 -221.865 281.654L-222.247 279.691C-225.873 280.398 -228.639 283.52 -227.972 286.941L-226.009 286.559ZM-221.865 281.654C-218.978 281.092 -216.575 282.621 -216.181 284.643L-214.218 284.26C-214.885 280.839 -218.621 278.984 -222.247 279.691L-221.865 281.654ZM-334.256 307.661C-333.862 309.683 -335.515 312.002 -338.401 312.565L-338.018 314.528C-334.392 313.821 -331.626 310.699 -332.293 307.278L-334.256 307.661ZM-338.401 312.565C-341.287 313.128 -343.69 311.599 -344.084 309.577L-346.047 309.96C-345.381 313.381 -341.644 315.235 -338.018 314.528L-338.401 312.565ZM-344.084 309.577C-344.479 307.555 -342.826 305.235 -339.94 304.672L-340.322 302.709C-343.948 303.416 -346.714 306.538 -346.047 309.96L-344.084 309.577ZM-339.94 304.672C-337.053 304.11 -334.65 305.639 -334.256 307.661L-332.293 307.278C-332.96 303.857 -336.696 302.003 -340.322 302.709L-339.94 304.672ZM137.177 215.757C137.571 217.779 135.918 220.098 133.032 220.661L133.414 222.624C137.04 221.917 139.807 218.795 139.14 215.374L137.177 215.757ZM133.032 220.661C130.145 221.224 127.742 219.695 127.348 217.673L125.385 218.055C126.052 221.477 129.788 223.331 133.414 222.624L133.032 220.661ZM127.348 217.673C126.954 215.651 128.607 213.331 131.493 212.768L131.11 210.805C127.484 211.512 124.718 214.634 125.385 218.055L127.348 217.673ZM131.493 212.768C134.379 212.206 136.782 213.735 137.177 215.757L139.14 215.374C138.473 211.953 134.736 210.099 131.11 210.805L131.493 212.768ZM179.738 118.742C180.132 120.764 178.479 123.083 175.593 123.646L175.976 125.609C179.602 124.902 182.368 121.78 181.701 118.359L179.738 118.742ZM175.593 123.646C172.707 124.209 170.304 122.68 169.909 120.658L167.946 121.04C168.613 124.461 172.35 126.316 175.976 125.609L175.593 123.646ZM169.909 120.658C169.515 118.636 171.168 116.316 174.054 115.753L173.672 113.79C170.046 114.497 167.279 117.619 167.946 121.04L169.909 120.658ZM174.054 115.753C176.941 115.191 179.344 116.72 179.738 118.742L181.701 118.359C181.034 114.938 177.298 113.083 173.672 113.79L174.054 115.753ZM19.1017 238.775C19.4958 240.797 17.843 243.117 14.9567 243.679L15.3394 245.642C18.9654 244.936 21.7316 241.814 21.0647 238.392L19.1017 238.775ZM14.9567 243.679C12.0705 244.242 9.66746 242.713 9.27327 240.691L7.31023 241.074C7.97716 244.495 11.7134 246.349 15.3394 245.642L14.9567 243.679ZM9.27327 240.691C8.87909 238.669 10.5319 236.349 13.4181 235.787L13.0354 233.824C9.40938 234.531 6.64329 237.653 7.31023 241.074L9.27327 240.691ZM13.4181 235.787C16.3043 235.224 18.7075 236.753 19.1017 238.775L21.0647 238.392C20.3978 234.971 16.6614 233.117 13.0354 233.824L13.4181 235.787ZM11.4416 506.419C11.8358 508.441 10.1829 510.761 7.29669 511.324L7.67938 513.287C11.3054 512.58 14.0716 509.458 13.4047 506.037L11.4416 506.419ZM7.29669 511.324C4.41046 511.886 2.00741 510.358 1.61323 508.335L-0.349816 508.718C0.317121 512.139 4.05336 513.994 7.67938 513.287L7.29669 511.324ZM1.61323 508.335C1.21904 506.313 2.87182 503.994 5.75805 503.431L5.37536 501.468C1.74935 502.175 -1.01675 505.297 -0.349816 508.718L1.61323 508.335ZM5.75805 503.431C8.6443 502.869 11.0474 504.397 11.4416 506.419L13.4047 506.037C12.7377 502.616 9.00135 500.761 5.37536 501.468L5.75805 503.431ZM52.4251 409.712C52.8193 411.734 51.1664 414.053 48.2802 414.616L48.6629 416.579C52.2889 415.872 55.0551 412.75 54.3882 409.329L52.4251 409.712ZM48.2802 414.616C45.394 415.179 42.9909 413.65 42.5967 411.628L40.6337 412.01C41.3006 415.432 45.0369 417.286 48.6629 416.579L48.2802 414.616ZM42.5967 411.628C42.2026 409.606 43.8553 407.286 46.7416 406.723L46.3589 404.76C42.7329 405.467 39.9668 408.589 40.6337 412.01L42.5967 411.628ZM46.7416 406.723C49.6278 406.161 52.0309 407.69 52.4251 409.712L54.3882 409.329C53.7212 405.908 49.9849 404.054 46.3589 404.76L46.7416 406.723ZM170.5 386.693C170.894 388.715 169.241 391.035 166.355 391.598L166.738 393.561C170.364 392.854 173.13 389.732 172.463 386.311L170.5 386.693ZM166.355 391.598C163.469 392.161 161.066 390.632 160.672 388.609L158.709 388.992C159.376 392.413 163.112 394.268 166.738 393.561L166.355 391.598ZM160.672 388.609C160.277 386.587 161.93 384.268 164.816 383.705L164.434 381.742C160.808 382.449 158.042 385.571 158.709 388.992L160.672 388.609ZM164.816 383.705C167.703 383.143 170.106 384.671 170.5 386.693L172.463 386.311C171.796 382.89 168.06 381.035 164.434 381.742L164.816 383.705ZM-409.956 233.7C-409.561 235.722 -411.214 238.042 -414.1 238.604L-413.718 240.567C-410.092 239.861 -407.326 236.738 -407.993 233.317L-409.956 233.7ZM-414.1 238.604C-416.987 239.167 -419.39 237.638 -419.784 235.616L-421.747 235.999C-421.08 239.42 -417.344 241.274 -413.718 240.567L-414.1 238.604ZM-419.784 235.616C-420.178 233.594 -418.525 231.274 -415.639 230.712L-416.022 228.749C-419.648 229.456 -422.414 232.578 -421.747 235.999L-419.784 235.616ZM-415.639 230.712C-412.753 230.149 -410.35 231.678 -409.956 233.7L-407.993 233.317C-408.659 229.896 -412.396 228.042 -416.022 228.749L-415.639 230.712ZM-367.308 138.119C-366.913 140.141 -368.566 142.461 -371.452 143.023L-371.07 144.986C-367.444 144.279 -364.678 141.157 -365.345 137.736L-367.308 138.119ZM-371.452 143.023C-374.339 143.586 -376.742 142.057 -377.136 140.035L-379.099 140.418C-378.432 143.839 -374.696 145.693 -371.07 144.986L-371.452 143.023ZM-377.136 140.035C-377.53 138.013 -375.877 135.693 -372.991 135.131L-373.374 133.168C-377 133.874 -379.766 136.997 -379.099 140.418L-377.136 140.035ZM-372.991 135.131C-370.105 134.568 -367.702 136.097 -367.308 138.119L-365.345 137.736C-366.011 134.315 -369.748 132.461 -373.374 133.168L-372.991 135.131ZM607.1 576.784L512.208 595.283L512.59 597.246L607.483 578.747L607.1 576.784ZM513.098 595.55L452.261 536.111L450.863 537.541L511.7 596.98L513.098 595.55ZM452.478 537.226L486.534 459.289L484.702 458.488L450.646 536.426L452.478 537.226ZM485.809 459.87L580.702 441.371L580.319 439.408L485.427 457.907L485.809 459.87ZM579.812 441.104L640.649 500.543L642.046 499.113L581.21 439.674L579.812 441.104ZM640.431 499.428L606.375 577.366L608.208 578.166L642.264 500.228L640.431 499.428ZM514.138 593.701L604.717 576.043L604.334 574.08L513.756 591.738L514.138 593.701ZM605.442 575.462L637.95 501.07L636.117 500.269L603.609 574.661L605.442 575.462ZM637.732 499.954L579.662 443.219L578.264 444.65L636.335 501.384L637.732 499.954ZM578.771 442.953L488.193 460.611L488.576 462.574L579.154 444.916L578.771 442.953ZM487.468 461.192L454.96 535.585L456.793 536.385L489.301 461.993L487.468 461.192ZM455.177 536.7L513.248 593.435L514.646 592.004L456.575 535.27L455.177 536.7ZM202.345 725.158L108.53 743.447L108.913 745.41L202.727 727.121L202.345 725.158ZM109.421 743.713L48.5788 684.269L47.1811 685.7L108.023 745.144L109.421 743.713ZM48.7963 685.385L82.466 608.338L80.6334 607.537L46.9637 684.584L48.7963 685.385ZM81.2964 608.905L84.8398 609.833L85.3464 607.898L81.803 606.97L81.2964 608.905ZM84.1768 608.465L51.2816 683.742L53.1143 684.543L86.0094 609.266L84.1768 608.465ZM51.4991 684.858L109.57 741.595L110.968 740.165L52.8968 683.427L51.4991 684.858ZM110.46 741.862L202.118 723.994L201.735 722.03L110.078 739.899L110.46 741.862ZM200.945 723.203L201.554 726.331L203.517 725.949L202.908 722.821L200.945 723.203ZM355.27 765.02L260.377 783.519L260.759 785.482L355.652 766.983L355.27 765.02ZM261.267 783.785L200.43 724.346L199.032 725.777L259.869 785.216L261.267 783.785ZM200.648 725.462L234.703 647.524L232.871 646.723L198.815 724.661L200.648 725.462ZM233.978 648.105L328.871 629.606L328.489 627.643L233.596 646.142L233.978 648.105ZM327.981 629.34L388.818 688.779L390.216 687.348L329.379 627.91L327.981 629.34ZM388.6 687.663L354.545 765.601L356.377 766.402L390.433 688.464L388.6 687.663ZM262.308 781.94L352.887 764.282L352.504 762.319L261.925 779.977L262.308 781.94ZM353.612 763.701L386.119 689.308L384.287 688.507L351.779 762.9L353.612 763.701ZM385.902 688.193L327.831 631.458L326.434 632.889L384.504 689.623L385.902 688.193ZM326.941 631.192L236.363 648.85L236.745 650.813L327.324 633.155L326.941 631.192ZM235.638 649.431L203.13 723.823L204.962 724.624L237.47 650.232L235.638 649.431ZM203.347 724.939L261.418 781.674L262.815 780.243L204.745 723.508L203.347 724.939ZM412.762 823.123L353.311 765.032L351.914 766.463L411.364 824.553L412.762 823.123ZM353.212 766.548L356.143 764.355L354.945 762.754L352.013 764.947L353.212 766.548ZM354.845 764.27L414.299 822.359L415.697 820.929L356.243 762.839L354.845 764.27ZM414.399 820.843L411.465 823.037L412.662 824.639L415.597 822.445L414.399 820.843ZM508.099 804.199L504.555 803.268L504.047 805.202L507.591 806.133L508.099 804.199ZM505.218 804.635L538.112 729.355L536.28 728.554L503.385 803.834L505.218 804.635ZM537.894 728.239L478.396 670.158L476.999 671.589L536.497 729.67L537.894 728.239ZM478.297 671.674L481.225 669.481L480.026 667.88L477.098 670.073L478.297 671.674ZM479.927 669.396L540.815 728.828L542.212 727.397L481.324 667.965L479.927 669.396ZM540.597 727.712L506.929 804.765L508.762 805.566L542.43 728.513L540.597 727.712ZM481.491 670.842L477.953 669.906L477.442 671.84L480.979 672.775L481.491 670.842ZM478.614 671.274L512.327 594.215L510.494 593.414L476.782 670.472L478.614 671.274ZM511.156 594.782L514.696 595.713L515.205 593.779L511.665 592.848L511.156 594.782ZM514.035 594.345L480.319 671.408L482.151 672.209L515.867 595.147L514.035 594.345ZM539.243 727.952L639.026 708.5L638.644 706.537L538.861 725.989L539.243 727.952ZM637.853 707.71L638.462 710.832L640.425 710.449L639.816 707.327L637.853 707.71ZM639.252 709.659L539.469 729.111L539.852 731.074L639.635 711.622L639.252 709.659ZM540.642 729.901L540.034 726.779L538.071 727.162L538.679 730.284L540.642 729.901ZM2.23669 537.707L60.3967 594.532L61.7944 593.101L3.63438 536.276L2.23669 537.707ZM60.1793 593.416L27.6223 667.926L29.455 668.726L62.0119 594.217L60.1793 593.416ZM28.3473 667.344L-62.3697 685.029L-61.987 686.992L28.73 669.308L28.3473 667.344ZM-61.4795 685.296L-119.636 628.47L-121.034 629.901L-62.8773 686.726L-61.4795 685.296ZM-119.418 629.586L-86.8652 555.077L-88.6979 554.276L-121.251 628.785L-119.418 629.586ZM-87.5902 555.658L3.12688 537.973L2.74419 536.01L-87.9729 553.695L-87.5902 555.658ZM4.42022 532.171L-90.9718 550.768L-90.5891 552.731L4.80291 534.134L4.42022 532.171ZM-91.6968 551.349L-125.93 629.697L-124.097 630.498L-89.8641 552.149L-91.6968 551.349ZM-125.712 630.813L-64.5581 690.56L-63.1604 689.129L-124.315 629.382L-125.712 630.813ZM-63.6679 690.826L31.7241 672.23L31.3414 670.267L-64.0506 688.863L-63.6679 690.826ZM32.4491 671.649L66.6869 593.305L64.8543 592.505L30.6165 670.848L32.4491 671.649ZM66.4694 592.19L5.3104 532.437L3.91274 533.868L65.0718 593.62L66.4694 592.19ZM53.6124 683.683C54.0226 685.788 52.3029 688.19 49.3181 688.772L49.7008 690.735C53.4254 690.009 56.2584 686.804 55.5754 683.301L53.6124 683.683ZM49.3181 688.772C46.3332 689.354 43.8371 687.774 43.4268 685.669L41.4638 686.052C42.1468 689.555 45.9762 691.461 49.7008 690.735L49.3181 688.772ZM43.4268 685.669C43.0166 683.565 44.7364 681.163 47.7212 680.581L47.3386 678.618C43.614 679.344 40.7808 682.548 41.4638 686.052L43.4268 685.669ZM47.7212 680.581C50.7061 679.999 53.2021 681.579 53.6124 683.683L55.5754 683.301C54.8924 679.797 51.0632 677.892 47.3386 678.618L47.7212 680.581ZM87.6177 607.776C88.028 609.88 86.3082 612.282 83.3233 612.864L83.706 614.827C87.4306 614.101 90.2638 610.896 89.5808 607.393L87.6177 607.776ZM83.3233 612.864C80.3385 613.446 77.8424 611.866 77.4322 609.761L75.4691 610.144C76.1521 613.647 79.9814 615.553 83.706 614.827L83.3233 612.864ZM77.4322 609.761C77.0219 607.657 78.7416 605.255 81.7265 604.673L81.3438 602.71C77.6192 603.436 74.7861 606.64 75.4691 610.144L77.4322 609.761ZM81.7265 604.673C84.7114 604.091 87.2075 605.671 87.6177 607.776L89.5808 607.393C88.8978 603.889 85.0684 601.984 81.3438 602.71L81.7265 604.673ZM241.5 647.056C241.91 649.16 240.19 651.562 237.205 652.144L237.588 654.107C241.313 653.381 244.146 650.176 243.463 646.673L241.5 647.056ZM237.205 652.144C234.22 652.726 231.724 651.146 231.314 649.041L229.351 649.424C230.034 652.927 233.863 654.833 237.588 654.107L237.205 652.144ZM231.314 649.041C230.904 646.937 232.624 644.535 235.608 643.953L235.226 641.99C231.501 642.716 228.668 645.92 229.351 649.424L231.314 649.041ZM235.608 643.953C238.593 643.371 241.089 644.951 241.5 647.056L243.463 646.673C242.78 643.169 238.95 641.264 235.226 641.99L235.608 643.953ZM518.238 593.106C518.649 595.211 516.929 597.613 513.944 598.195L514.327 600.158C518.051 599.432 520.884 596.227 520.201 592.724L518.238 593.106ZM513.944 598.195C510.959 598.777 508.463 597.196 508.053 595.092L506.09 595.475C506.773 598.978 510.602 600.884 514.327 600.158L513.944 598.195ZM508.053 595.092C507.642 592.988 509.362 590.586 512.347 590.004L511.964 588.041C508.24 588.767 505.407 591.971 506.09 595.475L508.053 595.092ZM512.347 590.004C515.332 589.422 517.828 591.002 518.238 593.106L520.201 592.724C519.518 589.22 515.689 587.315 511.964 588.041L512.347 590.004ZM418.983 823.583C419.393 825.687 417.673 828.089 414.689 828.671L415.071 830.634C418.796 829.908 421.629 826.704 420.946 823.2L418.983 823.583ZM414.689 828.671C411.704 829.253 409.208 827.673 408.797 825.569L406.834 825.951C407.517 829.455 411.347 831.36 415.071 830.634L414.689 828.671ZM408.797 825.569C408.387 823.464 410.107 821.062 413.092 820.48L412.709 818.517C408.984 819.243 406.151 822.448 406.834 825.951L408.797 825.569ZM413.092 820.48C416.077 819.898 418.573 821.479 418.983 823.583L420.946 823.2C420.263 819.697 416.434 817.791 412.709 818.517L413.092 820.48ZM266.435 781.738C266.846 783.843 265.126 786.245 262.141 786.826L262.524 788.79C266.248 788.063 269.081 784.859 268.398 781.355L266.435 781.738ZM262.141 786.826C259.156 787.408 256.66 785.828 256.25 783.724L254.287 784.106C254.97 787.61 258.799 789.516 262.524 788.79L262.141 786.826ZM256.25 783.724C255.84 781.619 257.559 779.217 260.544 778.635L260.162 776.672C256.437 777.398 253.604 780.603 254.287 784.106L256.25 783.724ZM260.544 778.635C263.529 778.054 266.025 779.634 266.435 781.738L268.398 781.355C267.715 777.852 263.886 775.946 260.162 776.672L260.544 778.635ZM638.158 709.272C638.568 711.377 636.849 713.779 633.864 714.361L634.246 716.324C637.971 715.598 640.804 712.393 640.121 708.89L638.158 709.272ZM633.864 714.361C630.879 714.942 628.383 713.362 627.973 711.258L626.01 711.641C626.693 715.144 630.522 717.05 634.246 716.324L633.864 714.361ZM627.973 711.258C627.562 709.153 629.282 706.751 632.267 706.169L631.884 704.206C628.16 704.933 625.326 708.137 626.01 711.641L627.973 711.258ZM632.267 706.169C635.252 705.588 637.748 707.168 638.158 709.272L640.121 708.89C639.438 705.386 635.609 703.48 631.884 704.206L632.267 706.169ZM544.446 727.541C544.856 729.645 543.136 732.048 540.151 732.629L540.534 734.592C544.259 733.866 547.092 730.662 546.409 727.158L544.446 727.541ZM540.151 732.629C537.167 733.211 534.67 731.631 534.26 729.527L532.297 729.909C532.98 733.413 536.809 735.319 540.534 734.592L540.151 732.629ZM534.26 729.527C533.85 727.422 535.57 725.02 538.555 724.438L538.172 722.475C534.447 723.201 531.614 726.406 532.297 729.909L534.26 729.527ZM538.555 724.438C541.539 723.856 544.036 725.437 544.446 727.541L546.409 727.158C545.726 723.655 541.896 721.749 538.172 722.475L538.555 724.438ZM152.538 429.131L208.9 484.204L210.298 482.774L153.936 427.701L152.538 429.131ZM208.683 483.088L177.133 555.293L178.965 556.094L210.516 483.889L208.683 483.088ZM177.858 554.712L89.9429 571.851L90.3255 573.814L178.24 556.675L177.858 554.712ZM90.833 572.117L34.4682 517.051L33.0706 518.481L89.4354 573.547L90.833 572.117ZM34.6858 518.167L66.2383 445.955L64.4056 445.154L32.8531 517.366L34.6858 518.167ZM65.5133 446.536L153.428 429.398L153.045 427.435L65.1306 444.573L65.5133 446.536ZM154.721 423.592L62.131 441.643L62.5137 443.606L155.104 425.555L154.721 423.592ZM61.406 442.224L28.1773 518.274L30.01 519.075L63.2387 443.024L61.406 442.224ZM28.3949 519.39L87.7551 577.384L89.1527 575.954L29.7925 517.959L28.3949 519.39ZM88.6453 577.65L181.235 559.6L180.853 557.637L88.2626 575.687L88.6453 577.65ZM181.96 559.019L215.19 482.975L213.357 482.174L180.128 558.218L181.96 559.019ZM214.972 481.859L155.611 423.859L154.213 425.289L213.575 483.29L214.972 481.859ZM-204.883 481.813L-148.52 536.886L-147.122 535.456L-203.485 480.383L-204.883 481.813ZM-148.738 535.771L-180.287 607.978L-178.454 608.779L-146.905 536.571L-148.738 535.771ZM-179.562 607.397L-267.477 624.536L-267.094 626.499L-179.179 609.36L-179.562 607.397ZM-266.587 624.802L-322.952 569.733L-324.35 571.164L-267.985 626.233L-266.587 624.802ZM-322.735 570.849L-291.182 498.637L-293.015 497.836L-324.567 570.048L-322.735 570.849ZM-291.907 499.218L-203.992 482.08L-204.375 480.117L-292.29 497.255L-291.907 499.218ZM-202.699 476.278L-295.289 494.328L-294.906 496.291L-202.316 478.241L-202.699 476.278ZM-296.014 494.909L-329.243 570.959L-327.41 571.76L-294.181 495.71L-296.014 494.909ZM-329.025 572.075L-269.664 630.072L-268.267 628.642L-327.627 570.644L-329.025 572.075ZM-268.774 630.339L-176.184 612.289L-176.567 610.326L-269.157 628.376L-268.774 630.339ZM-175.459 611.707L-142.226 535.659L-144.059 534.858L-177.292 610.907L-175.459 611.707ZM-142.444 534.544L-201.809 476.544L-203.206 477.974L-143.841 535.974L-142.444 534.544Z" fill="#38EEF9" fill-opacity="0.3" mask="url(#path-2-inside-1)"/>
<g opacity="0.2">
<path d="M1747.62 953.89L1588.37 715.611C1584.54 709.753 1575.74 704.909 1568.57 704.711L1282.05 691.21C1274.88 691.013 1272.46 695.413 1276.29 701.271L1435.22 938.932C1439.06 944.79 1447.86 949.634 1455.03 949.832L1741.54 963.333C1749.03 964.148 1751.46 959.748 1747.62 953.89Z" fill="#33428F"/>
<path d="M1750.46 958.653L1905.44 700.877C1908.86 694.431 1910.41 684.109 1907.28 677.648L1791.21 405.982C1788.08 399.521 1782.85 398.863 1779.43 405.308L1624.45 663.084C1621.03 669.53 1619.48 679.852 1622.61 686.314L1738.68 957.979C1741.14 964.762 1747.04 965.098 1750.46 958.653Z" fill="#1D4775"/>
<path d="M1713.77 464.703C1716.99 466.047 1717.26 468.732 1714.04 470.341L1686.64 486.171L1663.56 475.421L1670.81 471.128C1671.62 470.592 1671.62 469.518 1670.81 468.98L1656.31 462.53C1656.05 462.261 1655.51 462.53 1655.24 462.53L1646.91 467.359L1628.66 459.028L1659.55 441.32C1659.81 441.052 1660.35 441.052 1660.62 441.321L1713.77 464.703Z" fill="#305A87"/>
<path d="M1692.82 489.129C1693.36 489.398 1693.36 490.203 1692.82 490.74L1678.59 499.057C1678.32 499.326 1678.05 499.326 1677.78 499.057L1670.53 495.563L1686.65 486.173L1692.82 489.129Z" fill="#305A87"/>
<path d="M1686.65 486.167L1670.54 495.557L1647.45 484.808L1663.56 475.417L1686.65 486.167Z" fill="#305A87"/>
<path d="M1670.53 495.574L1637.23 514.623C1635.08 515.965 1631.33 515.963 1628.91 515.156L1611.73 507.631C1610.92 507.362 1610.66 506.02 1611.73 505.483L1647.45 484.824L1670.53 495.574Z" fill="#305A87"/>
<path d="M1663.56 475.427L1647.45 484.818L1630.8 476.756L1646.65 467.634L1663.56 475.427Z" fill="#305A87"/>
<path d="M1646.65 467.63L1630.8 476.752L1612.55 468.421L1628.66 459.03L1646.65 467.63Z" fill="#305A87"/>
<path d="M1640.76 432.464C1641.56 432.733 1641.83 434.075 1640.76 434.612L1611.75 451.246L1597.53 444.527L1624.11 429.235C1626.26 427.893 1630.02 427.626 1632.44 428.701L1640.76 432.464Z" fill="#305A87"/>
<path d="M1630.81 476.745L1592.94 498.745C1592.67 499.014 1592.13 499.013 1591.86 498.745L1547.57 479.394C1544.35 478.05 1544.08 475.365 1547.3 473.487L1581.68 453.633L1595.91 460.352L1581.94 468.4C1581.14 468.937 1581.14 470.011 1581.94 470.548L1596.44 476.999C1596.71 477.267 1597.24 476.999 1597.51 476.999L1612.55 468.414L1630.81 476.745Z" fill="#305A87"/>
<path d="M1628.66 459.033L1612.55 468.423L1595.9 460.63L1611.75 451.239L1628.66 459.033Z" fill="#305A87"/>
<path d="M1611.75 451.238L1595.9 460.629L1581.67 453.91L1597.79 444.788L1611.75 451.238Z" fill="#305A87"/>
<path d="M1589.74 441.024L1597.52 444.786L1581.68 453.908L1575.5 450.952C1574.97 450.683 1574.97 449.878 1575.5 449.341L1588.93 441.024C1589.2 441.024 1589.47 441.024 1589.74 441.024Z" fill="#305A87"/>
<path d="M1558.79 532.32C1563.65 531.69 1565.86 534.765 1563.08 538.984L1540.91 577.454L1505.31 580.608L1511.11 570.3C1511.71 569.082 1510.96 567.777 1509.6 567.69L1487.46 570.034C1486.95 569.897 1486.48 570.6 1486.16 570.788L1479.43 582.503L1451.4 585.201L1476.49 541.997C1476.63 541.482 1477.28 541.105 1477.79 541.243L1558.79 532.32Z" fill="#305A87"/>
<path d="M1550.48 576.713C1551.32 576.662 1551.89 577.641 1551.61 578.671L1540.16 598.772C1540.02 599.287 1539.7 599.475 1539.18 599.338L1527.92 600.184L1540.9 577.458L1550.48 576.713Z" fill="#305A87"/>
<path d="M1540.9 577.447L1527.92 600.172L1492.32 603.326L1505.3 580.6L1540.9 577.447Z" fill="#305A87"/>
<path d="M1527.93 600.19L1500.85 646.722C1499.18 649.86 1494.61 652.498 1491.11 653.215L1464.95 656.139C1463.78 656.378 1462.52 654.935 1463.44 653.529L1492.33 603.344L1527.93 600.19Z" fill="#305A87"/>
<path d="M1505.31 580.618L1492.33 603.344L1466.45 605.238L1479.29 583.027L1505.31 580.618Z" fill="#305A87"/>
<path d="M1479.3 583.026L1466.45 605.237L1438.42 607.935L1451.41 585.21L1479.3 583.026Z" fill="#305A87"/>
<path d="M1447.42 544.424C1448.59 544.185 1449.86 545.628 1448.93 547.035L1425.38 587.615L1403.37 589.445L1424.93 552.192C1426.6 549.053 1430.98 546.089 1434.67 545.698L1447.42 544.424Z" fill="#305A87"/>
<path d="M1466.44 605.215L1435.88 658.539C1435.74 659.053 1435.09 659.43 1434.58 659.292L1367.17 666.891C1362.32 667.521 1360.11 664.447 1362.7 659.902L1390.52 611.637L1412.53 609.808L1401.21 629.395C1400.61 630.612 1401.36 631.917 1402.72 632.005L1424.86 629.66C1425.38 629.798 1425.84 629.095 1426.17 628.907L1438.41 607.913L1466.44 605.215Z" fill="#305A87"/>
<path d="M1451.4 585.214L1438.42 607.94L1412.72 610.16L1425.38 587.623L1451.4 585.214Z" fill="#305A87"/>
<path d="M1425.38 587.617L1412.73 610.154L1390.72 611.984L1403.89 589.585L1425.38 587.617Z" fill="#305A87"/>
<path d="M1391.45 590.662L1403.55 589.766L1390.71 611.977L1381.13 612.721C1380.29 612.772 1379.73 611.793 1380 610.764L1390.47 591.227C1390.8 591.039 1391.13 590.851 1391.45 590.662Z" fill="#305A87"/>
<path d="M1435.01 494.605C1437.41 497.134 1436.58 499.699 1432.98 499.873L1401.53 503.32L1384.73 484.178L1393.1 483.171C1394.05 483.005 1394.49 482.022 1393.97 481.206L1383.3 469.46C1383.16 469.106 1382.56 469.135 1382.32 469.027L1372.75 470.092L1359.4 455.11L1394.8 451.352C1395.16 451.214 1395.65 451.431 1395.79 451.785L1435.01 494.605Z" fill="#305A87"/>
<path d="M1405.98 508.513C1406.37 508.975 1406.04 509.712 1405.33 509.987L1388.96 511.862C1388.6 512 1388.36 511.891 1388.22 511.537L1382.99 505.419L1401.52 503.319L1405.98 508.513Z" fill="#305A87"/>
<path d="M1401.53 503.315L1383 505.415L1366.21 486.273L1384.74 484.173L1401.53 503.315Z" fill="#305A87"/>
<path d="M1383 505.434L1344.84 509.446C1342.33 509.808 1338.9 508.291 1337.01 506.579L1324.32 492.768C1323.69 492.197 1323.99 490.861 1325.19 490.803L1366.2 486.291L1383 505.434Z" fill="#305A87"/>
<path d="M1384.73 484.185L1366.2 486.285L1354.22 472.199L1372.4 470.236L1384.73 484.185Z" fill="#305A87"/>
<path d="M1372.4 470.231L1354.22 472.194L1340.87 457.212L1359.4 455.112L1372.4 470.231Z" fill="#305A87"/>
<path d="M1381.18 435.662C1381.81 436.233 1381.51 437.57 1380.31 437.628L1347.06 441.162L1336.75 429.279L1367.24 425.999C1369.75 425.637 1373.3 426.908 1375.08 428.865L1381.18 435.662Z" fill="#305A87"/>
<path d="M1354.22 472.177L1310.7 477.05C1310.34 477.187 1309.85 476.97 1309.72 476.616L1276.98 441.055C1274.57 438.527 1275.41 435.962 1279.11 435.542L1318.58 431.226L1328.89 443.109L1312.87 444.847C1311.91 445.013 1311.48 445.996 1312 446.812L1322.67 458.558C1322.8 458.912 1323.4 458.883 1323.65 458.991L1340.87 457.195L1354.22 472.177Z" fill="#305A87"/>
<path d="M1359.4 455.107L1340.87 457.207L1328.78 443.366L1347.06 441.158L1359.4 455.107Z" fill="#305A87"/>
<path d="M1347.07 441.168L1328.78 443.376L1318.47 431.494L1336.89 429.64L1347.07 441.168Z" fill="#305A87"/>
<path d="M1331.03 422.938L1336.64 429.519L1318.47 431.481L1314.01 426.288C1313.62 425.825 1313.95 425.088 1314.66 424.814L1330.3 422.613C1330.54 422.722 1330.79 422.83 1331.03 422.938Z" fill="#305A87"/>
<path d="M1558.18 279.363C1560.87 277.14 1563.37 278.156 1563.29 281.757L1564.52 313.372L1544.24 328.779L1543.82 320.362C1543.73 319.399 1542.78 318.898 1541.93 319.36L1529.46 329.174C1529.1 329.286 1529.08 329.886 1528.96 330.123L1529.35 339.74L1513.46 352.001L1512.2 316.422C1512.09 316.06 1512.34 315.585 1512.71 315.473L1558.18 279.363Z" fill="#4D6BB7" fill-opacity="0.6"/>
<path d="M1570 309.288C1570.49 308.938 1571.2 309.314 1571.43 310.04L1572.15 326.51C1572.26 326.873 1572.13 327.11 1571.77 327.222L1565.3 332.004L1564.51 313.37L1570 309.288Z" fill="#4D6BB7" fill-opacity="0.6"/>
<path d="M1564.51 313.372L1565.3 332.005L1545.02 347.412L1544.23 328.779L1564.51 313.372Z" fill="#4D6BB7" fill-opacity="0.6"/>
<path d="M1565.31 332.011L1566.63 370.354C1566.81 372.88 1565.06 376.204 1563.22 377.965L1548.55 389.652C1547.94 390.239 1546.62 389.85 1546.65 388.65L1545.04 347.418L1565.31 332.011Z" fill="#4D6BB7" fill-opacity="0.6"/>
<path d="M1544.24 328.786L1545.03 347.419L1530.14 358.381L1529.46 340.11L1544.24 328.786Z" fill="#4D6BB7" fill-opacity="0.6"/>
<path d="M1529.47 340.111L1530.14 358.382L1514.26 370.643L1513.47 352.009L1529.47 340.111Z" fill="#4D6BB7" fill-opacity="0.6"/>
<path d="M1495.6 328.915C1496.21 328.328 1497.52 328.718 1497.5 329.918L1498.68 363.333L1486.1 372.784L1484.98 342.133C1484.79 339.607 1486.31 336.157 1488.39 334.521L1495.6 328.915Z" fill="#4D6BB7" fill-opacity="0.6"/>
<path d="M1530.13 358.376L1531.93 402.134C1532.04 402.497 1531.79 402.972 1531.43 403.084L1493.65 433.238C1490.96 435.461 1488.46 434.445 1488.3 430.718L1486.77 391.05L1499.35 381.599L1499.96 397.706C1500.06 398.669 1501.01 399.17 1501.86 398.709L1514.32 388.895C1514.69 388.783 1514.7 388.182 1514.82 387.945L1514.25 370.637L1530.13 358.376Z" fill="#4D6BB7" fill-opacity="0.6"/>
<path d="M1513.47 352.012L1514.26 370.646L1499.6 381.733L1498.69 363.336L1513.47 352.012Z" fill="#4D6BB7" fill-opacity="0.6"/>
<path d="M1498.68 363.324L1499.59 381.72L1487.01 391.172L1486.46 372.663L1498.68 363.324Z" fill="#4D6BB7" fill-opacity="0.6"/>
<path d="M1479.37 378.034L1486.33 372.903L1487.01 391.173L1481.51 395.256C1481.03 395.606 1480.31 395.23 1480.09 394.504L1479 378.746C1479.12 378.509 1479.25 378.271 1479.37 378.034Z" fill="#4D6BB7" fill-opacity="0.6"/>
<path d="M1395.17 341.308C1396.86 342.651 1396.57 344.296 1394.38 344.713L1375.39 349.533L1363.44 339.239L1368.48 337.902C1369.05 337.718 1369.23 337.078 1368.85 336.622L1361.29 330.337C1361.18 330.132 1360.81 330.201 1360.65 330.156L1354.88 331.632L1345.4 323.593L1366.79 318.242C1367 318.127 1367.32 318.218 1367.43 318.423L1395.17 341.308Z" fill="#305A87"/>
<path d="M1378.55 352.319C1378.83 352.57 1378.69 353.05 1378.28 353.279L1368.4 355.838C1368.19 355.953 1368.03 355.908 1367.92 355.703L1364.19 352.4L1375.37 349.518L1378.55 352.319Z" fill="#305A87"/>
<path d="M1375.38 349.532L1364.2 352.415L1352.25 342.121L1363.43 339.239L1375.38 349.532Z" fill="#305A87"/>
<path d="M1364.2 352.415L1341.14 358.158C1339.64 358.596 1337.4 357.962 1336.09 357.074L1327.12 349.696C1326.69 349.401 1326.75 348.555 1327.49 348.417L1352.25 342.121L1364.2 352.415Z" fill="#305A87"/>
<path d="M1363.43 339.242L1352.25 342.125L1343.69 334.517L1354.66 331.75L1363.43 339.242Z" fill="#305A87"/>
<path d="M1354.66 331.742L1343.69 334.509L1334.21 326.47L1345.4 323.588L1354.66 331.742Z" fill="#305A87"/>
<path d="M1357.07 309.777C1357.5 310.073 1357.44 310.918 1356.71 311.057L1336.62 316.085L1329.27 309.685L1347.69 305.05C1349.2 304.612 1351.49 305.086 1352.74 306.134L1357.07 309.777Z" fill="#305A87"/>
<path d="M1343.69 334.503L1317.42 341.236C1317.21 341.351 1316.89 341.261 1316.78 341.055L1293.64 322.065C1291.95 320.721 1292.24 319.076 1294.48 318.5L1318.31 312.458L1325.65 318.857L1315.97 321.302C1315.4 321.486 1315.22 322.126 1315.61 322.582L1323.16 328.867C1323.28 329.072 1323.64 329.003 1323.8 329.048L1334.21 326.464L1343.69 334.503Z" fill="#305A87"/>
<path d="M1345.4 323.586L1334.21 326.468L1325.61 319.021L1336.63 316.094L1345.4 323.586Z" fill="#305A87"/>
<path d="M1336.63 316.083L1325.61 319.011L1318.26 312.611L1329.4 309.889L1336.63 316.083Z" fill="#305A87"/>
<path d="M1325.24 306.31L1329.25 309.863L1318.27 312.63L1315.09 309.829C1314.81 309.579 1314.95 309.099 1315.36 308.869L1324.76 306.174C1324.92 306.219 1325.08 306.265 1325.24 306.31Z" fill="#305A87"/>
</g>
</g>
<defs>
<linearGradient id="paint0_linear" x1="-246.5" y1="790" x2="672.033" y2="138.546" gradientUnits="userSpaceOnUse">
<stop offset="0.171875" stop-color="#121D82"/>
<stop offset="0.890625" stop-color="white" stop-opacity="0.49"/>
</linearGradient>
<linearGradient id="paint1_linear" x1="-246.5" y1="790" x2="672.033" y2="138.546" gradientUnits="userSpaceOnUse">
<stop offset="0.171875" stop-color="#121D82"/>
<stop offset="0.890625" stop-color="white" stop-opacity="0.49"/>
</linearGradient>
<linearGradient id="paint2_linear" x1="-246.5" y1="790" x2="672.033" y2="138.546" gradientUnits="userSpaceOnUse">
<stop offset="0.171875" stop-color="#121D82"/>
<stop offset="0.890625" stop-color="white" stop-opacity="0.49"/>
</linearGradient>
<linearGradient id="paint3_linear" x1="-246.5" y1="790" x2="672.033" y2="138.546" gradientUnits="userSpaceOnUse">
<stop offset="0.171875" stop-color="#121D82"/>
<stop offset="0.890625" stop-color="white" stop-opacity="0.49"/>
</linearGradient>
<linearGradient id="paint4_linear" x1="-246.5" y1="790" x2="672.033" y2="138.546" gradientUnits="userSpaceOnUse">
<stop offset="0.171875" stop-color="#121D82"/>
<stop offset="0.890625" stop-color="white" stop-opacity="0.49"/>
</linearGradient>
<linearGradient id="paint5_linear" x1="-246.5" y1="790" x2="672.033" y2="138.546" gradientUnits="userSpaceOnUse">
<stop offset="0.171875" stop-color="#121D82"/>
<stop offset="0.890625" stop-color="white" stop-opacity="0.49"/>
</linearGradient>
<linearGradient id="paint6_linear" x1="-246.5" y1="790" x2="672.033" y2="138.546" gradientUnits="userSpaceOnUse">
<stop offset="0.171875" stop-color="#121D82"/>
<stop offset="0.890625" stop-color="white" stop-opacity="0.49"/>
</linearGradient>
<linearGradient id="paint7_linear" x1="-246.5" y1="790" x2="672.033" y2="138.546" gradientUnits="userSpaceOnUse">
<stop offset="0.171875" stop-color="#121D82"/>
<stop offset="0.890625" stop-color="white" stop-opacity="0.49"/>
</linearGradient>
<linearGradient id="paint8_linear" x1="-246.5" y1="790" x2="672.033" y2="138.546" gradientUnits="userSpaceOnUse">
<stop offset="0.171875" stop-color="#121D82"/>
<stop offset="0.890625" stop-color="white" stop-opacity="0.49"/>
</linearGradient>
<linearGradient id="paint9_linear" x1="-246.5" y1="790" x2="672.033" y2="138.546" gradientUnits="userSpaceOnUse">
<stop offset="0.171875" stop-color="#121D82"/>
<stop offset="0.890625" stop-color="white" stop-opacity="0.49"/>
</linearGradient>
<linearGradient id="paint10_linear" x1="-246.5" y1="790" x2="672.033" y2="138.546" gradientUnits="userSpaceOnUse">
<stop offset="0.171875" stop-color="#121D82"/>
<stop offset="0.890625" stop-color="white" stop-opacity="0.49"/>
</linearGradient>
<linearGradient id="paint11_linear" x1="-246.5" y1="790" x2="672.033" y2="138.546" gradientUnits="userSpaceOnUse">
<stop offset="0.171875" stop-color="#121D82"/>
<stop offset="0.890625" stop-color="white" stop-opacity="0.49"/>
</linearGradient>
<linearGradient id="paint12_linear" x1="-246.5" y1="790" x2="672.033" y2="138.546" gradientUnits="userSpaceOnUse">
<stop offset="0.171875" stop-color="#121D82"/>
<stop offset="0.890625" stop-color="white" stop-opacity="0.49"/>
</linearGradient>
<linearGradient id="paint13_linear" x1="-246.5" y1="790" x2="672.033" y2="138.546" gradientUnits="userSpaceOnUse">
<stop offset="0.171875" stop-color="#121D82"/>
<stop offset="0.890625" stop-color="white" stop-opacity="0.49"/>
</linearGradient>
<linearGradient id="paint14_linear" x1="-246.5" y1="790" x2="672.033" y2="138.546" gradientUnits="userSpaceOnUse">
<stop offset="0.171875" stop-color="#121D82"/>
<stop offset="0.890625" stop-color="white" stop-opacity="0.49"/>
</linearGradient>
<linearGradient id="paint15_linear" x1="-246.5" y1="790" x2="672.033" y2="138.546" gradientUnits="userSpaceOnUse">
<stop offset="0.171875" stop-color="#121D82"/>
<stop offset="0.890625" stop-color="white" stop-opacity="0.49"/>
</linearGradient>
<linearGradient id="paint16_linear" x1="-246.5" y1="790" x2="672.033" y2="138.546" gradientUnits="userSpaceOnUse">
<stop offset="0.171875" stop-color="#121D82"/>
<stop offset="0.890625" stop-color="white" stop-opacity="0.49"/>
</linearGradient>
<linearGradient id="paint17_linear" x1="-246.5" y1="790" x2="672.033" y2="138.546" gradientUnits="userSpaceOnUse">
<stop offset="0.171875" stop-color="#121D82"/>
<stop offset="0.890625" stop-color="white" stop-opacity="0.49"/>
</linearGradient>
<linearGradient id="paint18_linear" x1="-246.5" y1="790" x2="672.033" y2="138.546" gradientUnits="userSpaceOnUse">
<stop offset="0.171875" stop-color="#121D82"/>
<stop offset="0.890625" stop-color="white" stop-opacity="0.49"/>
</linearGradient>
<linearGradient id="paint19_linear" x1="-246.5" y1="790" x2="672.033" y2="138.546" gradientUnits="userSpaceOnUse">
<stop offset="0.171875" stop-color="#121D82"/>
<stop offset="0.890625" stop-color="white" stop-opacity="0.49"/>
</linearGradient>
<linearGradient id="paint20_linear" x1="-246.5" y1="790" x2="672.033" y2="138.546" gradientUnits="userSpaceOnUse">
<stop offset="0.171875" stop-color="#121D82"/>
<stop offset="0.890625" stop-color="white" stop-opacity="0.49"/>
</linearGradient>
<linearGradient id="paint21_linear" x1="-246.5" y1="790" x2="672.033" y2="138.546" gradientUnits="userSpaceOnUse">
<stop offset="0.171875" stop-color="#121D82"/>
<stop offset="0.890625" stop-color="white" stop-opacity="0.49"/>
</linearGradient>
<linearGradient id="paint22_linear" x1="-246.5" y1="790" x2="672.033" y2="138.546" gradientUnits="userSpaceOnUse">
<stop offset="0.171875" stop-color="#121D82"/>
<stop offset="0.890625" stop-color="white" stop-opacity="0.49"/>
</linearGradient>
<linearGradient id="paint23_linear" x1="-246.5" y1="790" x2="672.033" y2="138.546" gradientUnits="userSpaceOnUse">
<stop offset="0.171875" stop-color="#121D82"/>
<stop offset="0.890625" stop-color="white" stop-opacity="0.49"/>
</linearGradient>
<linearGradient id="paint24_linear" x1="-246.5" y1="790" x2="672.033" y2="138.546" gradientUnits="userSpaceOnUse">
<stop offset="0.171875" stop-color="#121D82"/>
<stop offset="0.890625" stop-color="white" stop-opacity="0.49"/>
</linearGradient>
<linearGradient id="paint25_linear" x1="-246.5" y1="790" x2="672.033" y2="138.546" gradientUnits="userSpaceOnUse">
<stop offset="0.171875" stop-color="#121D82"/>
<stop offset="0.890625" stop-color="white" stop-opacity="0.49"/>
</linearGradient>
<linearGradient id="paint26_linear" x1="-246.5" y1="790" x2="672.033" y2="138.546" gradientUnits="userSpaceOnUse">
<stop offset="0.171875" stop-color="#121D82"/>
<stop offset="0.890625" stop-color="white" stop-opacity="0.49"/>
</linearGradient>
<linearGradient id="paint27_linear" x1="-246.5" y1="790" x2="672.033" y2="138.546" gradientUnits="userSpaceOnUse">
<stop offset="0.171875" stop-color="#121D82"/>
<stop offset="0.890625" stop-color="white" stop-opacity="0.49"/>
</linearGradient>
<linearGradient id="paint28_linear" x1="-246.5" y1="790" x2="672.033" y2="138.546" gradientUnits="userSpaceOnUse">
<stop offset="0.171875" stop-color="#121D82"/>
<stop offset="0.890625" stop-color="white" stop-opacity="0.49"/>
</linearGradient>
<linearGradient id="paint29_linear" x1="-246.5" y1="790" x2="672.033" y2="138.546" gradientUnits="userSpaceOnUse">
<stop offset="0.171875" stop-color="#121D82"/>
<stop offset="0.890625" stop-color="white" stop-opacity="0.49"/>
</linearGradient>
<linearGradient id="paint30_linear" x1="-246.5" y1="790" x2="672.033" y2="138.546" gradientUnits="userSpaceOnUse">
<stop offset="0.171875" stop-color="#121D82"/>
<stop offset="0.890625" stop-color="white" stop-opacity="0.49"/>
</linearGradient>
<linearGradient id="paint31_linear" x1="-246.5" y1="790" x2="672.033" y2="138.546" gradientUnits="userSpaceOnUse">
<stop offset="0.171875" stop-color="#121D82"/>
<stop offset="0.890625" stop-color="white" stop-opacity="0.49"/>
</linearGradient>
<linearGradient id="paint32_linear" x1="-246.5" y1="790" x2="672.033" y2="138.546" gradientUnits="userSpaceOnUse">
<stop offset="0.171875" stop-color="#121D82"/>
<stop offset="0.890625" stop-color="white" stop-opacity="0.49"/>
</linearGradient>
<linearGradient id="paint33_linear" x1="-246.5" y1="790" x2="672.033" y2="138.546" gradientUnits="userSpaceOnUse">
<stop offset="0.171875" stop-color="#121D82"/>
<stop offset="0.890625" stop-color="white" stop-opacity="0.49"/>
</linearGradient>
<linearGradient id="paint34_linear" x1="-246.5" y1="790" x2="672.033" y2="138.546" gradientUnits="userSpaceOnUse">
<stop offset="0.171875" stop-color="#121D82"/>
<stop offset="0.890625" stop-color="white" stop-opacity="0.49"/>
</linearGradient>
<linearGradient id="paint35_linear" x1="-246.5" y1="790" x2="672.033" y2="138.546" gradientUnits="userSpaceOnUse">
<stop offset="0.171875" stop-color="#121D82"/>
<stop offset="0.890625" stop-color="white" stop-opacity="0.49"/>
</linearGradient>
<linearGradient id="paint36_linear" x1="-246.5" y1="790" x2="672.033" y2="138.546" gradientUnits="userSpaceOnUse">
<stop offset="0.171875" stop-color="#121D82"/>
<stop offset="0.890625" stop-color="white" stop-opacity="0.49"/>
</linearGradient>
<linearGradient id="paint37_linear" x1="-246.5" y1="790" x2="672.033" y2="138.546" gradientUnits="userSpaceOnUse">
<stop offset="0.171875" stop-color="#121D82"/>
<stop offset="0.890625" stop-color="white" stop-opacity="0.49"/>
</linearGradient>
<linearGradient id="paint38_linear" x1="-246.5" y1="790" x2="672.033" y2="138.546" gradientUnits="userSpaceOnUse">
<stop offset="0.171875" stop-color="#121D82"/>
<stop offset="0.890625" stop-color="white" stop-opacity="0.49"/>
</linearGradient>
<linearGradient id="paint39_linear" x1="-246.5" y1="790" x2="672.033" y2="138.546" gradientUnits="userSpaceOnUse">
<stop offset="0.171875" stop-color="#121D82"/>
<stop offset="0.890625" stop-color="white" stop-opacity="0.49"/>
</linearGradient>
<linearGradient id="paint40_linear" x1="-246.5" y1="790" x2="672.033" y2="138.546" gradientUnits="userSpaceOnUse">
<stop offset="0.171875" stop-color="#121D82"/>
<stop offset="0.890625" stop-color="white" stop-opacity="0.49"/>
</linearGradient>
<linearGradient id="paint41_linear" x1="-246.5" y1="790" x2="672.033" y2="138.546" gradientUnits="userSpaceOnUse">
<stop offset="0.171875" stop-color="#121D82"/>
<stop offset="0.890625" stop-color="white" stop-opacity="0.49"/>
</linearGradient>
<linearGradient id="paint42_linear" x1="-246.5" y1="790" x2="672.033" y2="138.546" gradientUnits="userSpaceOnUse">
<stop offset="0.171875" stop-color="#121D82"/>
<stop offset="0.890625" stop-color="white" stop-opacity="0.49"/>
</linearGradient>
<linearGradient id="paint43_linear" x1="-246.5" y1="790" x2="672.033" y2="138.546" gradientUnits="userSpaceOnUse">
<stop offset="0.171875" stop-color="#121D82"/>
<stop offset="0.890625" stop-color="white" stop-opacity="0.49"/>
</linearGradient>
<linearGradient id="paint44_linear" x1="-246.5" y1="790" x2="672.033" y2="138.546" gradientUnits="userSpaceOnUse">
<stop offset="0.171875" stop-color="#121D82"/>
<stop offset="0.890625" stop-color="white" stop-opacity="0.49"/>
</linearGradient>
<linearGradient id="paint45_linear" x1="-246.5" y1="790" x2="672.033" y2="138.546" gradientUnits="userSpaceOnUse">
<stop offset="0.171875" stop-color="#121D82"/>
<stop offset="0.890625" stop-color="white" stop-opacity="0.49"/>
</linearGradient>
<linearGradient id="paint46_linear" x1="-246.5" y1="790" x2="672.033" y2="138.546" gradientUnits="userSpaceOnUse">
<stop offset="0.171875" stop-color="#121D82"/>
<stop offset="0.890625" stop-color="white" stop-opacity="0.49"/>
</linearGradient>
<linearGradient id="paint47_linear" x1="-246.5" y1="790" x2="672.033" y2="138.546" gradientUnits="userSpaceOnUse">
<stop offset="0.171875" stop-color="#121D82"/>
<stop offset="0.890625" stop-color="white" stop-opacity="0.49"/>
</linearGradient>
</defs>
</svg>
