<svg width="1920" height="928" viewBox="0 0 1920 928" fill="none" xmlns="http://www.w3.org/2000/svg">
<mask id="mask0" mask-type="alpha" maskUnits="userSpaceOnUse" x="0" y="0" width="1920" height="928">
<rect width="1920" height="928" fill="#C4C4C4"/>
</mask>
<g mask="url(#mask0)">
<mask id="path-2-inside-1" fill="white">
<path d="M-120.8 209.117L-239.92 232.339L-316.965 157.066L-274.213 59.2268L-270.776 60.1312L-312.775 156.25L-238.417 228.894L-121.392 206.081L-120.8 209.117Z"/>
<path d="M-52.7294 549.929L-56.1667 549.022L-13.787 452.045L-10.3545 452.947L-52.7294 549.929Z"/>
<path d="M73.5901 259.937L-46.5801 283.363L-123.625 208.09L-80.495 109.393L39.6753 85.9664L116.716 161.237L73.5901 259.937ZM-45.0793 279.925L70.9004 257.315L112.526 162.057L38.1683 89.4121L-77.8114 112.022L-119.434 207.277L-45.0793 279.925Z"/>
<path d="M106.914 430.876L-13.256 454.303L-89.6274 379.689L-86.7821 377.56L-11.7558 450.862L104.224 428.252L145.849 332.994L70.8229 259.692L73.6676 257.56L150.04 332.177L106.914 430.876Z"/>
<path d="M-86.4267 379.849L-206.597 403.276L-283.641 328.003L-240.512 229.303L-121.392 206.081L-120.8 209.117L-237.825 231.931L-279.451 327.186L-205.093 399.834L-89.1133 377.224L-47.1111 281.105L-43.6774 282.014L-86.4267 379.849Z"/>
<path d="M267.491 310.071L264.054 309.166L306.052 213.045L231.694 140.4L114.669 163.214L114.077 160.177L233.201 136.954L310.242 212.228L267.491 310.071Z"/>
<path d="M234.167 139.131L230.729 138.223L273.106 41.2504L276.542 42.1517L234.167 139.131Z"/>
<path d="M509.626 171.788L307.852 211.123L308.443 214.153L510.217 174.818L509.626 171.788Z"/>
<path d="M-281.841 326.081L-564.621 381.208L-564.031 384.238L-281.251 329.112L-281.841 326.081Z"/>
<path d="M-86.8111 383.465C-83.555 382.83 -81.3455 380.109 -81.876 377.388C-82.4066 374.666 -85.4763 372.975 -88.7324 373.609C-91.9886 374.244 -94.198 376.965 -93.6675 379.687C-93.1369 382.408 -90.0672 384.1 -86.8111 383.465Z"/>
<path d="M-204.886 406.483C-201.63 405.849 -199.42 403.128 -199.951 400.406C-200.482 397.685 -203.551 395.993 -206.807 396.628C-210.064 397.262 -212.273 399.983 -211.742 402.705C-211.212 405.426 -208.142 407.118 -204.886 406.483Z"/>
<path d="M-53.4876 554.402C-50.2315 553.767 -48.022 551.046 -48.5526 548.325C-49.0831 545.603 -52.1528 543.911 -55.4089 544.546C-58.6651 545.181 -60.8746 547.902 -60.344 550.623C-59.8134 553.345 -56.7437 555.037 -53.4876 554.402Z"/>
<path d="M-44.4357 286.486C-41.1795 285.851 -38.9701 283.13 -39.5006 280.409C-40.0312 277.687 -43.1009 275.996 -46.357 276.63C-49.6131 277.265 -51.8226 279.986 -51.2921 282.708C-50.7615 285.429 -47.6918 287.121 -44.4357 286.486Z"/>
<path d="M-11.1116 457.426C-7.85546 456.791 -5.64597 454.07 -6.17654 451.349C-6.7071 448.627 -9.77678 446.935 -13.0329 447.57C-16.289 448.205 -18.4986 450.926 -17.968 453.647C-17.4374 456.369 -14.3677 458.061 -11.1116 457.426Z"/>
<path d="M74.164 263.366C77.4201 262.731 79.6296 260.01 79.099 257.288C78.5685 254.567 75.4987 252.875 72.2426 253.51C68.9865 254.145 66.7771 256.865 67.3077 259.587C67.8382 262.309 70.9078 264 74.164 263.366Z"/>
<path d="M40.8405 92.4288C44.0966 91.794 46.3061 89.0732 45.7756 86.3516C45.245 83.63 42.1753 81.9383 38.9192 82.5731C35.663 83.2079 33.4536 85.9287 33.9842 88.6503C34.5147 91.3719 37.5844 93.0636 40.8405 92.4288Z"/>
<path d="M-78.1928 115.634C-74.9367 114.999 -72.7271 112.278 -73.2577 109.557C-73.7883 106.835 -76.858 105.143 -80.1141 105.778C-83.3703 106.413 -85.5798 109.134 -85.0492 111.855C-84.5186 114.577 -81.449 116.269 -78.1928 115.634Z"/>
<path d="M309.108 217.564C312.364 216.929 314.573 214.208 314.043 211.487C313.512 208.765 310.443 207.074 307.187 207.708C303.93 208.343 301.721 211.064 302.251 213.786C302.782 216.507 305.852 218.199 309.108 217.564Z"/>
<path d="M510.882 178.229C514.138 177.594 516.347 174.873 515.817 172.152C515.286 169.43 512.216 167.739 508.96 168.373C505.704 169.008 503.495 171.729 504.025 174.451C504.556 177.172 507.626 178.864 510.882 178.229Z"/>
<path d="M-280.586 332.523C-277.329 331.888 -275.12 329.167 -275.651 326.445C-276.181 323.724 -279.251 322.032 -282.507 322.667C-285.763 323.302 -287.973 326.023 -287.442 328.744C-286.911 331.466 -283.842 333.157 -280.586 332.523Z"/>
<path d="M-120.135 212.528C-116.878 211.894 -114.669 209.173 -115.2 206.451C-115.73 203.73 -118.8 202.038 -122.056 202.673C-125.312 203.307 -127.521 206.028 -126.991 208.75C-126.46 211.471 -123.391 213.163 -120.135 212.528Z"/>
<path d="M-238.21 235.547C-234.953 234.912 -232.744 232.191 -233.275 229.469C-233.805 226.748 -236.875 225.056 -240.131 225.691C-243.387 226.326 -245.597 229.047 -245.066 231.768C-244.535 234.49 -241.466 236.181 -238.21 235.547Z"/>
<path d="M233.223 143.643C236.479 143.008 238.689 140.287 238.158 137.565C237.628 134.844 234.558 133.152 231.302 133.787C228.046 134.422 225.836 137.143 226.367 139.864C226.897 142.586 229.967 144.277 233.223 143.643Z"/>
<path d="M275.784 46.6274C279.04 45.9926 281.25 43.2718 280.719 40.5502C280.189 37.8286 277.119 36.1369 273.863 36.7717C270.607 37.4064 268.397 40.1273 268.928 42.8489C269.458 45.5705 272.528 47.2621 275.784 46.6274Z"/>
<path d="M115.148 166.661C118.404 166.026 120.614 163.305 120.083 160.584C119.553 157.862 116.483 156.17 113.227 156.805C109.971 157.44 107.761 160.161 108.292 162.882C108.822 165.604 111.892 167.296 115.148 166.661Z"/>
<path d="M107.488 434.305C110.744 433.671 112.954 430.95 112.423 428.228C111.893 425.507 108.823 423.815 105.567 424.45C102.311 425.084 100.101 427.805 100.632 430.527C101.162 433.248 104.232 434.94 107.488 434.305Z"/>
<path d="M148.472 337.598C151.728 336.963 153.937 334.242 153.407 331.52C152.876 328.799 149.806 327.107 146.55 327.742C143.294 328.377 141.085 331.098 141.615 333.819C142.146 336.541 145.215 338.232 148.472 337.598Z"/>
<path d="M266.546 314.579C269.803 313.945 272.012 311.224 271.482 308.502C270.951 305.781 267.881 304.089 264.625 304.724C261.369 305.358 259.16 308.079 259.69 310.801C260.221 313.522 263.29 315.214 266.546 314.579Z"/>
<path d="M-313.909 161.586C-310.653 160.951 -308.443 158.23 -308.974 155.509C-309.505 152.787 -312.574 151.095 -315.83 151.73C-319.087 152.365 -321.296 155.086 -320.765 157.807C-320.235 160.529 -317.165 162.221 -313.909 161.586Z"/>
<path d="M-271.261 66.0048C-268.005 65.37 -265.796 62.6492 -266.326 59.9276C-266.857 57.206 -269.926 55.5143 -273.182 56.1491C-276.439 56.7839 -278.648 59.5047 -278.117 62.2263C-277.587 64.9479 -274.517 66.6396 -271.261 66.0048Z"/>
<path d="M707.292 499.766L612.399 518.265L551.562 458.826L585.618 380.888L680.511 362.389L741.348 421.828L707.292 499.766ZM613.947 514.72L704.526 497.062L737.033 422.669L678.963 365.935L588.384 383.592L555.876 457.985L613.947 514.72Z"/>
<path d="M302.536 648.14L208.722 666.429L147.88 606.984L181.55 529.937L185.093 530.865L152.198 606.143L210.269 662.88L301.926 645.012L302.536 648.14Z"/>
<path d="M455.461 688.002L360.568 706.501L299.731 647.062L333.787 569.124L428.68 550.625L489.517 610.064L455.461 688.002ZM362.117 702.958L452.695 685.3L485.203 610.908L427.132 554.173L336.554 571.831L304.046 646.224L362.117 702.958Z"/>
<path d="M512.063 745.838L452.613 687.748L455.544 685.554L514.998 743.644L512.063 745.838Z"/>
<path d="M607.845 727.166L604.301 726.235L637.196 650.954L577.698 592.873L580.625 590.681L641.514 650.113L607.845 727.166Z"/>
<path d="M581.235 593.809L577.698 592.873L611.411 515.815L614.951 516.746L581.235 593.809Z"/>
<path d="M738.835 629.518L639.052 648.971L639.661 652.093L739.443 632.64L738.835 629.518Z"/>
<path d="M102.936 458.992L161.096 515.816L128.539 590.326L37.8216 608.011L-20.3348 551.186L12.2185 476.677L102.936 458.992ZM104.612 455.153L9.21949 473.749L-25.0135 552.098L36.1407 611.845L131.533 593.248L165.771 514.905L104.612 455.153Z"/>
<path d="M149.509 611.753C152.864 611.099 155.141 608.296 154.594 605.492C154.047 602.688 150.885 600.945 147.53 601.599C144.175 602.253 141.899 605.056 142.445 607.86C142.992 610.664 146.155 612.407 149.509 611.753Z"/>
<path d="M183.515 535.845C186.869 535.191 189.146 532.388 188.599 529.584C188.053 526.78 184.89 525.037 181.535 525.691C178.18 526.345 175.904 529.149 176.451 531.953C176.997 534.757 180.16 536.499 183.515 535.845Z"/>
<path d="M337.397 575.125C340.751 574.471 343.028 571.668 342.481 568.864C341.935 566.06 338.772 564.317 335.417 564.971C332.062 565.625 329.786 568.429 330.333 571.233C330.879 574.037 334.042 575.779 337.397 575.125Z"/>
<path d="M614.135 521.176C617.49 520.522 619.766 517.719 619.22 514.915C618.673 512.111 615.51 510.368 612.156 511.022C608.801 511.676 606.525 514.479 607.071 517.283C607.618 520.087 610.78 521.83 614.135 521.176Z"/>
<path d="M514.88 751.653C518.235 750.999 520.511 748.196 519.965 745.392C519.418 742.588 516.255 740.845 512.9 741.499C509.546 742.153 507.269 744.956 507.816 747.76C508.363 750.564 511.525 752.307 514.88 751.653Z"/>
<path d="M362.332 709.808C365.687 709.154 367.964 706.351 367.417 703.547C366.87 700.743 363.708 699 360.353 699.654C356.998 700.308 354.722 703.111 355.268 705.915C355.815 708.719 358.978 710.462 362.332 709.808Z"/>
<path d="M734.055 637.342C737.41 636.688 739.686 633.885 739.139 631.081C738.593 628.277 735.43 626.534 732.075 627.188C728.721 627.842 726.444 630.645 726.991 633.449C727.538 636.253 730.7 637.996 734.055 637.342Z"/>
<path d="M640.343 655.611C643.697 654.957 645.974 652.154 645.427 649.35C644.881 646.546 641.718 644.803 638.363 645.457C635.008 646.111 632.732 648.914 633.279 651.718C633.825 654.522 636.988 656.265 640.343 655.611Z"/>
<path d="M253.237 350.416L309.599 405.489L278.049 477.693L190.134 494.832L133.769 439.766L165.322 367.555L253.237 350.416ZM254.912 346.574L162.322 364.624L129.094 440.675L188.454 498.669L281.044 480.619L314.274 404.574L254.912 346.574Z"/>
<path d="M-104.184 403.098L-47.8213 458.171L-79.3708 530.379L-167.286 547.517L-223.651 492.448L-192.099 420.237L-104.184 403.098ZM-102.508 399.259L-195.098 417.309L-228.326 493.36L-168.965 551.357L-76.3755 533.307L-43.1427 457.259L-102.508 399.259Z"/>
</mask>
<path d="M-120.8 209.117L-239.92 232.339L-316.965 157.066L-274.213 59.2268L-270.776 60.1312L-312.775 156.25L-238.417 228.894L-121.392 206.081L-120.8 209.117Z" fill="url(#paint0_linear)"/>
<path d="M-52.7294 549.929L-56.1667 549.022L-13.787 452.045L-10.3545 452.947L-52.7294 549.929Z" fill="url(#paint1_linear)"/>
<path d="M73.5901 259.937L-46.5801 283.363L-123.625 208.09L-80.495 109.393L39.6753 85.9664L116.716 161.237L73.5901 259.937ZM-45.0793 279.925L70.9004 257.315L112.526 162.057L38.1683 89.4121L-77.8114 112.022L-119.434 207.277L-45.0793 279.925Z" fill="url(#paint2_linear)"/>
<path d="M106.914 430.876L-13.256 454.303L-89.6274 379.689L-86.7821 377.56L-11.7558 450.862L104.224 428.252L145.849 332.994L70.8229 259.692L73.6676 257.56L150.04 332.177L106.914 430.876Z" fill="url(#paint3_linear)"/>
<path d="M-86.4267 379.849L-206.597 403.276L-283.641 328.003L-240.512 229.303L-121.392 206.081L-120.8 209.117L-237.825 231.931L-279.451 327.186L-205.093 399.834L-89.1133 377.224L-47.1111 281.105L-43.6774 282.014L-86.4267 379.849Z" fill="url(#paint4_linear)"/>
<path d="M267.491 310.071L264.054 309.166L306.052 213.045L231.694 140.4L114.669 163.214L114.077 160.177L233.201 136.954L310.242 212.228L267.491 310.071Z" fill="url(#paint5_linear)"/>
<path d="M234.167 139.131L230.729 138.223L273.106 41.2504L276.542 42.1517L234.167 139.131Z" fill="url(#paint6_linear)"/>
<path d="M509.626 171.788L307.852 211.123L308.443 214.153L510.217 174.818L509.626 171.788Z" fill="url(#paint7_linear)"/>
<path d="M-281.841 326.081L-564.621 381.208L-564.031 384.238L-281.251 329.112L-281.841 326.081Z" fill="url(#paint8_linear)"/>
<path d="M-86.8111 383.465C-83.555 382.83 -81.3455 380.109 -81.876 377.388C-82.4066 374.666 -85.4763 372.975 -88.7324 373.609C-91.9886 374.244 -94.198 376.965 -93.6675 379.687C-93.1369 382.408 -90.0672 384.1 -86.8111 383.465Z" fill="url(#paint9_linear)"/>
<path d="M-204.886 406.483C-201.63 405.849 -199.42 403.128 -199.951 400.406C-200.482 397.685 -203.551 395.993 -206.807 396.628C-210.064 397.262 -212.273 399.983 -211.742 402.705C-211.212 405.426 -208.142 407.118 -204.886 406.483Z" fill="url(#paint10_linear)"/>
<path d="M-53.4876 554.402C-50.2315 553.767 -48.022 551.046 -48.5526 548.325C-49.0831 545.603 -52.1528 543.911 -55.4089 544.546C-58.6651 545.181 -60.8746 547.902 -60.344 550.623C-59.8134 553.345 -56.7437 555.037 -53.4876 554.402Z" fill="url(#paint11_linear)"/>
<path d="M-44.4357 286.486C-41.1795 285.851 -38.9701 283.13 -39.5006 280.409C-40.0312 277.687 -43.1009 275.996 -46.357 276.63C-49.6131 277.265 -51.8226 279.986 -51.2921 282.708C-50.7615 285.429 -47.6918 287.121 -44.4357 286.486Z" fill="url(#paint12_linear)"/>
<path d="M-11.1116 457.426C-7.85546 456.791 -5.64597 454.07 -6.17654 451.349C-6.7071 448.627 -9.77678 446.935 -13.0329 447.57C-16.289 448.205 -18.4986 450.926 -17.968 453.647C-17.4374 456.369 -14.3677 458.061 -11.1116 457.426Z" fill="url(#paint13_linear)"/>
<path d="M74.164 263.366C77.4201 262.731 79.6296 260.01 79.099 257.288C78.5685 254.567 75.4987 252.875 72.2426 253.51C68.9865 254.145 66.7771 256.865 67.3077 259.587C67.8382 262.309 70.9078 264 74.164 263.366Z" fill="url(#paint14_linear)"/>
<path d="M40.8405 92.4288C44.0966 91.794 46.3061 89.0732 45.7756 86.3516C45.245 83.63 42.1753 81.9383 38.9192 82.5731C35.663 83.2079 33.4536 85.9287 33.9842 88.6503C34.5147 91.3719 37.5844 93.0636 40.8405 92.4288Z" fill="url(#paint15_linear)"/>
<path d="M-78.1928 115.634C-74.9367 114.999 -72.7271 112.278 -73.2577 109.557C-73.7883 106.835 -76.858 105.143 -80.1141 105.778C-83.3703 106.413 -85.5798 109.134 -85.0492 111.855C-84.5186 114.577 -81.449 116.269 -78.1928 115.634Z" fill="url(#paint16_linear)"/>
<path d="M309.108 217.564C312.364 216.929 314.573 214.208 314.043 211.487C313.512 208.765 310.443 207.074 307.187 207.708C303.93 208.343 301.721 211.064 302.251 213.786C302.782 216.507 305.852 218.199 309.108 217.564Z" fill="url(#paint17_linear)"/>
<path d="M510.882 178.229C514.138 177.594 516.347 174.873 515.817 172.152C515.286 169.43 512.216 167.739 508.96 168.373C505.704 169.008 503.495 171.729 504.025 174.451C504.556 177.172 507.626 178.864 510.882 178.229Z" fill="url(#paint18_linear)"/>
<path d="M-280.586 332.523C-277.329 331.888 -275.12 329.167 -275.651 326.445C-276.181 323.724 -279.251 322.032 -282.507 322.667C-285.763 323.302 -287.973 326.023 -287.442 328.744C-286.911 331.466 -283.842 333.157 -280.586 332.523Z" fill="url(#paint19_linear)"/>
<path d="M-120.135 212.528C-116.878 211.894 -114.669 209.173 -115.2 206.451C-115.73 203.73 -118.8 202.038 -122.056 202.673C-125.312 203.307 -127.521 206.028 -126.991 208.75C-126.46 211.471 -123.391 213.163 -120.135 212.528Z" fill="url(#paint20_linear)"/>
<path d="M-238.21 235.547C-234.953 234.912 -232.744 232.191 -233.275 229.469C-233.805 226.748 -236.875 225.056 -240.131 225.691C-243.387 226.326 -245.597 229.047 -245.066 231.768C-244.535 234.49 -241.466 236.181 -238.21 235.547Z" fill="url(#paint21_linear)"/>
<path d="M233.223 143.643C236.479 143.008 238.689 140.287 238.158 137.565C237.628 134.844 234.558 133.152 231.302 133.787C228.046 134.422 225.836 137.143 226.367 139.864C226.897 142.586 229.967 144.277 233.223 143.643Z" fill="url(#paint22_linear)"/>
<path d="M275.784 46.6274C279.04 45.9926 281.25 43.2718 280.719 40.5502C280.189 37.8286 277.119 36.1369 273.863 36.7717C270.607 37.4064 268.397 40.1273 268.928 42.8489C269.458 45.5705 272.528 47.2621 275.784 46.6274Z" fill="url(#paint23_linear)"/>
<path d="M115.148 166.661C118.404 166.026 120.614 163.305 120.083 160.584C119.553 157.862 116.483 156.17 113.227 156.805C109.971 157.44 107.761 160.161 108.292 162.882C108.822 165.604 111.892 167.296 115.148 166.661Z" fill="url(#paint24_linear)"/>
<path d="M107.488 434.305C110.744 433.671 112.954 430.95 112.423 428.228C111.893 425.507 108.823 423.815 105.567 424.45C102.311 425.084 100.101 427.805 100.632 430.527C101.162 433.248 104.232 434.94 107.488 434.305Z" fill="url(#paint25_linear)"/>
<path d="M148.472 337.598C151.728 336.963 153.937 334.242 153.407 331.52C152.876 328.799 149.806 327.107 146.55 327.742C143.294 328.377 141.085 331.098 141.615 333.819C142.146 336.541 145.215 338.232 148.472 337.598Z" fill="url(#paint26_linear)"/>
<path d="M266.546 314.579C269.803 313.945 272.012 311.224 271.482 308.502C270.951 305.781 267.881 304.089 264.625 304.724C261.369 305.358 259.16 308.079 259.69 310.801C260.221 313.522 263.29 315.214 266.546 314.579Z" fill="url(#paint27_linear)"/>
<path d="M-313.909 161.586C-310.653 160.951 -308.443 158.23 -308.974 155.509C-309.505 152.787 -312.574 151.095 -315.83 151.73C-319.087 152.365 -321.296 155.086 -320.765 157.807C-320.235 160.529 -317.165 162.221 -313.909 161.586Z" fill="url(#paint28_linear)"/>
<path d="M-271.261 66.0048C-268.005 65.37 -265.796 62.6492 -266.326 59.9276C-266.857 57.206 -269.926 55.5143 -273.182 56.1491C-276.439 56.7839 -278.648 59.5047 -278.117 62.2263C-277.587 64.9479 -274.517 66.6396 -271.261 66.0048Z" fill="url(#paint29_linear)"/>
<path d="M707.292 499.766L612.399 518.265L551.562 458.826L585.618 380.888L680.511 362.389L741.348 421.828L707.292 499.766ZM613.947 514.72L704.526 497.062L737.033 422.669L678.963 365.935L588.384 383.592L555.876 457.985L613.947 514.72Z" fill="url(#paint30_linear)"/>
<path d="M302.536 648.14L208.722 666.429L147.88 606.984L181.55 529.937L185.093 530.865L152.198 606.143L210.269 662.88L301.926 645.012L302.536 648.14Z" fill="url(#paint31_linear)"/>
<path d="M455.461 688.002L360.568 706.501L299.731 647.062L333.787 569.124L428.68 550.625L489.517 610.064L455.461 688.002ZM362.117 702.958L452.695 685.3L485.203 610.908L427.132 554.173L336.554 571.831L304.046 646.224L362.117 702.958Z" fill="url(#paint32_linear)"/>
<path d="M512.063 745.838L452.613 687.748L455.544 685.554L514.998 743.644L512.063 745.838Z" fill="url(#paint33_linear)"/>
<path d="M607.845 727.166L604.301 726.235L637.196 650.954L577.698 592.873L580.625 590.681L641.514 650.113L607.845 727.166Z" fill="url(#paint34_linear)"/>
<path d="M581.235 593.809L577.698 592.873L611.411 515.815L614.951 516.746L581.235 593.809Z" fill="url(#paint35_linear)"/>
<path d="M738.835 629.518L639.052 648.971L639.661 652.093L739.443 632.64L738.835 629.518Z" fill="url(#paint36_linear)"/>
<path d="M102.936 458.992L161.096 515.816L128.539 590.326L37.8216 608.011L-20.3348 551.186L12.2185 476.677L102.936 458.992ZM104.612 455.153L9.21949 473.749L-25.0135 552.098L36.1407 611.845L131.533 593.248L165.771 514.905L104.612 455.153Z" fill="url(#paint37_linear)"/>
<path d="M149.509 611.753C152.864 611.099 155.141 608.296 154.594 605.492C154.047 602.688 150.885 600.945 147.53 601.599C144.175 602.253 141.899 605.056 142.445 607.86C142.992 610.664 146.155 612.407 149.509 611.753Z" fill="url(#paint38_linear)"/>
<path d="M183.515 535.845C186.869 535.191 189.146 532.388 188.599 529.584C188.053 526.78 184.89 525.037 181.535 525.691C178.18 526.345 175.904 529.149 176.451 531.953C176.997 534.757 180.16 536.499 183.515 535.845Z" fill="url(#paint39_linear)"/>
<path d="M337.397 575.125C340.751 574.471 343.028 571.668 342.481 568.864C341.935 566.06 338.772 564.317 335.417 564.971C332.062 565.625 329.786 568.429 330.333 571.233C330.879 574.037 334.042 575.779 337.397 575.125Z" fill="url(#paint40_linear)"/>
<path d="M614.135 521.176C617.49 520.522 619.766 517.719 619.22 514.915C618.673 512.111 615.51 510.368 612.156 511.022C608.801 511.676 606.525 514.479 607.071 517.283C607.618 520.087 610.78 521.83 614.135 521.176Z" fill="url(#paint41_linear)"/>
<path d="M514.88 751.653C518.235 750.999 520.511 748.196 519.965 745.392C519.418 742.588 516.255 740.845 512.9 741.499C509.546 742.153 507.269 744.956 507.816 747.76C508.363 750.564 511.525 752.307 514.88 751.653Z" fill="url(#paint42_linear)"/>
<path d="M362.332 709.808C365.687 709.154 367.964 706.351 367.417 703.547C366.87 700.743 363.708 699 360.353 699.654C356.998 700.308 354.722 703.111 355.268 705.915C355.815 708.719 358.978 710.462 362.332 709.808Z" fill="url(#paint43_linear)"/>
<path d="M734.055 637.342C737.41 636.688 739.686 633.885 739.139 631.081C738.593 628.277 735.43 626.534 732.075 627.188C728.721 627.842 726.444 630.645 726.991 633.449C727.538 636.253 730.7 637.996 734.055 637.342Z" fill="url(#paint44_linear)"/>
<path d="M640.343 655.611C643.697 654.957 645.974 652.154 645.427 649.35C644.881 646.546 641.718 644.803 638.363 645.457C635.008 646.111 632.732 648.914 633.279 651.718C633.825 654.522 636.988 656.265 640.343 655.611Z" fill="url(#paint45_linear)"/>
<path d="M253.237 350.416L309.599 405.489L278.049 477.693L190.134 494.832L133.769 439.766L165.322 367.555L253.237 350.416ZM254.912 346.574L162.322 364.624L129.094 440.675L188.454 498.669L281.044 480.619L314.274 404.574L254.912 346.574Z" fill="url(#paint46_linear)"/>
<path d="M-104.184 403.098L-47.8213 458.171L-79.3708 530.379L-167.286 547.517L-223.651 492.448L-192.099 420.237L-104.184 403.098ZM-102.508 399.259L-195.098 417.309L-228.326 493.36L-168.965 551.357L-76.3755 533.307L-43.1427 457.259L-102.508 399.259Z" fill="url(#paint47_linear)"/>
<path d="M-121.882 206.176L-121.29 209.213L-120.309 209.022L-120.901 205.985L-121.882 206.176ZM-239.92 232.339L-240.619 233.055L-240.244 233.421L-239.729 233.321L-239.92 232.339ZM-316.965 157.066L-317.881 156.666L-318.158 157.299L-317.664 157.782L-316.965 157.066ZM-274.213 59.2268L-273.958 58.2597L-274.786 58.0418L-275.129 58.8264L-274.213 59.2268ZM-270.776 60.1312L-269.86 60.5316L-269.392 59.4614L-270.521 59.1641L-270.776 60.1312ZM-312.775 156.25L-313.691 155.849L-313.967 156.482L-313.473 156.965L-312.775 156.25ZM-238.417 228.894L-239.116 229.61L-238.741 229.976L-238.226 229.876L-238.417 228.894ZM-52.7294 549.929L-52.9846 550.896L-52.1562 551.115L-51.8131 550.33L-52.7294 549.929ZM-56.1667 549.022L-57.083 548.621L-57.5503 549.691L-56.4219 549.989L-56.1667 549.022ZM-13.787 452.045L-13.5328 451.078L-14.3606 450.86L-14.7033 451.645L-13.787 452.045ZM-10.3545 452.947L-9.43825 453.348L-8.97045 452.277L-10.1004 451.98L-10.3545 452.947ZM73.5901 259.937L73.7815 260.918L74.2964 260.818L74.5065 260.337L73.5901 259.937ZM-46.5801 283.363L-47.2789 284.079L-46.9037 284.445L-46.3888 284.345L-46.5801 283.363ZM-123.625 208.09L-124.541 207.69L-124.818 208.323L-124.324 208.806L-123.625 208.09ZM-80.495 109.393L-80.6863 108.412L-81.2012 108.512L-81.4113 108.993L-80.495 109.393ZM39.6753 85.9664L40.3741 85.2512L39.9988 84.8845L39.4839 84.9849L39.6753 85.9664ZM116.716 161.237L117.632 161.637L117.909 161.004L117.414 160.522L116.716 161.237ZM-45.0793 279.925L-45.7782 280.64L-45.4029 281.007L-44.8879 280.907L-45.0793 279.925ZM70.9004 257.315L71.0918 258.297L71.6067 258.197L71.8167 257.716L70.9004 257.315ZM112.526 162.057L113.442 162.457L113.719 161.824L113.225 161.342L112.526 162.057ZM38.1683 89.4121L38.8671 88.6968L38.4919 88.3302L37.977 88.4306L38.1683 89.4121ZM-77.8114 112.022L-78.0027 111.04L-78.5177 111.141L-78.7278 111.622L-77.8114 112.022ZM-119.434 207.277L-120.35 206.876L-120.627 207.509L-120.133 207.992L-119.434 207.277ZM106.914 430.876L107.106 431.858L107.62 431.758L107.831 431.277L106.914 430.876ZM-13.256 454.303L-13.9548 455.018L-13.5796 455.385L-13.0647 455.285L-13.256 454.303ZM-89.6274 379.689L-90.2266 378.889L-91.1617 379.588L-90.3263 380.405L-89.6274 379.689ZM-86.7821 377.56L-86.0833 376.845L-86.6957 376.247L-87.3812 376.76L-86.7821 377.56ZM-11.7558 450.862L-12.4546 451.577L-12.0794 451.944L-11.5644 451.843L-11.7558 450.862ZM104.224 428.252L104.415 429.234L104.93 429.133L105.14 428.653L104.224 428.252ZM145.849 332.994L146.766 333.394L147.042 332.761L146.548 332.278L145.849 332.994ZM70.8229 259.692L70.2231 258.892L69.2893 259.592L70.1241 260.407L70.8229 259.692ZM73.6676 257.56L74.3665 256.845L73.7536 256.246L73.0679 256.76L73.6676 257.56ZM150.04 332.177L150.956 332.577L151.233 331.944L150.739 331.462L150.04 332.177ZM-86.4267 379.849L-86.2354 380.831L-85.7204 380.731L-85.5104 380.25L-86.4267 379.849ZM-206.597 403.276L-207.296 403.991L-206.92 404.358L-206.406 404.258L-206.597 403.276ZM-283.641 328.003L-284.558 327.603L-284.834 328.236L-284.34 328.719L-283.641 328.003ZM-240.512 229.303L-240.704 228.321L-241.219 228.422L-241.429 228.902L-240.512 229.303ZM-237.825 231.931L-238.016 230.949L-238.531 231.05L-238.741 231.53L-237.825 231.931ZM-279.451 327.186L-280.367 326.786L-280.644 327.419L-280.15 327.902L-279.451 327.186ZM-205.093 399.834L-205.792 400.549L-205.417 400.916L-204.902 400.816L-205.093 399.834ZM-89.1133 377.224L-88.9219 378.206L-88.407 378.106L-88.197 377.625L-89.1133 377.224ZM-47.1111 281.105L-46.8553 280.139L-47.6841 279.919L-48.0274 280.705L-47.1111 281.105ZM-43.6774 282.014L-42.7611 282.414L-42.2941 281.345L-43.4218 281.047L-43.6774 282.014ZM267.491 310.071L267.236 311.038L268.064 311.256L268.407 310.471L267.491 310.071ZM264.054 309.166L263.138 308.766L262.67 309.836L263.799 310.133L264.054 309.166ZM306.052 213.045L306.968 213.445L307.245 212.812L306.751 212.329L306.052 213.045ZM231.694 140.4L232.393 139.685L232.018 139.318L231.503 139.418L231.694 140.4ZM114.669 163.214L113.687 163.405L113.879 164.386L114.86 164.195L114.669 163.214ZM114.077 160.177L113.886 159.196L112.904 159.387L113.095 160.368L114.077 160.177ZM233.201 136.954L233.9 136.239L233.525 135.872L233.01 135.973L233.201 136.954ZM310.242 212.228L311.159 212.628L311.435 211.995L310.941 211.513L310.242 212.228ZM234.167 139.131L233.911 140.098L234.74 140.316L235.083 139.531L234.167 139.131ZM230.729 138.223L229.813 137.823L229.346 138.892L230.474 139.19L230.729 138.223ZM273.106 41.2504L273.36 40.2831L272.532 40.066L272.19 40.8499L273.106 41.2504ZM276.542 42.1517L277.458 42.5521L277.926 41.481L276.796 41.1845L276.542 42.1517ZM307.852 211.123L307.661 210.141L306.679 210.332L306.871 211.314L307.852 211.123ZM509.626 171.788L510.608 171.596L510.416 170.615L509.435 170.806L509.626 171.788ZM510.217 174.818L510.408 175.799L511.39 175.608L511.198 174.627L510.217 174.818ZM308.443 214.153L307.461 214.344L307.653 215.326L308.634 215.135L308.443 214.153ZM-564.621 381.208L-564.813 380.226L-565.794 380.418L-565.603 381.399L-564.621 381.208ZM-281.841 326.081L-280.86 325.89L-281.051 324.908L-282.033 325.1L-281.841 326.081ZM-281.251 329.112L-281.059 330.093L-280.078 329.902L-280.269 328.92L-281.251 329.112ZM-564.031 384.238L-565.012 384.43L-564.821 385.411L-563.839 385.22L-564.031 384.238ZM707.292 499.766L707.483 500.747L707.998 500.647L708.208 500.166L707.292 499.766ZM612.399 518.265L611.7 518.98L612.075 519.347L612.59 519.246L612.399 518.265ZM551.562 458.826L550.646 458.426L550.369 459.059L550.863 459.541L551.562 458.826ZM585.618 380.888L585.426 379.907L584.912 380.007L584.702 380.488L585.618 380.888ZM680.511 362.389L681.209 361.674L680.834 361.307L680.319 361.408L680.511 362.389ZM741.348 421.828L742.264 422.228L742.541 421.595L742.046 421.113L741.348 421.828ZM613.947 514.72L613.248 515.435L613.623 515.801L614.138 515.701L613.947 514.72ZM704.526 497.062L704.717 498.043L705.232 497.943L705.442 497.462L704.526 497.062ZM737.033 422.669L737.95 423.07L738.226 422.437L737.732 421.954L737.033 422.669ZM678.963 365.935L679.662 365.219L679.286 364.853L678.771 364.953L678.963 365.935ZM588.384 383.592L588.193 382.611L587.678 382.711L587.468 383.192L588.384 383.592ZM555.876 457.985L554.96 457.585L554.683 458.218L555.177 458.7L555.876 457.985ZM302.536 648.14L302.727 649.121L303.709 648.93L303.518 647.949L302.536 648.14ZM208.722 666.429L208.023 667.144L208.398 667.511L208.913 667.41L208.722 666.429ZM147.88 606.984L146.964 606.584L146.687 607.217L147.181 607.7L147.88 606.984ZM181.55 529.937L181.803 528.97L180.976 528.753L180.633 529.537L181.55 529.937ZM185.093 530.865L186.009 531.266L186.478 530.194L185.346 529.898L185.093 530.865ZM152.198 606.143L151.282 605.742L151.005 606.375L151.499 606.858L152.198 606.143ZM210.269 662.88L209.57 663.595L209.946 663.962L210.46 663.862L210.269 662.88ZM301.926 645.012L302.908 644.821L302.716 643.839L301.735 644.031L301.926 645.012ZM455.461 688.002L455.652 688.983L456.167 688.883L456.377 688.402L455.461 688.002ZM360.568 706.501L359.869 707.216L360.245 707.583L360.759 707.482L360.568 706.501ZM299.731 647.062L298.815 646.661L298.538 647.294L299.032 647.777L299.731 647.062ZM333.787 569.124L333.596 568.142L333.081 568.243L332.871 568.723L333.787 569.124ZM428.68 550.625L429.379 549.91L429.003 549.543L428.489 549.643L428.68 550.625ZM489.517 610.064L490.433 610.464L490.71 609.831L490.216 609.348L489.517 610.064ZM362.117 702.958L361.418 703.674L361.793 704.04L362.308 703.94L362.117 702.958ZM452.695 685.3L452.887 686.282L453.401 686.182L453.612 685.701L452.695 685.3ZM485.203 610.908L486.119 611.308L486.396 610.675L485.902 610.193L485.203 610.908ZM427.132 554.173L427.831 553.458L427.456 553.091L426.941 553.192L427.132 554.173ZM336.554 571.831L336.363 570.85L335.848 570.95L335.638 571.431L336.554 571.831ZM304.046 646.224L303.13 645.823L302.853 646.456L303.347 646.939L304.046 646.224ZM512.063 745.838L511.364 746.553L511.977 747.152L512.662 746.639L512.063 745.838ZM452.613 687.748L452.013 686.947L451.078 687.647L451.914 688.463L452.613 687.748ZM455.544 685.554L456.243 684.839L455.63 684.241L454.945 684.754L455.544 685.554ZM514.998 743.644L515.597 744.445L516.533 743.746L515.697 742.929L514.998 743.644ZM607.845 727.166L607.591 728.133L608.419 728.35L608.761 727.566L607.845 727.166ZM604.301 726.235L603.385 725.834L602.917 726.905L604.047 727.202L604.301 726.235ZM637.196 650.954L638.112 651.355L638.389 650.722L637.894 650.239L637.196 650.954ZM577.698 592.873L576.782 592.472L576.505 593.106L576.999 593.589L577.698 592.873ZM580.625 590.681L581.324 589.965L580.711 589.367L580.026 589.88L580.625 590.681ZM641.514 650.113L642.43 650.513L642.707 649.88L642.212 649.397L641.514 650.113ZM581.235 593.809L580.979 594.775L581.808 594.994L582.151 594.209L581.235 593.809ZM611.411 515.815L611.665 514.848L610.837 514.63L610.494 515.414L611.411 515.815ZM614.951 516.746L615.867 517.147L616.335 516.077L615.205 515.779L614.951 516.746ZM639.052 648.971L638.861 647.989L637.879 648.181L638.071 649.162L639.052 648.971ZM738.835 629.518L739.816 629.327L739.625 628.346L738.644 628.537L738.835 629.518ZM739.443 632.64L739.635 633.622L740.616 633.43L740.425 632.449L739.443 632.64ZM639.661 652.093L638.679 652.284L638.87 653.265L639.852 653.074L639.661 652.093ZM102.936 458.992L103.634 458.276L103.259 457.91L102.744 458.01L102.936 458.992ZM161.096 515.816L162.012 516.217L162.288 515.584L161.794 515.101L161.096 515.816ZM128.539 590.326L128.73 591.307L129.245 591.207L129.455 590.726L128.539 590.326ZM37.8216 608.011L37.1228 608.726L37.498 609.093L38.013 608.992L37.8216 608.011ZM-20.3348 551.186L-21.2511 550.785L-21.5277 551.418L-21.0336 551.901L-20.3348 551.186ZM12.2185 476.677L12.0272 475.695L11.5122 475.796L11.3022 476.276L12.2185 476.677ZM104.612 455.153L105.31 454.437L104.935 454.071L104.42 454.171L104.612 455.153ZM9.21949 473.749L9.02815 472.768L8.51324 472.868L8.30319 473.349L9.21949 473.749ZM-25.0135 552.098L-25.9298 551.697L-26.2064 552.33L-25.7123 552.813L-25.0135 552.098ZM36.1407 611.845L35.4419 612.56L35.8171 612.927L36.332 612.826L36.1407 611.845ZM131.533 593.248L131.724 594.23L132.239 594.129L132.449 593.649L131.533 593.248ZM165.771 514.905L166.687 515.305L166.964 514.672L166.469 514.19L165.771 514.905ZM253.237 350.416L253.936 349.701L253.56 349.334L253.045 349.435L253.237 350.416ZM309.599 405.489L310.516 405.889L310.792 405.256L310.298 404.774L309.599 405.489ZM278.049 477.693L278.24 478.675L278.755 478.575L278.965 478.094L278.049 477.693ZM190.134 494.832L189.435 495.547L189.811 495.914L190.326 495.814L190.134 494.832ZM133.769 439.766L132.853 439.366L132.576 439.999L133.071 440.481L133.769 439.766ZM165.322 367.555L165.131 366.573L164.616 366.674L164.406 367.154L165.322 367.555ZM254.912 346.574L255.611 345.859L255.236 345.492L254.721 345.592L254.912 346.574ZM162.322 364.624L162.131 363.643L161.616 363.743L161.406 364.224L162.322 364.624ZM129.094 440.675L128.177 440.274L127.901 440.907L128.395 441.39L129.094 440.675ZM188.454 498.669L187.755 499.384L188.13 499.751L188.645 499.65L188.454 498.669ZM281.044 480.619L281.235 481.6L281.75 481.5L281.96 481.019L281.044 480.619ZM314.274 404.574L315.19 404.975L315.466 404.342L314.972 403.859L314.274 404.574ZM-104.184 403.098L-103.485 402.383L-103.86 402.016L-104.375 402.117L-104.184 403.098ZM-47.8213 458.171L-46.905 458.571L-46.6284 457.938L-47.1225 457.456L-47.8213 458.171ZM-79.3708 530.379L-79.1794 531.36L-78.6645 531.26L-78.4544 530.779L-79.3708 530.379ZM-167.286 547.517L-167.985 548.233L-167.609 548.599L-167.094 548.499L-167.286 547.517ZM-223.651 492.448L-224.567 492.048L-224.844 492.681L-224.35 493.164L-223.651 492.448ZM-192.099 420.237L-192.29 419.255L-192.805 419.356L-193.015 419.836L-192.099 420.237ZM-102.508 399.259L-101.809 398.544L-102.184 398.177L-102.699 398.278L-102.508 399.259ZM-195.098 417.309L-195.289 416.328L-195.804 416.428L-196.014 416.909L-195.098 417.309ZM-228.326 493.36L-229.243 492.959L-229.519 493.592L-229.025 494.075L-228.326 493.36ZM-168.965 551.357L-169.664 552.072L-169.289 552.439L-168.774 552.339L-168.965 551.357ZM-76.3755 533.307L-76.1841 534.289L-75.6692 534.188L-75.4591 533.707L-76.3755 533.307ZM-43.1427 457.259L-42.2263 457.659L-41.9497 457.026L-42.4438 456.544L-43.1427 457.259ZM-120.991 208.136L-240.112 231.358L-239.729 233.321L-120.608 210.099L-120.991 208.136ZM-239.222 231.624L-316.266 156.351L-317.664 157.782L-240.619 233.055L-239.222 231.624ZM-316.049 157.467L-273.296 59.6272L-275.129 58.8264L-317.881 156.666L-316.049 157.467ZM-274.467 60.1939L-271.03 61.0983L-270.521 59.1641L-273.958 58.2597L-274.467 60.1939ZM-271.692 59.7308L-313.691 155.849L-311.858 156.65L-269.86 60.5316L-271.692 59.7308ZM-313.473 156.965L-239.116 229.61L-237.718 228.179L-312.076 155.534L-313.473 156.965ZM-238.226 229.876L-121.2 207.062L-121.583 205.099L-238.608 227.913L-238.226 229.876ZM-52.4742 548.962L-55.9114 548.055L-56.4219 549.989L-52.9846 550.896L-52.4742 548.962ZM-55.2503 549.422L-12.8707 452.446L-14.7033 451.645L-57.083 548.621L-55.2503 549.422ZM-14.0411 453.012L-10.6088 453.914L-10.1004 451.98L-13.5328 451.078L-14.0411 453.012ZM-11.2709 452.547L-53.6457 549.529L-51.8131 550.33L-9.43825 453.348L-11.2709 452.547ZM73.3988 258.955L-46.7715 282.382L-46.3888 284.345L73.7815 260.918L73.3988 258.955ZM-45.8813 282.648L-122.926 207.375L-124.324 208.806L-47.2789 284.079L-45.8813 282.648ZM-122.708 208.491L-79.5786 109.794L-81.4113 108.993L-124.541 207.69L-122.708 208.491ZM-80.3036 110.375L39.8666 86.948L39.4839 84.9849L-80.6863 108.412L-80.3036 110.375ZM38.9764 86.6817L116.017 161.952L117.414 160.522L40.3741 85.2512L38.9764 86.6817ZM115.799 160.837L72.6738 259.536L74.5065 260.337L117.632 161.637L115.799 160.837ZM-44.8879 280.907L71.0918 258.297L70.7091 256.334L-45.2706 278.944L-44.8879 280.907ZM71.8167 257.716L113.442 162.457L111.609 161.657L69.9841 256.915L71.8167 257.716ZM113.225 161.342L38.8671 88.6968L37.4695 90.1274L111.827 162.772L113.225 161.342ZM37.977 88.4306L-78.0027 111.04L-77.6201 113.003L38.3597 90.3936L37.977 88.4306ZM-78.7278 111.622L-120.35 206.876L-118.517 207.677L-76.8951 112.422L-78.7278 111.622ZM-120.133 207.992L-45.7782 280.64L-44.3804 279.21L-118.735 206.561L-120.133 207.992ZM106.723 429.895L-13.4473 453.322L-13.0647 455.285L107.106 431.858L106.723 429.895ZM-12.5571 453.588L-88.9286 378.974L-90.3263 380.405L-13.9548 455.018L-12.5571 453.588ZM-89.0283 380.49L-86.183 378.361L-87.3812 376.76L-90.2266 378.889L-89.0283 380.49ZM-87.481 378.276L-12.4546 451.577L-11.0569 450.147L-86.0833 376.845L-87.481 378.276ZM-11.5644 451.843L104.415 429.234L104.033 427.271L-11.9471 449.88L-11.5644 451.843ZM105.14 428.653L146.766 333.394L144.933 332.593L103.308 427.852L105.14 428.653ZM146.548 332.278L71.5217 258.977L70.1241 260.407L145.151 333.709L146.548 332.278ZM71.4226 260.492L74.2674 258.36L73.0679 256.76L70.2231 258.892L71.4226 260.492ZM72.9688 258.275L149.341 332.892L150.739 331.462L74.3665 256.845L72.9688 258.275ZM149.123 331.776L105.998 430.476L107.831 431.277L150.956 332.577L149.123 331.776ZM-86.6181 378.868L-206.788 402.295L-206.406 404.258L-86.2354 380.831L-86.6181 378.868ZM-205.898 402.561L-282.943 327.288L-284.34 328.719L-207.296 403.991L-205.898 402.561ZM-282.725 328.404L-239.596 229.703L-241.429 228.902L-284.558 327.603L-282.725 328.404ZM-240.321 230.284L-121.2 207.062L-121.583 205.099L-240.704 228.321L-240.321 230.284ZM-120.991 208.136L-238.016 230.949L-237.634 232.912L-120.608 210.099L-120.991 208.136ZM-238.741 231.53L-280.367 326.786L-278.535 327.587L-236.909 232.331L-238.741 231.53ZM-280.15 327.902L-205.792 400.549L-204.394 399.119L-278.752 326.471L-280.15 327.902ZM-204.902 400.816L-88.9219 378.206L-89.3046 376.243L-205.284 398.853L-204.902 400.816ZM-88.197 377.625L-46.1947 281.506L-48.0274 280.705L-90.0296 376.824L-88.197 377.625ZM-47.3668 282.072L-43.9331 282.98L-43.4218 281.047L-46.8553 280.139L-47.3668 282.072ZM-44.5938 281.613L-87.343 379.449L-85.5104 380.25L-42.7611 282.414L-44.5938 281.613ZM267.745 309.103L264.308 308.199L263.799 310.133L267.236 311.038L267.745 309.103ZM264.97 309.566L306.968 213.445L305.136 212.644L263.138 308.766L264.97 309.566ZM306.751 212.329L232.393 139.685L230.996 141.115L305.353 213.76L306.751 212.329ZM231.503 139.418L114.478 162.232L114.86 164.195L231.886 141.381L231.503 139.418ZM115.65 163.022L115.059 159.986L113.095 160.368L113.687 163.405L115.65 163.022ZM114.268 161.159L233.393 137.936L233.01 135.973L113.886 159.196L114.268 161.159ZM232.503 137.669L309.543 212.943L310.941 211.513L233.9 136.239L232.503 137.669ZM309.326 211.827L266.574 309.67L268.407 310.471L311.159 212.628L309.326 211.827ZM234.422 138.164L230.985 137.256L230.474 139.19L233.911 140.098L234.422 138.164ZM231.646 138.624L274.022 41.6508L272.19 40.8499L229.813 137.823L231.646 138.624ZM272.852 42.2176L276.288 43.119L276.796 41.1845L273.36 40.2831L272.852 42.2176ZM275.626 41.7513L233.25 138.73L235.083 139.531L277.458 42.5521L275.626 41.7513ZM308.043 212.104L509.817 172.769L509.435 170.806L307.661 210.141L308.043 212.104ZM508.644 171.979L509.235 175.009L511.198 174.627L510.608 171.596L508.644 171.979ZM510.025 173.836L308.252 213.171L308.634 215.135L510.408 175.799L510.025 173.836ZM309.424 213.962L308.834 210.931L306.871 211.314L307.461 214.344L309.424 213.962ZM-564.43 382.19L-281.65 327.063L-282.033 325.1L-564.813 380.226L-564.43 382.19ZM-282.823 326.272L-282.232 329.303L-280.269 328.92L-280.86 325.89L-282.823 326.272ZM-281.442 328.13L-564.222 383.257L-563.839 385.22L-281.059 330.093L-281.442 328.13ZM-563.049 384.047L-563.64 381.017L-565.603 381.399L-565.012 384.43L-563.049 384.047ZM-82.8576 377.579C-82.4634 379.601 -84.1162 381.921 -87.0024 382.484L-86.6197 384.447C-82.9937 383.74 -80.2276 380.618 -80.8945 377.197L-82.8576 377.579ZM-87.0024 382.484C-89.8887 383.046 -92.2918 381.517 -92.6859 379.495L-94.649 379.878C-93.9821 383.299 -90.2457 385.153 -86.6197 384.447L-87.0024 382.484ZM-92.6859 379.495C-93.0801 377.473 -91.4273 375.154 -88.5411 374.591L-88.9238 372.628C-92.5498 373.335 -95.3159 376.457 -94.649 379.878L-92.6859 379.495ZM-88.5411 374.591C-85.6548 374.028 -83.2518 375.557 -82.8576 377.579L-80.8945 377.197C-81.5615 373.775 -85.2978 371.921 -88.9238 372.628L-88.5411 374.591ZM-200.933 400.598C-200.538 402.62 -202.191 404.939 -205.077 405.502L-204.695 407.465C-201.069 406.758 -198.303 403.636 -198.97 400.215L-200.933 400.598ZM-205.077 405.502C-207.964 406.065 -210.367 404.536 -210.761 402.514L-212.724 402.896C-212.057 406.317 -208.321 408.172 -204.695 407.465L-205.077 405.502ZM-210.761 402.514C-211.155 400.491 -209.502 398.172 -206.616 397.609L-206.999 395.646C-210.625 396.353 -213.391 399.475 -212.724 402.896L-210.761 402.514ZM-206.616 397.609C-203.73 397.047 -201.327 398.575 -200.933 400.598L-198.97 400.215C-199.636 396.794 -203.373 394.939 -206.999 395.646L-206.616 397.609ZM-49.5341 548.516C-49.1399 550.538 -50.7927 552.858 -53.6789 553.42L-53.2963 555.383C-49.6702 554.676 -46.9041 551.554 -47.571 548.133L-49.5341 548.516ZM-53.6789 553.42C-56.5652 553.983 -58.9683 552.454 -59.3625 550.432L-61.3255 550.815C-60.6586 554.236 -56.9223 556.09 -53.2963 555.383L-53.6789 553.42ZM-59.3625 550.432C-59.7566 548.41 -58.1038 546.09 -55.2176 545.528L-55.6003 543.565C-59.2263 544.271 -61.9925 547.394 -61.3255 550.815L-59.3625 550.432ZM-55.2176 545.528C-52.3314 544.965 -49.9283 546.494 -49.5341 548.516L-47.571 548.133C-48.238 544.712 -51.9743 542.858 -55.6003 543.565L-55.2176 545.528ZM-40.4821 280.6C-40.088 282.622 -41.7407 284.942 -44.627 285.505L-44.2443 287.468C-40.6183 286.761 -37.8521 283.639 -38.5191 280.218L-40.4821 280.6ZM-44.627 285.505C-47.5132 286.067 -49.9164 284.538 -50.3105 282.516L-52.2736 282.899C-51.6067 286.32 -47.8703 288.174 -44.2443 287.468L-44.627 285.505ZM-50.3105 282.516C-50.7047 280.494 -49.0519 278.175 -46.1657 277.612L-46.5483 275.649C-50.1744 276.356 -52.9405 279.478 -52.2736 282.899L-50.3105 282.516ZM-46.1657 277.612C-43.2794 277.049 -40.8763 278.578 -40.4821 280.6L-38.5191 280.218C-39.186 276.796 -42.9223 274.942 -46.5483 275.649L-46.1657 277.612ZM-7.15806 451.54C-6.76387 453.562 -8.41667 455.882 -11.3029 456.444L-10.9203 458.407C-7.29424 457.701 -4.52807 454.579 -5.19501 451.157L-7.15806 451.54ZM-11.3029 456.444C-14.1892 457.007 -16.5923 455.478 -16.9865 453.456L-18.9495 453.839C-18.2826 457.26 -14.5463 459.114 -10.9203 458.407L-11.3029 456.444ZM-16.9865 453.456C-17.3807 451.434 -15.7278 449.114 -12.8416 448.552L-13.2243 446.589C-16.8503 447.296 -19.6165 450.418 -18.9495 453.839L-16.9865 453.456ZM-12.8416 448.552C-9.9553 447.989 -7.55224 449.518 -7.15806 451.54L-5.19501 451.157C-5.86195 447.736 -9.59826 445.882 -13.2243 446.589L-12.8416 448.552ZM78.1175 257.48C78.5117 259.502 76.8589 261.821 73.9726 262.384L74.3553 264.347C77.9813 263.64 80.7475 260.518 80.0806 257.097L78.1175 257.48ZM73.9726 262.384C71.0864 262.947 68.6834 261.418 68.2892 259.396L66.3261 259.778C66.9931 263.199 70.7293 265.054 74.3553 264.347L73.9726 262.384ZM68.2892 259.396C67.895 257.374 69.5478 255.054 72.434 254.491L72.0513 252.528C68.4253 253.235 65.6592 256.357 66.3261 259.778L68.2892 259.396ZM72.434 254.491C75.3202 253.929 77.7233 255.458 78.1175 257.48L80.0806 257.097C79.4136 253.676 75.6773 251.821 72.0513 252.528L72.434 254.491ZM44.794 86.5429C45.1882 88.5649 43.5354 90.8846 40.6492 91.4473L41.0319 93.4103C44.6578 92.7034 47.424 89.5814 46.7571 86.1602L44.794 86.5429ZM40.6492 91.4473C37.7629 92.0099 35.3599 90.481 34.9657 88.4589L33.0027 88.8416C33.6696 92.2628 37.4058 94.1172 41.0319 93.4103L40.6492 91.4473ZM34.9657 88.4589C34.5715 86.4369 36.2242 84.1173 39.1105 83.5546L38.7278 81.5916C35.1018 82.2984 32.3357 85.4205 33.0027 88.8416L34.9657 88.4589ZM39.1105 83.5546C41.9967 82.992 44.3999 84.5209 44.794 86.5429L46.7571 86.1602C46.0902 82.7391 42.3538 80.8847 38.7278 81.5916L39.1105 83.5546ZM-74.2392 109.748C-73.845 111.77 -75.4979 114.09 -78.3842 114.652L-78.0015 116.615C-74.3755 115.909 -71.6092 112.786 -72.2762 109.365L-74.2392 109.748ZM-78.3842 114.652C-81.2704 115.215 -83.6735 113.686 -84.0677 111.664L-86.0307 112.047C-85.3638 115.468 -81.6275 117.322 -78.0015 116.615L-78.3842 114.652ZM-84.0677 111.664C-84.4619 109.642 -82.809 107.322 -79.9228 106.76L-80.3055 104.797C-83.9315 105.504 -86.6977 108.626 -86.0307 112.047L-84.0677 111.664ZM-79.9228 106.76C-77.0365 106.197 -74.6334 107.726 -74.2392 109.748L-72.2762 109.365C-72.9431 105.944 -76.6795 104.09 -80.3055 104.797L-79.9228 106.76ZM313.061 211.678C313.456 213.7 311.803 216.02 308.916 216.583L309.299 218.546C312.925 217.839 315.691 214.717 315.024 211.296L313.061 211.678ZM308.916 216.583C306.03 217.145 303.627 215.616 303.233 213.594L301.27 213.977C301.937 217.398 305.673 219.252 309.299 218.546L308.916 216.583ZM303.233 213.594C302.839 211.572 304.492 209.253 307.378 208.69L306.995 206.727C303.369 207.434 300.603 210.556 301.27 213.977L303.233 213.594ZM307.378 208.69C310.264 208.127 312.667 209.656 313.061 211.678L315.024 211.296C314.357 207.874 310.621 206.02 306.995 206.727L307.378 208.69ZM514.835 172.343C515.229 174.365 513.577 176.685 510.69 177.248L511.073 179.211C514.699 178.504 517.465 175.382 516.798 171.961L514.835 172.343ZM510.69 177.248C507.804 177.81 505.401 176.281 505.007 174.259L503.044 174.642C503.711 178.063 507.447 179.917 511.073 179.211L510.69 177.248ZM505.007 174.259C504.613 172.237 506.266 169.918 509.152 169.355L508.769 167.392C505.143 168.099 502.377 171.221 503.044 174.642L505.007 174.259ZM509.152 169.355C512.038 168.792 514.441 170.321 514.835 172.343L516.798 171.961C516.131 168.539 512.395 166.685 508.769 167.392L509.152 169.355ZM-276.632 326.637C-276.238 328.659 -277.891 330.978 -280.777 331.541L-280.394 333.504C-276.768 332.797 -274.002 329.675 -274.669 326.254L-276.632 326.637ZM-280.777 331.541C-283.663 332.104 -286.066 330.575 -286.46 328.553L-288.423 328.935C-287.757 332.357 -284.02 334.211 -280.394 333.504L-280.777 331.541ZM-286.46 328.553C-286.855 326.531 -285.202 324.211 -282.316 323.648L-282.698 321.685C-286.324 322.392 -289.09 325.514 -288.423 328.935L-286.46 328.553ZM-282.316 323.648C-279.429 323.086 -277.026 324.615 -276.632 326.637L-274.669 326.254C-275.336 322.833 -279.072 320.979 -282.698 321.685L-282.316 323.648ZM-116.181 206.643C-115.787 208.665 -117.44 210.984 -120.326 211.547L-119.943 213.51C-116.317 212.803 -113.551 209.681 -114.218 206.26L-116.181 206.643ZM-120.326 211.547C-123.212 212.11 -125.615 210.581 -126.009 208.559L-127.972 208.941C-127.306 212.362 -123.569 214.217 -119.943 213.51L-120.326 211.547ZM-126.009 208.559C-126.404 206.537 -124.751 204.217 -121.865 203.654L-122.247 201.691C-125.873 202.398 -128.639 205.52 -127.972 208.941L-126.009 208.559ZM-121.865 203.654C-118.978 203.092 -116.575 204.621 -116.181 206.643L-114.218 206.26C-114.885 202.839 -118.621 200.984 -122.247 201.691L-121.865 203.654ZM-234.256 229.661C-233.862 231.683 -235.515 234.002 -238.401 234.565L-238.018 236.528C-234.392 235.821 -231.626 232.699 -232.293 229.278L-234.256 229.661ZM-238.401 234.565C-241.287 235.128 -243.69 233.599 -244.084 231.577L-246.047 231.959C-245.381 235.381 -241.644 237.235 -238.018 236.528L-238.401 234.565ZM-244.084 231.577C-244.479 229.555 -242.826 227.235 -239.94 226.672L-240.322 224.709C-243.948 225.416 -246.714 228.538 -246.047 231.959L-244.084 231.577ZM-239.94 226.672C-237.053 226.11 -234.65 227.639 -234.256 229.661L-232.293 229.278C-232.96 225.857 -236.696 224.003 -240.322 224.709L-239.94 226.672ZM237.177 137.757C237.571 139.779 235.918 142.098 233.032 142.661L233.414 144.624C237.04 143.917 239.807 140.795 239.14 137.374L237.177 137.757ZM233.032 142.661C230.145 143.224 227.742 141.695 227.348 139.673L225.385 140.055C226.052 143.477 229.788 145.331 233.414 144.624L233.032 142.661ZM227.348 139.673C226.954 137.651 228.607 135.331 231.493 134.768L231.11 132.805C227.484 133.512 224.718 136.634 225.385 140.055L227.348 139.673ZM231.493 134.768C234.379 134.206 236.782 135.735 237.177 137.757L239.14 137.374C238.473 133.953 234.736 132.099 231.11 132.805L231.493 134.768ZM279.738 40.7415C280.132 42.7635 278.479 45.0832 275.593 45.6458L275.976 47.6089C279.602 46.902 282.368 43.78 281.701 40.3588L279.738 40.7415ZM275.593 45.6458C272.707 46.2085 270.304 44.6795 269.909 42.6575L267.946 43.0402C268.613 46.4614 272.35 48.3158 275.976 47.6089L275.593 45.6458ZM269.909 42.6575C269.515 40.6355 271.168 38.3159 274.054 37.7532L273.672 35.7901C270.046 36.497 267.279 39.6191 267.946 43.0402L269.909 42.6575ZM274.054 37.7532C276.941 37.1905 279.344 38.7195 279.738 40.7415L281.701 40.3588C281.034 36.9377 277.298 35.0833 273.672 35.7901L274.054 37.7532ZM119.102 160.775C119.496 162.797 117.843 165.117 114.957 165.679L115.339 167.642C118.965 166.936 121.732 163.814 121.065 160.392L119.102 160.775ZM114.957 165.679C112.071 166.242 109.667 164.713 109.273 162.691L107.31 163.074C107.977 166.495 111.713 168.349 115.339 167.642L114.957 165.679ZM109.273 162.691C108.879 160.669 110.532 158.349 113.418 157.787L113.035 155.824C109.409 156.531 106.643 159.653 107.31 163.074L109.273 162.691ZM113.418 157.787C116.304 157.224 118.708 158.753 119.102 160.775L121.065 160.392C120.398 156.971 116.661 155.117 113.035 155.824L113.418 157.787ZM111.442 428.419C111.836 430.441 110.183 432.761 107.297 433.324L107.679 435.287C111.305 434.58 114.072 431.458 113.405 428.037L111.442 428.419ZM107.297 433.324C104.41 433.886 102.007 432.357 101.613 430.335L99.6502 430.718C100.317 434.139 104.053 435.994 107.679 435.287L107.297 433.324ZM101.613 430.335C101.219 428.313 102.872 425.994 105.758 425.431L105.375 423.468C101.749 424.175 98.9833 427.297 99.6502 430.718L101.613 430.335ZM105.758 425.431C108.644 424.869 111.047 426.397 111.442 428.419L113.405 428.037C112.738 424.616 109.001 422.761 105.375 423.468L105.758 425.431ZM152.425 331.712C152.819 333.734 151.166 336.053 148.28 336.616L148.663 338.579C152.289 337.872 155.055 334.75 154.388 331.329L152.425 331.712ZM148.28 336.616C145.394 337.179 142.991 335.65 142.597 333.628L140.634 334.01C141.301 337.432 145.037 339.286 148.663 338.579L148.28 336.616ZM142.597 333.628C142.203 331.606 143.855 329.286 146.742 328.723L146.359 326.76C142.733 327.467 139.967 330.589 140.634 334.01L142.597 333.628ZM146.742 328.723C149.628 328.161 152.031 329.69 152.425 331.712L154.388 331.329C153.721 327.908 149.985 326.054 146.359 326.76L146.742 328.723ZM270.5 308.693C270.894 310.715 269.241 313.035 266.355 313.598L266.738 315.561C270.364 314.854 273.13 311.732 272.463 308.311L270.5 308.693ZM266.355 313.598C263.469 314.161 261.066 312.632 260.672 310.609L258.709 310.992C259.376 314.413 263.112 316.268 266.738 315.561L266.355 313.598ZM260.672 310.609C260.277 308.587 261.93 306.268 264.816 305.705L264.434 303.742C260.808 304.449 258.042 307.571 258.709 310.992L260.672 310.609ZM264.816 305.705C267.703 305.143 270.106 306.671 270.5 308.693L272.463 308.311C271.796 304.89 268.06 303.035 264.434 303.742L264.816 305.705ZM-309.956 155.7C-309.561 157.722 -311.214 160.042 -314.1 160.604L-313.718 162.567C-310.092 161.861 -307.326 158.738 -307.993 155.317L-309.956 155.7ZM-314.1 160.604C-316.987 161.167 -319.39 159.638 -319.784 157.616L-321.747 157.999C-321.08 161.42 -317.344 163.274 -313.718 162.567L-314.1 160.604ZM-319.784 157.616C-320.178 155.594 -318.525 153.274 -315.639 152.712L-316.022 150.749C-319.648 151.456 -322.414 154.578 -321.747 157.999L-319.784 157.616ZM-315.639 152.712C-312.753 152.149 -310.35 153.678 -309.956 155.7L-307.993 155.317C-308.659 151.896 -312.396 150.042 -316.022 150.749L-315.639 152.712ZM-267.308 60.119C-266.913 62.141 -268.566 64.4606 -271.452 65.0233L-271.07 66.9863C-267.444 66.2795 -264.678 63.1574 -265.345 59.7363L-267.308 60.119ZM-271.452 65.0233C-274.339 65.5859 -276.742 64.057 -277.136 62.035L-279.099 62.4177C-278.432 65.8388 -274.696 67.6932 -271.07 66.9863L-271.452 65.0233ZM-277.136 62.035C-277.53 60.013 -275.877 57.6933 -272.991 57.1306L-273.374 55.1676C-277 55.8745 -279.766 58.9965 -279.099 62.4177L-277.136 62.035ZM-272.991 57.1306C-270.105 56.568 -267.702 58.0969 -267.308 60.119L-265.345 59.7363C-266.011 56.3151 -269.748 54.4607 -273.374 55.1676L-272.991 57.1306ZM707.1 498.784L612.208 517.283L612.59 519.246L707.483 500.747L707.1 498.784ZM613.098 517.55L552.261 458.111L550.863 459.541L611.7 518.98L613.098 517.55ZM552.478 459.226L586.534 381.289L584.702 380.488L550.646 458.426L552.478 459.226ZM585.809 381.87L680.702 363.371L680.319 361.408L585.426 379.907L585.809 381.87ZM679.812 363.104L740.649 422.543L742.046 421.113L681.209 361.674L679.812 363.104ZM740.431 421.428L706.375 499.366L708.208 500.166L742.264 422.228L740.431 421.428ZM614.138 515.701L704.717 498.043L704.334 496.08L613.756 513.738L614.138 515.701ZM705.442 497.462L737.95 423.07L736.117 422.269L703.609 496.661L705.442 497.462ZM737.732 421.954L679.662 365.219L678.264 366.65L736.335 423.384L737.732 421.954ZM678.771 364.953L588.193 382.611L588.576 384.574L679.154 366.916L678.771 364.953ZM587.468 383.192L554.96 457.585L556.793 458.385L589.301 383.993L587.468 383.192ZM555.177 458.7L613.248 515.435L614.646 514.004L556.575 457.27L555.177 458.7ZM302.345 647.158L208.53 665.447L208.913 667.41L302.727 649.121L302.345 647.158ZM209.421 665.713L148.579 606.269L147.181 607.7L208.023 667.144L209.421 665.713ZM148.796 607.385L182.466 530.338L180.633 529.537L146.964 606.584L148.796 607.385ZM181.296 530.905L184.84 531.833L185.346 529.898L181.803 528.97L181.296 530.905ZM184.177 530.465L151.282 605.742L153.114 606.543L186.009 531.266L184.177 530.465ZM151.499 606.858L209.57 663.595L210.968 662.165L152.897 605.427L151.499 606.858ZM210.46 663.862L302.118 645.994L301.735 644.031L210.078 661.899L210.46 663.862ZM300.945 645.203L301.554 648.331L303.518 647.949L302.908 644.821L300.945 645.203ZM455.27 687.02L360.377 705.519L360.759 707.482L455.652 688.983L455.27 687.02ZM361.267 705.785L300.43 646.346L299.032 647.777L359.869 707.216L361.267 705.785ZM300.648 647.462L334.703 569.524L332.871 568.723L298.815 646.661L300.648 647.462ZM333.978 570.105L428.871 551.606L428.489 549.643L333.596 568.142L333.978 570.105ZM427.981 551.34L488.818 610.779L490.216 609.348L429.379 549.91L427.981 551.34ZM488.601 609.663L454.545 687.601L456.377 688.402L490.433 610.464L488.601 609.663ZM362.308 703.94L452.887 686.282L452.504 684.319L361.925 701.977L362.308 703.94ZM453.612 685.701L486.119 611.308L484.287 610.507L451.779 684.9L453.612 685.701ZM485.902 610.193L427.831 553.458L426.434 554.889L484.504 611.623L485.902 610.193ZM426.941 553.192L336.363 570.85L336.745 572.813L427.324 555.155L426.941 553.192ZM335.638 571.431L303.13 645.823L304.962 646.624L337.47 572.232L335.638 571.431ZM303.347 646.939L361.418 703.674L362.815 702.243L304.745 645.508L303.347 646.939ZM512.762 745.123L453.311 687.032L451.914 688.463L511.364 746.553L512.762 745.123ZM453.212 688.548L456.143 686.355L454.945 684.754L452.013 686.947L453.212 688.548ZM454.845 686.27L514.299 744.359L515.697 742.929L456.243 684.839L454.845 686.27ZM514.399 742.843L511.465 745.037L512.662 746.639L515.597 744.445L514.399 742.843ZM608.099 726.199L604.555 725.268L604.047 727.202L607.591 728.133L608.099 726.199ZM605.218 726.635L638.112 651.355L636.28 650.554L603.385 725.834L605.218 726.635ZM637.894 650.239L578.396 592.158L576.999 593.589L636.497 651.67L637.894 650.239ZM578.297 593.674L581.225 591.481L580.026 589.88L577.098 592.073L578.297 593.674ZM579.927 591.396L640.815 650.828L642.212 649.397L581.324 589.965L579.927 591.396ZM640.597 649.712L606.929 726.765L608.761 727.566L642.43 650.513L640.597 649.712ZM581.491 592.842L577.953 591.906L577.442 593.84L580.979 594.775L581.491 592.842ZM578.614 593.274L612.327 516.215L610.494 515.414L576.782 592.472L578.614 593.274ZM611.156 516.782L614.696 517.713L615.205 515.779L611.665 514.848L611.156 516.782ZM614.035 516.345L580.319 593.408L582.151 594.209L615.867 517.147L614.035 516.345ZM639.243 649.952L739.026 630.5L738.644 628.537L638.861 647.989L639.243 649.952ZM737.853 629.71L738.462 632.832L740.425 632.449L739.816 629.327L737.853 629.71ZM739.252 631.659L639.469 651.111L639.852 653.074L739.635 633.622L739.252 631.659ZM640.642 651.901L640.034 648.779L638.071 649.162L638.679 652.284L640.642 651.901ZM102.237 459.707L160.397 516.532L161.794 515.101L103.634 458.276L102.237 459.707ZM160.179 515.416L127.622 589.926L129.455 590.726L162.012 516.217L160.179 515.416ZM128.347 589.344L37.6303 607.029L38.013 608.992L128.73 591.307L128.347 589.344ZM38.5205 607.296L-19.6359 550.47L-21.0336 551.901L37.1228 608.726L38.5205 607.296ZM-19.4184 551.586L13.1349 477.077L11.3022 476.276L-21.2511 550.785L-19.4184 551.586ZM12.4099 477.658L103.127 459.973L102.744 458.01L12.0272 475.695L12.4099 477.658ZM104.42 454.171L9.02815 472.768L9.41084 474.731L104.803 456.134L104.42 454.171ZM8.30319 473.349L-25.9298 551.697L-24.0971 552.498L10.1358 474.149L8.30319 473.349ZM-25.7123 552.813L35.4419 612.56L36.8396 611.129L-24.3146 551.382L-25.7123 552.813ZM36.332 612.826L131.724 594.23L131.341 592.267L35.9494 610.863L36.332 612.826ZM132.449 593.649L166.687 515.305L164.854 514.505L130.616 592.848L132.449 593.649ZM166.469 514.19L105.31 454.437L103.913 455.868L165.072 515.62L166.469 514.19ZM153.612 605.683C154.023 607.788 152.303 610.19 149.318 610.772L149.701 612.735C153.425 612.009 156.258 608.804 155.575 605.301L153.612 605.683ZM149.318 610.772C146.333 611.354 143.837 609.774 143.427 607.669L141.464 608.052C142.147 611.555 145.976 613.461 149.701 612.735L149.318 610.772ZM143.427 607.669C143.017 605.565 144.736 603.163 147.721 602.581L147.339 600.618C143.614 601.344 140.781 604.548 141.464 608.052L143.427 607.669ZM147.721 602.581C150.706 601.999 153.202 603.579 153.612 605.683L155.575 605.301C154.892 601.797 151.063 599.892 147.339 600.618L147.721 602.581ZM187.618 529.776C188.028 531.88 186.308 534.282 183.323 534.864L183.706 536.827C187.431 536.101 190.264 532.896 189.581 529.393L187.618 529.776ZM183.323 534.864C180.338 535.446 177.842 533.866 177.432 531.761L175.469 532.144C176.152 535.647 179.981 537.553 183.706 536.827L183.323 534.864ZM177.432 531.761C177.022 529.657 178.742 527.255 181.726 526.673L181.344 524.71C177.619 525.436 174.786 528.64 175.469 532.144L177.432 531.761ZM181.726 526.673C184.711 526.091 187.208 527.671 187.618 529.776L189.581 529.393C188.898 525.889 185.068 523.984 181.344 524.71L181.726 526.673ZM341.5 569.056C341.91 571.16 340.19 573.562 337.205 574.144L337.588 576.107C341.313 575.381 344.146 572.176 343.463 568.673L341.5 569.056ZM337.205 574.144C334.22 574.726 331.724 573.146 331.314 571.041L329.351 571.424C330.034 574.927 333.863 576.833 337.588 576.107L337.205 574.144ZM331.314 571.041C330.904 568.937 332.624 566.535 335.608 565.953L335.226 563.99C331.501 564.716 328.668 567.92 329.351 571.424L331.314 571.041ZM335.608 565.953C338.593 565.371 341.089 566.951 341.5 569.056L343.463 568.673C342.78 565.169 338.95 563.264 335.226 563.99L335.608 565.953ZM618.238 515.106C618.648 517.211 616.929 519.613 613.944 520.195L614.326 522.158C618.051 521.432 620.884 518.227 620.201 514.724L618.238 515.106ZM613.944 520.195C610.959 520.777 608.463 519.196 608.053 517.092L606.09 517.475C606.773 520.978 610.602 522.884 614.326 522.158L613.944 520.195ZM608.053 517.092C607.642 514.988 609.362 512.586 612.347 512.004L611.964 510.041C608.24 510.767 605.407 513.971 606.09 517.475L608.053 517.092ZM612.347 512.004C615.332 511.422 617.828 513.002 618.238 515.106L620.201 514.724C619.518 511.22 615.689 509.315 611.964 510.041L612.347 512.004ZM518.983 745.583C519.393 747.687 517.673 750.089 514.689 750.671L515.071 752.634C518.796 751.908 521.629 748.704 520.946 745.2L518.983 745.583ZM514.689 750.671C511.704 751.253 509.208 749.673 508.797 747.569L506.834 747.951C507.517 751.455 511.347 753.36 515.071 752.634L514.689 750.671ZM508.797 747.569C508.387 745.464 510.107 743.062 513.092 742.48L512.709 740.517C508.984 741.243 506.151 744.448 506.834 747.951L508.797 747.569ZM513.092 742.48C516.077 741.898 518.573 743.479 518.983 745.583L520.946 745.2C520.263 741.697 516.434 739.791 512.709 740.517L513.092 742.48ZM366.435 703.738C366.846 705.843 365.126 708.245 362.141 708.826L362.524 710.79C366.248 710.063 369.081 706.859 368.398 703.355L366.435 703.738ZM362.141 708.826C359.156 709.408 356.66 707.828 356.25 705.724L354.287 706.106C354.97 709.61 358.799 711.516 362.524 710.79L362.141 708.826ZM356.25 705.724C355.84 703.619 357.559 701.217 360.544 700.635L360.162 698.672C356.437 699.398 353.604 702.603 354.287 706.106L356.25 705.724ZM360.544 700.635C363.529 700.054 366.025 701.634 366.435 703.738L368.398 703.355C367.715 699.852 363.886 697.946 360.162 698.672L360.544 700.635ZM738.158 631.272C738.568 633.377 736.849 635.779 733.864 636.361L734.246 638.324C737.971 637.597 740.804 634.393 740.121 630.89L738.158 631.272ZM733.864 636.361C730.879 636.942 728.383 635.362 727.973 633.258L726.009 633.641C726.692 637.144 730.522 639.05 734.246 638.324L733.864 636.361ZM727.973 633.258C727.562 631.153 729.282 628.751 732.267 628.169L731.884 626.206C728.16 626.933 725.326 630.137 726.009 633.641L727.973 633.258ZM732.267 628.169C735.252 627.588 737.748 629.168 738.158 631.272L740.121 630.89C739.438 627.386 735.609 625.48 731.884 626.206L732.267 628.169ZM644.446 649.541C644.856 651.645 643.136 654.048 640.151 654.629L640.534 656.592C644.259 655.866 647.092 652.662 646.409 649.158L644.446 649.541ZM640.151 654.629C637.166 655.211 634.67 653.631 634.26 651.527L632.297 651.909C632.98 655.413 636.809 657.319 640.534 656.592L640.151 654.629ZM634.26 651.527C633.85 649.422 635.57 647.02 638.555 646.438L638.172 644.475C634.447 645.201 631.614 648.406 632.297 651.909L634.26 651.527ZM638.555 646.438C641.539 645.856 644.036 647.437 644.446 649.541L646.409 649.158C645.726 645.655 641.896 643.749 638.172 644.475L638.555 646.438ZM252.538 351.131L308.9 406.204L310.298 404.774L253.936 349.701L252.538 351.131ZM308.683 405.088L277.133 477.293L278.965 478.094L310.516 405.889L308.683 405.088ZM277.858 476.712L189.943 493.851L190.326 495.814L278.24 478.675L277.858 476.712ZM190.833 494.117L134.468 439.051L133.071 440.481L189.435 495.547L190.833 494.117ZM134.686 440.167L166.238 367.955L164.406 367.154L132.853 439.366L134.686 440.167ZM165.513 368.536L253.428 351.398L253.045 349.435L165.131 366.573L165.513 368.536ZM254.721 345.592L162.131 363.643L162.514 365.606L255.104 347.555L254.721 345.592ZM161.406 364.224L128.177 440.274L130.01 441.075L163.239 365.024L161.406 364.224ZM128.395 441.39L187.755 499.384L189.153 497.954L129.793 439.959L128.395 441.39ZM188.645 499.65L281.235 481.6L280.853 479.637L188.263 497.687L188.645 499.65ZM281.96 481.019L315.19 404.975L313.357 404.174L280.128 480.218L281.96 481.019ZM314.972 403.859L255.611 345.859L254.213 347.289L313.575 405.29L314.972 403.859ZM-104.883 403.813L-48.5202 458.886L-47.1225 457.456L-103.485 402.383L-104.883 403.813ZM-48.7377 457.771L-80.2871 529.978L-78.4544 530.779L-46.905 458.571L-48.7377 457.771ZM-79.5621 529.397L-167.477 546.536L-167.094 548.499L-79.1794 531.36L-79.5621 529.397ZM-166.587 546.802L-222.952 491.733L-224.35 493.164L-167.985 548.233L-166.587 546.802ZM-222.735 492.849L-191.182 420.637L-193.015 419.836L-224.567 492.048L-222.735 492.849ZM-191.907 421.218L-103.992 404.08L-104.375 402.117L-192.29 419.255L-191.907 421.218ZM-102.699 398.278L-195.289 416.328L-194.906 418.291L-102.316 400.241L-102.699 398.278ZM-196.014 416.909L-229.243 492.959L-227.41 493.76L-194.181 417.71L-196.014 416.909ZM-229.025 494.075L-169.664 552.072L-168.267 550.642L-227.627 492.644L-229.025 494.075ZM-168.774 552.339L-76.1841 534.289L-76.5668 532.326L-169.157 550.376L-168.774 552.339ZM-75.4591 533.707L-42.2263 457.659L-44.059 456.858L-77.2918 532.907L-75.4591 533.707ZM-42.4438 456.544L-101.809 398.544L-103.206 399.974L-43.8415 457.974L-42.4438 456.544Z" fill="#FAEDED" mask="url(#path-2-inside-1)"/>
<path d="M1847.62 875.89L1688.37 637.611C1684.54 631.753 1675.74 626.909 1668.57 626.711L1382.05 613.21C1374.88 613.013 1372.46 617.413 1376.29 623.271L1535.23 860.932C1539.06 866.79 1547.86 871.634 1555.03 871.832L1841.54 885.333C1849.03 886.148 1851.46 881.748 1847.62 875.89Z" fill="#FFF3F3"/>
<path d="M1850.46 880.653L2005.44 622.877C2008.86 616.431 2010.41 606.109 2007.28 599.648L1891.21 327.982C1888.08 321.521 1882.85 320.863 1879.43 327.308L1724.45 585.084C1721.03 591.53 1719.48 601.852 1722.61 608.314L1838.68 879.979C1841.14 886.762 1847.03 887.098 1850.46 880.653Z" fill="url(#paint48_linear)"/>
<path d="M1813.77 386.703C1816.99 388.047 1817.26 390.732 1814.04 392.341L1786.64 408.171L1763.56 397.421L1770.81 393.128C1771.61 392.592 1771.62 391.518 1770.81 390.98L1756.31 384.53C1756.05 384.261 1755.51 384.53 1755.24 384.53L1746.91 389.359L1728.66 381.028L1759.55 363.32C1759.81 363.052 1760.35 363.052 1760.62 363.321L1813.77 386.703Z" fill="#F0DEDF"/>
<path d="M1792.82 411.128C1793.36 411.397 1793.36 412.202 1792.82 412.739L1778.59 421.056C1778.32 421.325 1778.05 421.325 1777.78 421.056L1770.54 417.562L1786.65 408.172L1792.82 411.128Z" fill="#E2CFCF"/>
<path d="M1786.65 408.168L1770.54 417.558L1747.45 406.809L1763.56 397.418L1786.65 408.168Z" fill="#E2CFCF"/>
<path d="M1770.54 417.574L1737.23 436.623C1735.09 437.965 1731.33 437.963 1728.91 437.156L1711.73 429.631C1710.92 429.362 1710.66 428.02 1711.73 427.483L1747.45 406.824L1770.54 417.574Z" fill="#F0DEDF"/>
<path d="M1763.56 397.426L1747.45 406.817L1730.8 398.755L1746.65 389.633L1763.56 397.426Z" fill="#E2CFCF"/>
<path d="M1746.65 389.63L1730.8 398.752L1712.55 390.421L1728.66 381.03L1746.65 389.63Z" fill="#F0DEDF"/>
<path d="M1740.76 354.463C1741.57 354.732 1741.83 356.074 1740.76 356.611L1711.76 373.245L1697.53 366.526L1724.12 351.234C1726.26 349.892 1730.02 349.625 1732.44 350.7L1740.76 354.463Z" fill="#F0DEDF"/>
<path d="M1730.81 398.744L1692.94 420.744C1692.67 421.013 1692.13 421.012 1691.86 420.744L1647.57 401.393C1644.35 400.049 1644.08 397.364 1647.31 395.486L1681.68 375.632L1695.91 382.351L1681.94 390.399C1681.14 390.936 1681.14 392.01 1681.94 392.547L1696.44 398.998C1696.71 399.266 1697.24 398.998 1697.51 398.998L1712.55 390.413L1730.81 398.744Z" fill="#F0DEDF"/>
<path d="M1728.66 381.033L1712.55 390.423L1695.9 382.63L1711.75 373.239L1728.66 381.033Z" fill="#E2CFCF"/>
<path d="M1711.75 373.237L1695.9 382.628L1681.68 375.909L1697.79 366.787L1711.75 373.237Z" fill="#E2CFCF"/>
<path d="M1689.74 363.024L1697.52 366.786L1681.68 375.908L1675.5 372.952C1674.97 372.683 1674.97 371.878 1675.5 371.341L1688.93 363.024C1689.2 363.024 1689.47 363.024 1689.74 363.024Z" fill="#E2CFCF"/>
<path d="M1658.79 454.32C1663.65 453.69 1665.86 456.765 1663.07 460.984L1640.91 499.454L1605.31 502.608L1611.11 492.3C1611.71 491.082 1610.96 489.777 1609.6 489.69L1587.46 492.034C1586.94 491.897 1586.48 492.6 1586.15 492.788L1579.43 504.503L1551.4 507.201L1576.49 463.997C1576.63 463.482 1577.28 463.105 1577.79 463.243L1658.79 454.32Z" fill="#F0DEDF"/>
<path d="M1650.48 498.713C1651.32 498.662 1651.89 499.641 1651.61 500.671L1640.16 520.772C1640.02 521.287 1639.7 521.475 1639.18 521.338L1627.92 522.184L1640.91 499.458L1650.48 498.713Z" fill="#E2CFCF"/>
<path d="M1640.9 499.447L1627.92 522.172L1592.32 525.326L1605.3 502.6L1640.9 499.447Z" fill="#E2CFCF"/>
<path d="M1627.93 522.189L1600.85 568.721C1599.18 571.859 1594.61 574.497 1591.11 575.215L1564.95 578.138C1563.78 578.377 1562.52 576.934 1563.44 575.528L1592.33 525.343L1627.93 522.189Z" fill="#F0DEDF"/>
<path d="M1605.31 502.617L1592.33 525.343L1566.45 527.237L1579.29 505.026L1605.31 502.617Z" fill="#E2CFCF"/>
<path d="M1579.3 505.026L1566.45 527.237L1538.42 529.935L1551.41 507.21L1579.3 505.026Z" fill="#F0DEDF"/>
<path d="M1547.42 466.424C1548.59 466.185 1549.86 467.628 1548.93 469.035L1525.38 509.615L1503.37 511.445L1524.93 474.192C1526.6 471.053 1530.98 468.089 1534.67 467.698L1547.42 466.424Z" fill="#F0DEDF"/>
<path d="M1566.44 527.213L1535.88 580.537C1535.75 581.051 1535.09 581.428 1534.58 581.29L1467.17 588.889C1462.32 589.519 1460.11 586.445 1462.7 581.9L1490.52 533.636L1512.53 531.806L1501.21 551.393C1500.61 552.61 1501.36 553.916 1502.72 554.003L1524.86 551.658C1525.38 551.796 1525.84 551.093 1526.17 550.905L1538.41 529.911L1566.44 527.213Z" fill="#F0DEDF"/>
<path d="M1551.4 507.213L1538.41 529.939L1512.72 532.159L1525.38 509.622L1551.4 507.213Z" fill="#E2CFCF"/>
<path d="M1525.38 509.616L1512.73 532.153L1490.72 533.983L1503.89 511.584L1525.38 509.616Z" fill="#E2CFCF"/>
<path d="M1491.45 512.662L1503.55 511.766L1490.71 533.977L1481.13 534.721C1480.29 534.772 1479.73 533.793 1480 532.764L1490.48 513.227C1490.8 513.039 1491.13 512.851 1491.45 512.662Z" fill="#E2CFCF"/>
<path d="M1535.01 416.605C1537.41 419.133 1536.58 421.698 1532.98 421.872L1501.53 425.319L1484.73 406.177L1493.1 405.17C1494.05 405.004 1494.49 404.021 1493.97 403.205L1483.3 391.459C1483.16 391.105 1482.56 391.134 1482.32 391.026L1472.75 392.091L1459.4 377.109L1494.8 373.351C1495.16 373.213 1495.65 373.43 1495.79 373.784L1535.01 416.605Z" fill="#F0DEDF"/>
<path d="M1505.99 430.514C1506.37 430.976 1506.04 431.713 1505.34 431.988L1488.96 433.863C1488.6 434.001 1488.36 433.892 1488.22 433.538L1482.99 427.42L1501.53 425.32L1505.99 430.514Z" fill="#E2CFCF"/>
<path d="M1501.53 425.315L1483 427.415L1466.21 408.273L1484.74 406.173L1501.53 425.315Z" fill="#E2CFCF"/>
<path d="M1482.99 427.434L1444.84 431.446C1442.33 431.808 1438.89 430.291 1437.01 428.579L1424.32 414.768C1423.69 414.197 1423.98 412.861 1425.18 412.803L1466.2 408.291L1482.99 427.434Z" fill="#F0DEDF"/>
<path d="M1484.73 406.184L1466.2 408.284L1454.22 394.198L1472.4 392.235L1484.73 406.184Z" fill="#E2CFCF"/>
<path d="M1472.4 392.231L1454.22 394.194L1440.87 379.212L1459.4 377.112L1472.4 392.231Z" fill="#F0DEDF"/>
<path d="M1481.18 357.662C1481.81 358.233 1481.51 359.57 1480.31 359.628L1447.06 363.162L1436.75 351.279L1467.24 347.999C1469.75 347.637 1473.3 348.908 1475.08 350.865L1481.18 357.662Z" fill="#F0DEDF"/>
<path d="M1454.22 394.176L1410.7 399.049C1410.35 399.186 1409.85 398.969 1409.72 398.615L1376.98 363.054C1374.57 360.526 1375.41 357.961 1379.12 357.541L1418.58 353.225L1428.89 365.108L1412.87 366.846C1411.91 367.012 1411.48 367.995 1412 368.811L1422.67 380.557C1422.8 380.911 1423.4 380.882 1423.65 380.99L1440.87 379.194L1454.22 394.176Z" fill="#F0DEDF"/>
<path d="M1459.4 377.107L1440.87 379.207L1428.78 365.366L1447.06 363.158L1459.4 377.107Z" fill="#E2CFCF"/>
<path d="M1447.06 363.167L1428.78 365.375L1418.47 353.493L1436.89 351.639L1447.06 363.167Z" fill="#E2CFCF"/>
<path d="M1431.03 344.938L1436.64 351.519L1418.46 353.481L1414.01 348.288C1413.62 347.825 1413.95 347.088 1414.66 346.814L1430.3 344.613C1430.54 344.722 1430.79 344.83 1431.03 344.938Z" fill="#E2CFCF"/>
<path d="M1658.18 201.362C1660.87 199.139 1663.37 200.155 1663.29 203.756L1664.51 235.371L1644.24 250.778L1643.82 242.361C1643.72 241.398 1642.77 240.897 1641.92 241.359L1629.46 251.173C1629.09 251.285 1629.08 251.885 1628.95 252.122L1629.34 261.739L1613.46 274L1612.2 238.421C1612.09 238.059 1612.34 237.584 1612.7 237.472L1658.18 201.362Z" fill="#F0DEDF"/>
<path d="M1670 231.288C1670.49 230.938 1671.2 231.314 1671.43 232.04L1672.15 248.51C1672.26 248.873 1672.13 249.11 1671.77 249.222L1665.3 254.004L1664.51 235.37L1670 231.288Z" fill="#E2CFCF"/>
<path d="M1664.51 235.371L1665.3 254.004L1645.02 269.411L1644.23 250.778L1664.51 235.371Z" fill="#E2CFCF"/>
<path d="M1665.31 254.009L1666.63 292.352C1666.81 294.878 1665.06 298.202 1663.22 299.963L1648.55 311.65C1647.94 312.237 1646.62 311.848 1646.65 310.648L1645.04 269.416L1665.31 254.009Z" fill="#F0DEDF"/>
<path d="M1644.24 250.785L1645.03 269.418L1630.14 280.38L1629.46 262.109L1644.24 250.785Z" fill="#E2CFCF"/>
<path d="M1629.47 262.11L1630.14 280.381L1614.26 292.642L1613.47 274.008L1629.47 262.11Z" fill="#F0DEDF"/>
<path d="M1595.59 250.914C1596.21 250.327 1597.52 250.717 1597.49 251.917L1598.68 285.332L1586.1 294.783L1584.97 264.132C1584.79 261.606 1586.31 258.156 1588.38 256.52L1595.59 250.914Z" fill="#F0DEDF"/>
<path d="M1630.13 280.376L1631.93 324.134C1632.04 324.497 1631.79 324.972 1631.42 325.084L1593.65 355.238C1590.96 357.461 1588.46 356.445 1588.3 352.718L1586.77 313.05L1599.35 303.599L1599.96 319.706C1600.05 320.669 1601 321.17 1601.86 320.709L1614.32 310.895C1614.69 310.783 1614.7 310.182 1614.82 309.945L1614.24 292.637L1630.13 280.376Z" fill="#F0DEDF"/>
<path d="M1613.47 274.011L1614.26 292.645L1599.6 303.732L1598.68 285.335L1613.47 274.011Z" fill="#E2CFCF"/>
<path d="M1598.68 285.323L1599.59 303.719L1587.01 313.171L1586.46 294.662L1598.68 285.323Z" fill="#E2CFCF"/>
<path d="M1579.37 300.032L1586.33 294.901L1587.01 313.172L1581.51 317.254C1581.02 317.604 1580.31 317.228 1580.09 316.502L1578.99 300.744C1579.12 300.507 1579.24 300.269 1579.37 300.032Z" fill="#E2CFCF"/>
<path d="M1495.17 263.308C1496.86 264.651 1496.57 266.296 1494.38 266.713L1475.39 271.533L1463.44 261.239L1468.48 259.902C1469.05 259.718 1469.23 259.078 1468.84 258.622L1461.29 252.337C1461.18 252.132 1460.81 252.201 1460.65 252.156L1454.88 253.632L1445.4 245.593L1466.79 240.242C1466.99 240.127 1467.31 240.218 1467.43 240.423L1495.17 263.308Z" fill="#F0DEDF"/>
<path d="M1478.55 274.319C1478.83 274.57 1478.69 275.05 1478.28 275.279L1468.4 277.838C1468.19 277.953 1468.03 277.908 1467.92 277.703L1464.19 274.4L1475.37 271.518L1478.55 274.319Z" fill="#E2CFCF"/>
<path d="M1475.38 271.531L1464.2 274.414L1452.25 264.12L1463.43 261.238L1475.38 271.531Z" fill="#E2CFCF"/>
<path d="M1464.2 274.415L1441.14 280.158C1439.64 280.596 1437.4 279.962 1436.09 279.074L1427.12 271.696C1426.69 271.401 1426.76 270.555 1427.49 270.417L1452.25 264.121L1464.2 274.415Z" fill="#F0DEDF"/>
<path d="M1463.43 261.242L1452.25 264.125L1443.69 256.517L1454.67 253.75L1463.43 261.242Z" fill="#E2CFCF"/>
<path d="M1454.67 253.742L1443.69 256.509L1434.21 248.47L1445.4 245.588L1454.67 253.742Z" fill="#F0DEDF"/>
<path d="M1457.07 231.777C1457.5 232.073 1457.44 232.918 1456.71 233.057L1436.62 238.085L1429.27 231.685L1447.69 227.05C1449.2 226.612 1451.49 227.086 1452.74 228.134L1457.07 231.777Z" fill="#F0DEDF"/>
<path d="M1443.69 256.503L1417.42 263.236C1417.21 263.351 1416.89 263.261 1416.78 263.055L1393.64 244.065C1391.95 242.721 1392.24 241.076 1394.48 240.5L1418.3 234.458L1425.65 240.857L1415.97 243.302C1415.4 243.486 1415.22 244.126 1415.61 244.582L1423.16 250.867C1423.28 251.072 1423.64 251.003 1423.8 251.048L1434.21 248.464L1443.69 256.503Z" fill="#F0DEDF"/>
<path d="M1445.4 245.586L1434.21 248.468L1425.61 241.021L1436.63 238.094L1445.4 245.586Z" fill="#E2CFCF"/>
<path d="M1436.63 238.083L1425.6 241.011L1418.26 234.611L1429.4 231.889L1436.63 238.083Z" fill="#E2CFCF"/>
<path d="M1425.24 228.311L1429.25 231.864L1418.27 234.631L1415.09 231.83C1414.81 231.579 1414.95 231.1 1415.36 230.87L1424.76 228.175C1424.92 228.22 1425.08 228.266 1425.24 228.311Z" fill="#E2CFCF"/>
</g>
<defs>
<linearGradient id="paint0_linear" x1="-146.5" y1="712" x2="772.033" y2="60.5464" gradientUnits="userSpaceOnUse">
<stop offset="0.317614" stop-color="#B1ADAD"/>
<stop offset="0.621003" stop-color="#F8CBCB" stop-opacity="0.49"/>
</linearGradient>
<linearGradient id="paint1_linear" x1="-146.5" y1="712" x2="772.033" y2="60.5464" gradientUnits="userSpaceOnUse">
<stop offset="0.317614" stop-color="#B1ADAD"/>
<stop offset="0.621003" stop-color="#F8CBCB" stop-opacity="0.49"/>
</linearGradient>
<linearGradient id="paint2_linear" x1="-146.5" y1="712" x2="772.033" y2="60.5464" gradientUnits="userSpaceOnUse">
<stop offset="0.317614" stop-color="#B1ADAD"/>
<stop offset="0.621003" stop-color="#F8CBCB" stop-opacity="0.49"/>
</linearGradient>
<linearGradient id="paint3_linear" x1="-146.5" y1="712" x2="772.033" y2="60.5464" gradientUnits="userSpaceOnUse">
<stop offset="0.317614" stop-color="#B1ADAD"/>
<stop offset="0.621003" stop-color="#F8CBCB" stop-opacity="0.49"/>
</linearGradient>
<linearGradient id="paint4_linear" x1="-146.5" y1="712" x2="772.033" y2="60.5464" gradientUnits="userSpaceOnUse">
<stop offset="0.317614" stop-color="#B1ADAD"/>
<stop offset="0.621003" stop-color="#F8CBCB" stop-opacity="0.49"/>
</linearGradient>
<linearGradient id="paint5_linear" x1="-146.5" y1="712" x2="772.033" y2="60.5464" gradientUnits="userSpaceOnUse">
<stop offset="0.317614" stop-color="#B1ADAD"/>
<stop offset="0.621003" stop-color="#F8CBCB" stop-opacity="0.49"/>
</linearGradient>
<linearGradient id="paint6_linear" x1="-146.5" y1="712" x2="772.033" y2="60.5464" gradientUnits="userSpaceOnUse">
<stop offset="0.317614" stop-color="#B1ADAD"/>
<stop offset="0.621003" stop-color="#F8CBCB" stop-opacity="0.49"/>
</linearGradient>
<linearGradient id="paint7_linear" x1="-146.5" y1="712" x2="772.033" y2="60.5464" gradientUnits="userSpaceOnUse">
<stop offset="0.317614" stop-color="#B1ADAD"/>
<stop offset="0.621003" stop-color="#F8CBCB" stop-opacity="0.49"/>
</linearGradient>
<linearGradient id="paint8_linear" x1="-146.5" y1="712" x2="772.033" y2="60.5464" gradientUnits="userSpaceOnUse">
<stop offset="0.317614" stop-color="#B1ADAD"/>
<stop offset="0.621003" stop-color="#F8CBCB" stop-opacity="0.49"/>
</linearGradient>
<linearGradient id="paint9_linear" x1="-146.5" y1="712" x2="772.033" y2="60.5464" gradientUnits="userSpaceOnUse">
<stop offset="0.317614" stop-color="#B1ADAD"/>
<stop offset="0.621003" stop-color="#F8CBCB" stop-opacity="0.49"/>
</linearGradient>
<linearGradient id="paint10_linear" x1="-146.5" y1="712" x2="772.033" y2="60.5464" gradientUnits="userSpaceOnUse">
<stop offset="0.317614" stop-color="#B1ADAD"/>
<stop offset="0.621003" stop-color="#F8CBCB" stop-opacity="0.49"/>
</linearGradient>
<linearGradient id="paint11_linear" x1="-146.5" y1="712" x2="772.033" y2="60.5464" gradientUnits="userSpaceOnUse">
<stop offset="0.317614" stop-color="#B1ADAD"/>
<stop offset="0.621003" stop-color="#F8CBCB" stop-opacity="0.49"/>
</linearGradient>
<linearGradient id="paint12_linear" x1="-146.5" y1="712" x2="772.033" y2="60.5464" gradientUnits="userSpaceOnUse">
<stop offset="0.317614" stop-color="#B1ADAD"/>
<stop offset="0.621003" stop-color="#F8CBCB" stop-opacity="0.49"/>
</linearGradient>
<linearGradient id="paint13_linear" x1="-146.5" y1="712" x2="772.033" y2="60.5464" gradientUnits="userSpaceOnUse">
<stop offset="0.317614" stop-color="#B1ADAD"/>
<stop offset="0.621003" stop-color="#F8CBCB" stop-opacity="0.49"/>
</linearGradient>
<linearGradient id="paint14_linear" x1="-146.5" y1="712" x2="772.033" y2="60.5464" gradientUnits="userSpaceOnUse">
<stop offset="0.317614" stop-color="#B1ADAD"/>
<stop offset="0.621003" stop-color="#F8CBCB" stop-opacity="0.49"/>
</linearGradient>
<linearGradient id="paint15_linear" x1="-146.5" y1="712" x2="772.033" y2="60.5464" gradientUnits="userSpaceOnUse">
<stop offset="0.317614" stop-color="#B1ADAD"/>
<stop offset="0.621003" stop-color="#F8CBCB" stop-opacity="0.49"/>
</linearGradient>
<linearGradient id="paint16_linear" x1="-146.5" y1="712" x2="772.033" y2="60.5464" gradientUnits="userSpaceOnUse">
<stop offset="0.317614" stop-color="#B1ADAD"/>
<stop offset="0.621003" stop-color="#F8CBCB" stop-opacity="0.49"/>
</linearGradient>
<linearGradient id="paint17_linear" x1="-146.5" y1="712" x2="772.033" y2="60.5464" gradientUnits="userSpaceOnUse">
<stop offset="0.317614" stop-color="#B1ADAD"/>
<stop offset="0.621003" stop-color="#F8CBCB" stop-opacity="0.49"/>
</linearGradient>
<linearGradient id="paint18_linear" x1="-146.5" y1="712" x2="772.033" y2="60.5464" gradientUnits="userSpaceOnUse">
<stop offset="0.317614" stop-color="#B1ADAD"/>
<stop offset="0.621003" stop-color="#F8CBCB" stop-opacity="0.49"/>
</linearGradient>
<linearGradient id="paint19_linear" x1="-146.5" y1="712" x2="772.033" y2="60.5464" gradientUnits="userSpaceOnUse">
<stop offset="0.317614" stop-color="#B1ADAD"/>
<stop offset="0.621003" stop-color="#F8CBCB" stop-opacity="0.49"/>
</linearGradient>
<linearGradient id="paint20_linear" x1="-146.5" y1="712" x2="772.033" y2="60.5464" gradientUnits="userSpaceOnUse">
<stop offset="0.317614" stop-color="#B1ADAD"/>
<stop offset="0.621003" stop-color="#F8CBCB" stop-opacity="0.49"/>
</linearGradient>
<linearGradient id="paint21_linear" x1="-146.5" y1="712" x2="772.033" y2="60.5464" gradientUnits="userSpaceOnUse">
<stop offset="0.317614" stop-color="#B1ADAD"/>
<stop offset="0.621003" stop-color="#F8CBCB" stop-opacity="0.49"/>
</linearGradient>
<linearGradient id="paint22_linear" x1="-146.5" y1="712" x2="772.033" y2="60.5464" gradientUnits="userSpaceOnUse">
<stop offset="0.317614" stop-color="#B1ADAD"/>
<stop offset="0.621003" stop-color="#F8CBCB" stop-opacity="0.49"/>
</linearGradient>
<linearGradient id="paint23_linear" x1="-146.5" y1="712" x2="772.033" y2="60.5464" gradientUnits="userSpaceOnUse">
<stop offset="0.317614" stop-color="#B1ADAD"/>
<stop offset="0.621003" stop-color="#F8CBCB" stop-opacity="0.49"/>
</linearGradient>
<linearGradient id="paint24_linear" x1="-146.5" y1="712" x2="772.033" y2="60.5464" gradientUnits="userSpaceOnUse">
<stop offset="0.317614" stop-color="#B1ADAD"/>
<stop offset="0.621003" stop-color="#F8CBCB" stop-opacity="0.49"/>
</linearGradient>
<linearGradient id="paint25_linear" x1="-146.5" y1="712" x2="772.033" y2="60.5464" gradientUnits="userSpaceOnUse">
<stop offset="0.317614" stop-color="#B1ADAD"/>
<stop offset="0.621003" stop-color="#F8CBCB" stop-opacity="0.49"/>
</linearGradient>
<linearGradient id="paint26_linear" x1="-146.5" y1="712" x2="772.033" y2="60.5464" gradientUnits="userSpaceOnUse">
<stop offset="0.317614" stop-color="#B1ADAD"/>
<stop offset="0.621003" stop-color="#F8CBCB" stop-opacity="0.49"/>
</linearGradient>
<linearGradient id="paint27_linear" x1="-146.5" y1="712" x2="772.033" y2="60.5464" gradientUnits="userSpaceOnUse">
<stop offset="0.317614" stop-color="#B1ADAD"/>
<stop offset="0.621003" stop-color="#F8CBCB" stop-opacity="0.49"/>
</linearGradient>
<linearGradient id="paint28_linear" x1="-146.5" y1="712" x2="772.033" y2="60.5464" gradientUnits="userSpaceOnUse">
<stop offset="0.317614" stop-color="#B1ADAD"/>
<stop offset="0.621003" stop-color="#F8CBCB" stop-opacity="0.49"/>
</linearGradient>
<linearGradient id="paint29_linear" x1="-146.5" y1="712" x2="772.033" y2="60.5464" gradientUnits="userSpaceOnUse">
<stop offset="0.317614" stop-color="#B1ADAD"/>
<stop offset="0.621003" stop-color="#F8CBCB" stop-opacity="0.49"/>
</linearGradient>
<linearGradient id="paint30_linear" x1="-146.5" y1="712" x2="772.033" y2="60.5464" gradientUnits="userSpaceOnUse">
<stop offset="0.317614" stop-color="#B1ADAD"/>
<stop offset="0.621003" stop-color="#F8CBCB" stop-opacity="0.49"/>
</linearGradient>
<linearGradient id="paint31_linear" x1="-146.5" y1="712" x2="772.033" y2="60.5464" gradientUnits="userSpaceOnUse">
<stop offset="0.317614" stop-color="#B1ADAD"/>
<stop offset="0.621003" stop-color="#F8CBCB" stop-opacity="0.49"/>
</linearGradient>
<linearGradient id="paint32_linear" x1="-146.5" y1="712" x2="772.033" y2="60.5464" gradientUnits="userSpaceOnUse">
<stop offset="0.317614" stop-color="#B1ADAD"/>
<stop offset="0.621003" stop-color="#F8CBCB" stop-opacity="0.49"/>
</linearGradient>
<linearGradient id="paint33_linear" x1="-146.5" y1="712" x2="772.033" y2="60.5464" gradientUnits="userSpaceOnUse">
<stop offset="0.317614" stop-color="#B1ADAD"/>
<stop offset="0.621003" stop-color="#F8CBCB" stop-opacity="0.49"/>
</linearGradient>
<linearGradient id="paint34_linear" x1="-146.5" y1="712" x2="772.033" y2="60.5464" gradientUnits="userSpaceOnUse">
<stop offset="0.317614" stop-color="#B1ADAD"/>
<stop offset="0.621003" stop-color="#F8CBCB" stop-opacity="0.49"/>
</linearGradient>
<linearGradient id="paint35_linear" x1="-146.5" y1="712" x2="772.033" y2="60.5464" gradientUnits="userSpaceOnUse">
<stop offset="0.317614" stop-color="#B1ADAD"/>
<stop offset="0.621003" stop-color="#F8CBCB" stop-opacity="0.49"/>
</linearGradient>
<linearGradient id="paint36_linear" x1="-146.5" y1="712" x2="772.033" y2="60.5464" gradientUnits="userSpaceOnUse">
<stop offset="0.317614" stop-color="#B1ADAD"/>
<stop offset="0.621003" stop-color="#F8CBCB" stop-opacity="0.49"/>
</linearGradient>
<linearGradient id="paint37_linear" x1="-146.5" y1="712" x2="772.033" y2="60.5464" gradientUnits="userSpaceOnUse">
<stop offset="0.317614" stop-color="#B1ADAD"/>
<stop offset="0.621003" stop-color="#F8CBCB" stop-opacity="0.49"/>
</linearGradient>
<linearGradient id="paint38_linear" x1="-146.5" y1="712" x2="772.033" y2="60.5464" gradientUnits="userSpaceOnUse">
<stop offset="0.317614" stop-color="#B1ADAD"/>
<stop offset="0.621003" stop-color="#F8CBCB" stop-opacity="0.49"/>
</linearGradient>
<linearGradient id="paint39_linear" x1="-146.5" y1="712" x2="772.033" y2="60.5464" gradientUnits="userSpaceOnUse">
<stop offset="0.317614" stop-color="#B1ADAD"/>
<stop offset="0.621003" stop-color="#F8CBCB" stop-opacity="0.49"/>
</linearGradient>
<linearGradient id="paint40_linear" x1="-146.5" y1="712" x2="772.033" y2="60.5464" gradientUnits="userSpaceOnUse">
<stop offset="0.317614" stop-color="#B1ADAD"/>
<stop offset="0.621003" stop-color="#F8CBCB" stop-opacity="0.49"/>
</linearGradient>
<linearGradient id="paint41_linear" x1="-146.5" y1="712" x2="772.033" y2="60.5464" gradientUnits="userSpaceOnUse">
<stop offset="0.317614" stop-color="#B1ADAD"/>
<stop offset="0.621003" stop-color="#F8CBCB" stop-opacity="0.49"/>
</linearGradient>
<linearGradient id="paint42_linear" x1="-146.5" y1="712" x2="772.033" y2="60.5464" gradientUnits="userSpaceOnUse">
<stop offset="0.317614" stop-color="#B1ADAD"/>
<stop offset="0.621003" stop-color="#F8CBCB" stop-opacity="0.49"/>
</linearGradient>
<linearGradient id="paint43_linear" x1="-146.5" y1="712" x2="772.033" y2="60.5464" gradientUnits="userSpaceOnUse">
<stop offset="0.317614" stop-color="#B1ADAD"/>
<stop offset="0.621003" stop-color="#F8CBCB" stop-opacity="0.49"/>
</linearGradient>
<linearGradient id="paint44_linear" x1="-146.5" y1="712" x2="772.033" y2="60.5464" gradientUnits="userSpaceOnUse">
<stop offset="0.317614" stop-color="#B1ADAD"/>
<stop offset="0.621003" stop-color="#F8CBCB" stop-opacity="0.49"/>
</linearGradient>
<linearGradient id="paint45_linear" x1="-146.5" y1="712" x2="772.033" y2="60.5464" gradientUnits="userSpaceOnUse">
<stop offset="0.317614" stop-color="#B1ADAD"/>
<stop offset="0.621003" stop-color="#F8CBCB" stop-opacity="0.49"/>
</linearGradient>
<linearGradient id="paint46_linear" x1="-146.5" y1="712" x2="772.033" y2="60.5464" gradientUnits="userSpaceOnUse">
<stop offset="0.317614" stop-color="#B1ADAD"/>
<stop offset="0.621003" stop-color="#F8CBCB" stop-opacity="0.49"/>
</linearGradient>
<linearGradient id="paint47_linear" x1="-146.5" y1="712" x2="772.033" y2="60.5464" gradientUnits="userSpaceOnUse">
<stop offset="0.317614" stop-color="#B1ADAD"/>
<stop offset="0.621003" stop-color="#F8CBCB" stop-opacity="0.49"/>
</linearGradient>
<linearGradient id="paint48_linear" x1="1735.37" y1="666.886" x2="1995.21" y2="541.005" gradientUnits="userSpaceOnUse">
<stop offset="0.3007" stop-color="#E9C7CC"/>
<stop offset="1" stop-color="#FFFCFC"/>
</linearGradient>
</defs>
</svg>
