<svg width="1920" height="1143" viewBox="0 0 1920 1143" fill="none" xmlns="http://www.w3.org/2000/svg">
<mask id="path-1-inside-1" fill="white">
<path d="M96.2004 330.117L-22.9204 353.339L-99.9649 278.066L-57.2127 180.227L-53.776 181.131L-95.7746 277.25L-21.4171 349.894L95.6085 327.081L96.2004 330.117Z"/>
<path d="M164.271 670.929L160.833 670.022L203.213 573.045L206.645 573.947L164.271 670.929Z"/>
<path d="M290.59 380.937L170.42 404.363L93.3753 329.09L136.505 230.393L256.675 206.966L333.716 282.237L290.59 380.937ZM171.921 400.925L287.9 378.315L329.526 283.057L255.168 210.412L139.189 233.022L97.5663 328.277L171.921 400.925Z"/>
<path d="M323.914 551.876L203.744 575.303L127.373 500.689L130.218 498.56L205.244 571.862L321.224 549.252L362.849 453.994L287.823 380.692L290.668 378.56L367.04 453.177L323.914 551.876Z"/>
<path d="M130.573 500.849L10.4031 524.276L-66.6414 449.003L-23.5123 350.303L95.6085 327.081L96.2004 330.117L-20.8251 352.931L-62.4511 448.186L11.907 520.834L127.887 498.224L169.889 402.105L173.323 403.014L130.573 500.849Z"/>
<path d="M484.491 431.071L481.054 430.166L523.052 334.045L448.694 261.4L331.669 284.214L331.077 281.177L450.201 257.954L527.242 333.228L484.491 431.071Z"/>
<path d="M451.167 260.131L447.729 259.223L490.106 162.25L493.542 163.152L451.167 260.131Z"/>
<path d="M726.626 292.788L524.852 332.123L525.443 335.153L727.217 295.818L726.626 292.788Z"/>
<path d="M-64.8413 447.081L-347.621 502.208L-347.031 505.238L-64.2506 450.112L-64.8413 447.081Z"/>
<path d="M130.189 504.465C133.445 503.83 135.655 501.109 135.124 498.388C134.593 495.666 131.524 493.975 128.268 494.609C125.011 495.244 122.802 497.965 123.333 500.687C123.863 503.408 126.933 505.1 130.189 504.465Z"/>
<path d="M12.1139 527.483C15.37 526.849 17.5795 524.128 17.0489 521.406C16.5184 518.685 13.4487 516.993 10.1925 517.628C6.93643 518.262 4.72695 520.983 5.25752 523.705C5.78808 526.426 8.85777 528.118 12.1139 527.483Z"/>
<path d="M163.512 675.402C166.769 674.767 168.978 672.046 168.447 669.325C167.917 666.603 164.847 664.911 161.591 665.546C158.335 666.181 156.125 668.902 156.656 671.623C157.187 674.345 160.256 676.037 163.512 675.402Z"/>
<path d="M172.564 407.486C175.82 406.851 178.03 404.13 177.499 401.409C176.969 398.687 173.899 396.996 170.643 397.63C167.387 398.265 165.177 400.986 165.708 403.708C166.238 406.429 169.308 408.121 172.564 407.486Z"/>
<path d="M205.888 578.426C209.145 577.791 211.354 575.07 210.823 572.349C210.293 569.627 207.223 567.935 203.967 568.57C200.711 569.205 198.501 571.926 199.032 574.647C199.563 577.369 202.632 579.061 205.888 578.426Z"/>
<path d="M291.164 384.366C294.42 383.731 296.63 381.01 296.099 378.288C295.568 375.567 292.499 373.875 289.243 374.51C285.987 375.145 283.777 377.865 284.308 380.587C284.838 383.309 287.908 385 291.164 384.366Z"/>
<path d="M257.841 213.429C261.097 212.794 263.306 210.073 262.776 207.352C262.245 204.63 259.175 202.938 255.919 203.573C252.663 204.208 250.454 206.929 250.984 209.65C251.515 212.372 254.584 214.064 257.841 213.429Z"/>
<path d="M138.807 236.634C142.063 235.999 144.273 233.278 143.742 230.557C143.212 227.835 140.142 226.143 136.886 226.778C133.63 227.413 131.42 230.134 131.951 232.855C132.481 235.577 135.551 237.269 138.807 236.634Z"/>
<path d="M526.108 338.564C529.364 337.929 531.573 335.208 531.043 332.487C530.512 329.765 527.443 328.074 524.187 328.708C520.93 329.343 518.721 332.064 519.251 334.786C519.782 337.507 522.852 339.199 526.108 338.564Z"/>
<path d="M727.882 299.229C731.138 298.594 733.347 295.873 732.817 293.152C732.286 290.43 729.216 288.739 725.96 289.373C722.704 290.008 720.495 292.729 721.025 295.451C721.556 298.172 724.626 299.864 727.882 299.229Z"/>
<path d="M-63.5856 453.523C-60.3295 452.888 -58.12 450.167 -58.6506 447.445C-59.1811 444.724 -62.2508 443.032 -65.5069 443.667C-68.7631 444.302 -70.9725 447.023 -70.442 449.744C-69.9114 452.466 -66.8417 454.157 -63.5856 453.523Z"/>
<path d="M96.8655 333.528C100.122 332.894 102.331 330.173 101.8 327.451C101.27 324.73 98.2002 323.038 94.9441 323.673C91.688 324.307 89.4785 327.028 90.0091 329.75C90.5396 332.471 93.6093 334.163 96.8655 333.528Z"/>
<path d="M-21.2096 356.547C-17.9535 355.912 -15.744 353.191 -16.2745 350.469C-16.8051 347.748 -19.8748 346.056 -23.1309 346.691C-26.387 347.326 -28.5965 350.047 -28.066 352.768C-27.5354 355.49 -24.4657 357.181 -21.2096 356.547Z"/>
<path d="M450.223 264.643C453.479 264.008 455.689 261.287 455.158 258.565C454.628 255.844 451.558 254.152 448.302 254.787C445.046 255.422 442.836 258.143 443.367 260.864C443.897 263.586 446.967 265.277 450.223 264.643Z"/>
<path d="M492.784 167.627C496.04 166.993 498.25 164.272 497.719 161.55C497.189 158.829 494.119 157.137 490.863 157.772C487.607 158.406 485.397 161.127 485.928 163.849C486.458 166.57 489.528 168.262 492.784 167.627Z"/>
<path d="M332.148 287.661C335.404 287.026 337.614 284.305 337.083 281.584C336.553 278.862 333.483 277.17 330.227 277.805C326.971 278.44 324.761 281.161 325.292 283.882C325.822 286.604 328.892 288.296 332.148 287.661Z"/>
<path d="M324.488 555.305C327.744 554.671 329.954 551.95 329.423 549.228C328.893 546.507 325.823 544.815 322.567 545.45C319.311 546.084 317.101 548.805 317.632 551.527C318.162 554.248 321.232 555.94 324.488 555.305Z"/>
<path d="M365.472 458.598C368.728 457.963 370.937 455.242 370.407 452.52C369.876 449.799 366.806 448.107 363.55 448.742C360.294 449.377 358.085 452.098 358.615 454.819C359.146 457.541 362.215 459.232 365.472 458.598Z"/>
<path d="M483.546 435.579C486.803 434.945 489.012 432.224 488.482 429.502C487.951 426.781 484.881 425.089 481.625 425.724C478.369 426.358 476.16 429.079 476.69 431.801C477.221 434.522 480.29 436.214 483.546 435.579Z"/>
<path d="M-96.9091 282.586C-93.653 281.951 -91.4435 279.23 -91.974 276.509C-92.5046 273.787 -95.5743 272.095 -98.8304 272.73C-102.087 273.365 -104.296 276.086 -103.765 278.807C-103.235 281.529 -100.165 283.221 -96.9091 282.586Z"/>
<path d="M-54.2611 187.005C-51.005 186.37 -48.7955 183.649 -49.3261 180.928C-49.8566 178.206 -52.9263 176.514 -56.1825 177.149C-59.4386 177.784 -61.6481 180.505 -61.1175 183.226C-60.5869 185.948 -57.5173 187.64 -54.2611 187.005Z"/>
<path d="M924.292 620.766L829.399 639.265L768.562 579.826L802.618 501.888L897.511 483.389L958.348 542.828L924.292 620.766ZM830.947 635.72L921.526 618.062L954.033 543.669L895.963 486.935L805.384 504.592L772.876 578.985L830.947 635.72Z"/>
<path d="M519.536 769.14L425.722 787.429L364.88 727.984L398.55 650.937L402.093 651.865L369.198 727.143L427.269 783.88L518.926 766.012L519.536 769.14Z"/>
<path d="M672.461 809.002L577.568 827.501L516.731 768.062L550.787 690.124L645.68 671.625L706.517 731.064L672.461 809.002ZM579.117 823.958L669.695 806.3L702.203 731.908L644.132 675.173L553.554 692.831L521.046 767.224L579.117 823.958Z"/>
<path d="M729.063 866.838L669.613 808.748L672.544 806.554L731.998 864.644L729.063 866.838Z"/>
<path d="M824.845 848.166L821.301 847.235L854.196 771.954L794.698 713.873L797.625 711.681L858.514 771.113L824.845 848.166Z"/>
<path d="M798.235 714.809L794.698 713.873L828.411 636.815L831.951 637.746L798.235 714.809Z"/>
<path d="M955.835 750.518L856.052 769.971L856.661 773.093L956.443 753.64L955.835 750.518Z"/>
<path d="M319.936 579.992L378.096 636.816L345.539 711.326L254.822 729.011L196.665 672.186L229.219 597.677L319.936 579.992ZM321.612 576.153L226.219 594.749L191.987 673.098L253.141 732.845L348.533 714.248L382.771 635.905L321.612 576.153Z"/>
<path d="M366.509 732.753C369.864 732.099 372.141 729.296 371.594 726.492C371.047 723.688 367.885 721.945 364.53 722.599C361.175 723.253 358.899 726.056 359.445 728.86C359.992 731.664 363.155 733.407 366.509 732.753Z"/>
<path d="M400.515 656.845C403.869 656.191 406.146 653.388 405.599 650.584C405.053 647.78 401.89 646.037 398.535 646.691C395.18 647.345 392.904 650.149 393.451 652.953C393.997 655.757 397.16 657.499 400.515 656.845Z"/>
<path d="M554.397 696.125C557.751 695.471 560.028 692.668 559.481 689.864C558.935 687.06 555.772 685.317 552.417 685.971C549.062 686.625 546.786 689.429 547.333 692.233C547.879 695.037 551.042 696.779 554.397 696.125Z"/>
<path d="M831.135 642.176C834.49 641.522 836.766 638.719 836.22 635.915C835.673 633.111 832.51 631.368 829.156 632.022C825.801 632.676 823.525 635.479 824.071 638.283C824.618 641.087 827.78 642.83 831.135 642.176Z"/>
<path d="M731.88 872.653C735.235 871.999 737.511 869.196 736.965 866.392C736.418 863.588 733.255 861.845 729.9 862.499C726.546 863.153 724.269 865.956 724.816 868.76C725.363 871.564 728.525 873.307 731.88 872.653Z"/>
<path d="M579.332 830.808C582.687 830.154 584.964 827.351 584.417 824.547C583.87 821.743 580.708 820 577.353 820.654C573.998 821.308 571.722 824.111 572.268 826.915C572.815 829.719 575.978 831.462 579.332 830.808Z"/>
<path d="M951.055 758.342C954.41 757.688 956.686 754.885 956.139 752.081C955.593 749.277 952.43 747.534 949.075 748.188C945.721 748.842 943.444 751.645 943.991 754.449C944.538 757.253 947.7 758.996 951.055 758.342Z"/>
<path d="M857.343 776.611C860.697 775.957 862.974 773.154 862.427 770.35C861.881 767.546 858.718 765.803 855.363 766.457C852.008 767.111 849.732 769.914 850.279 772.718C850.825 775.522 853.988 777.265 857.343 776.611Z"/>
<path d="M470.237 471.416L526.599 526.489L495.049 598.693L407.134 615.832L350.769 560.766L382.322 488.555L470.237 471.416ZM471.912 467.574L379.322 485.624L346.094 561.675L405.454 619.669L498.044 601.619L531.274 525.574L471.912 467.574Z"/>
<path d="M112.816 524.098L169.179 579.171L137.629 651.379L49.7143 668.517L-6.6511 613.448L24.9014 541.237L112.816 524.098ZM114.492 520.259L21.9025 538.309L-11.3262 614.36L48.0346 672.357L140.625 654.307L173.857 578.259L114.492 520.259Z"/>
</mask>
<path d="M96.2004 330.117L-22.9204 353.339L-99.9649 278.066L-57.2127 180.227L-53.776 181.131L-95.7746 277.25L-21.4171 349.894L95.6085 327.081L96.2004 330.117Z" fill="#236483" fill-opacity="0.4"/>
<path d="M164.271 670.929L160.833 670.022L203.213 573.045L206.645 573.947L164.271 670.929Z" fill="#236483" fill-opacity="0.4"/>
<path d="M290.59 380.937L170.42 404.363L93.3753 329.09L136.505 230.393L256.675 206.966L333.716 282.237L290.59 380.937ZM171.921 400.925L287.9 378.315L329.526 283.057L255.168 210.412L139.189 233.022L97.5663 328.277L171.921 400.925Z" fill="#236483" fill-opacity="0.4"/>
<path d="M323.914 551.876L203.744 575.303L127.373 500.689L130.218 498.56L205.244 571.862L321.224 549.252L362.849 453.994L287.823 380.692L290.668 378.56L367.04 453.177L323.914 551.876Z" fill="#236483" fill-opacity="0.4"/>
<path d="M130.573 500.849L10.4031 524.276L-66.6414 449.003L-23.5123 350.303L95.6085 327.081L96.2004 330.117L-20.8251 352.931L-62.4511 448.186L11.907 520.834L127.887 498.224L169.889 402.105L173.323 403.014L130.573 500.849Z" fill="#236483" fill-opacity="0.4"/>
<path d="M484.491 431.071L481.054 430.166L523.052 334.045L448.694 261.4L331.669 284.214L331.077 281.177L450.201 257.954L527.242 333.228L484.491 431.071Z" fill="#236483" fill-opacity="0.4"/>
<path d="M451.167 260.131L447.729 259.223L490.106 162.25L493.542 163.152L451.167 260.131Z" fill="#236483" fill-opacity="0.4"/>
<path d="M726.626 292.788L524.852 332.123L525.443 335.153L727.217 295.818L726.626 292.788Z" fill="#236483" fill-opacity="0.4"/>
<path d="M-64.8413 447.081L-347.621 502.208L-347.031 505.238L-64.2506 450.112L-64.8413 447.081Z" fill="#236483" fill-opacity="0.4"/>
<path d="M130.189 504.465C133.445 503.83 135.655 501.109 135.124 498.388C134.593 495.666 131.524 493.975 128.268 494.609C125.011 495.244 122.802 497.965 123.333 500.687C123.863 503.408 126.933 505.1 130.189 504.465Z" fill="#236483" fill-opacity="0.4"/>
<path d="M12.1139 527.483C15.37 526.849 17.5795 524.128 17.0489 521.406C16.5184 518.685 13.4487 516.993 10.1925 517.628C6.93643 518.262 4.72695 520.983 5.25752 523.705C5.78808 526.426 8.85777 528.118 12.1139 527.483Z" fill="#236483" fill-opacity="0.4"/>
<path d="M163.512 675.402C166.769 674.767 168.978 672.046 168.447 669.325C167.917 666.603 164.847 664.911 161.591 665.546C158.335 666.181 156.125 668.902 156.656 671.623C157.187 674.345 160.256 676.037 163.512 675.402Z" fill="#236483" fill-opacity="0.4"/>
<path d="M172.564 407.486C175.82 406.851 178.03 404.13 177.499 401.409C176.969 398.687 173.899 396.996 170.643 397.63C167.387 398.265 165.177 400.986 165.708 403.708C166.238 406.429 169.308 408.121 172.564 407.486Z" fill="#236483" fill-opacity="0.4"/>
<path d="M205.888 578.426C209.145 577.791 211.354 575.07 210.823 572.349C210.293 569.627 207.223 567.935 203.967 568.57C200.711 569.205 198.501 571.926 199.032 574.647C199.563 577.369 202.632 579.061 205.888 578.426Z" fill="#236483" fill-opacity="0.4"/>
<path d="M291.164 384.366C294.42 383.731 296.63 381.01 296.099 378.288C295.568 375.567 292.499 373.875 289.243 374.51C285.987 375.145 283.777 377.865 284.308 380.587C284.838 383.309 287.908 385 291.164 384.366Z" fill="#236483" fill-opacity="0.4"/>
<path d="M257.841 213.429C261.097 212.794 263.306 210.073 262.776 207.352C262.245 204.63 259.175 202.938 255.919 203.573C252.663 204.208 250.454 206.929 250.984 209.65C251.515 212.372 254.584 214.064 257.841 213.429Z" fill="#236483" fill-opacity="0.4"/>
<path d="M138.807 236.634C142.063 235.999 144.273 233.278 143.742 230.557C143.212 227.835 140.142 226.143 136.886 226.778C133.63 227.413 131.42 230.134 131.951 232.855C132.481 235.577 135.551 237.269 138.807 236.634Z" fill="#236483" fill-opacity="0.4"/>
<path d="M526.108 338.564C529.364 337.929 531.573 335.208 531.043 332.487C530.512 329.765 527.443 328.074 524.187 328.708C520.93 329.343 518.721 332.064 519.251 334.786C519.782 337.507 522.852 339.199 526.108 338.564Z" fill="#236483" fill-opacity="0.4"/>
<path d="M727.882 299.229C731.138 298.594 733.347 295.873 732.817 293.152C732.286 290.43 729.216 288.739 725.96 289.373C722.704 290.008 720.495 292.729 721.025 295.451C721.556 298.172 724.626 299.864 727.882 299.229Z" fill="#236483" fill-opacity="0.4"/>
<path d="M-63.5856 453.523C-60.3295 452.888 -58.12 450.167 -58.6506 447.445C-59.1811 444.724 -62.2508 443.032 -65.5069 443.667C-68.7631 444.302 -70.9725 447.023 -70.442 449.744C-69.9114 452.466 -66.8417 454.157 -63.5856 453.523Z" fill="#236483" fill-opacity="0.4"/>
<path d="M96.8655 333.528C100.122 332.894 102.331 330.173 101.8 327.451C101.27 324.73 98.2002 323.038 94.9441 323.673C91.688 324.307 89.4785 327.028 90.0091 329.75C90.5396 332.471 93.6093 334.163 96.8655 333.528Z" fill="#236483" fill-opacity="0.4"/>
<path d="M-21.2096 356.547C-17.9535 355.912 -15.744 353.191 -16.2745 350.469C-16.8051 347.748 -19.8748 346.056 -23.1309 346.691C-26.387 347.326 -28.5965 350.047 -28.066 352.768C-27.5354 355.49 -24.4657 357.181 -21.2096 356.547Z" fill="#236483" fill-opacity="0.4"/>
<path d="M450.223 264.643C453.479 264.008 455.689 261.287 455.158 258.565C454.628 255.844 451.558 254.152 448.302 254.787C445.046 255.422 442.836 258.143 443.367 260.864C443.897 263.586 446.967 265.277 450.223 264.643Z" fill="#236483" fill-opacity="0.4"/>
<path d="M492.784 167.627C496.04 166.993 498.25 164.272 497.719 161.55C497.189 158.829 494.119 157.137 490.863 157.772C487.607 158.406 485.397 161.127 485.928 163.849C486.458 166.57 489.528 168.262 492.784 167.627Z" fill="#236483" fill-opacity="0.4"/>
<path d="M332.148 287.661C335.404 287.026 337.614 284.305 337.083 281.584C336.553 278.862 333.483 277.17 330.227 277.805C326.971 278.44 324.761 281.161 325.292 283.882C325.822 286.604 328.892 288.296 332.148 287.661Z" fill="#236483" fill-opacity="0.4"/>
<path d="M324.488 555.305C327.744 554.671 329.954 551.95 329.423 549.228C328.893 546.507 325.823 544.815 322.567 545.45C319.311 546.084 317.101 548.805 317.632 551.527C318.162 554.248 321.232 555.94 324.488 555.305Z" fill="#236483" fill-opacity="0.4"/>
<path d="M365.472 458.598C368.728 457.963 370.937 455.242 370.407 452.52C369.876 449.799 366.806 448.107 363.55 448.742C360.294 449.377 358.085 452.098 358.615 454.819C359.146 457.541 362.215 459.232 365.472 458.598Z" fill="#236483" fill-opacity="0.4"/>
<path d="M483.546 435.579C486.803 434.945 489.012 432.224 488.482 429.502C487.951 426.781 484.881 425.089 481.625 425.724C478.369 426.358 476.16 429.079 476.69 431.801C477.221 434.522 480.29 436.214 483.546 435.579Z" fill="#236483" fill-opacity="0.4"/>
<path d="M-96.9091 282.586C-93.653 281.951 -91.4435 279.23 -91.974 276.509C-92.5046 273.787 -95.5743 272.095 -98.8304 272.73C-102.087 273.365 -104.296 276.086 -103.765 278.807C-103.235 281.529 -100.165 283.221 -96.9091 282.586Z" fill="#236483" fill-opacity="0.4"/>
<path d="M-54.2611 187.005C-51.005 186.37 -48.7955 183.649 -49.3261 180.928C-49.8566 178.206 -52.9263 176.514 -56.1825 177.149C-59.4386 177.784 -61.6481 180.505 -61.1175 183.226C-60.5869 185.948 -57.5173 187.64 -54.2611 187.005Z" fill="#236483" fill-opacity="0.4"/>
<path d="M924.292 620.766L829.399 639.265L768.562 579.826L802.618 501.888L897.511 483.389L958.348 542.828L924.292 620.766ZM830.947 635.72L921.526 618.062L954.033 543.669L895.963 486.935L805.384 504.592L772.876 578.985L830.947 635.72Z" fill="#236483" fill-opacity="0.4"/>
<path d="M519.536 769.14L425.722 787.429L364.88 727.984L398.55 650.937L402.093 651.865L369.198 727.143L427.269 783.88L518.926 766.012L519.536 769.14Z" fill="#236483" fill-opacity="0.4"/>
<path d="M672.461 809.002L577.568 827.501L516.731 768.062L550.787 690.124L645.68 671.625L706.517 731.064L672.461 809.002ZM579.117 823.958L669.695 806.3L702.203 731.908L644.132 675.173L553.554 692.831L521.046 767.224L579.117 823.958Z" fill="#236483" fill-opacity="0.4"/>
<path d="M729.063 866.838L669.613 808.748L672.544 806.554L731.998 864.644L729.063 866.838Z" fill="#236483" fill-opacity="0.4"/>
<path d="M824.845 848.166L821.301 847.235L854.196 771.954L794.698 713.873L797.625 711.681L858.514 771.113L824.845 848.166Z" fill="#236483" fill-opacity="0.4"/>
<path d="M798.235 714.809L794.698 713.873L828.411 636.815L831.951 637.746L798.235 714.809Z" fill="#236483" fill-opacity="0.4"/>
<path d="M955.835 750.518L856.052 769.971L856.661 773.093L956.443 753.64L955.835 750.518Z" fill="#236483" fill-opacity="0.4"/>
<path d="M319.936 579.992L378.096 636.816L345.539 711.326L254.822 729.011L196.665 672.186L229.219 597.677L319.936 579.992ZM321.612 576.153L226.219 594.749L191.987 673.098L253.141 732.845L348.533 714.248L382.771 635.905L321.612 576.153Z" fill="#236483" fill-opacity="0.4"/>
<path d="M366.509 732.753C369.864 732.099 372.141 729.296 371.594 726.492C371.047 723.688 367.885 721.945 364.53 722.599C361.175 723.253 358.899 726.056 359.445 728.86C359.992 731.664 363.155 733.407 366.509 732.753Z" fill="#236483" fill-opacity="0.4"/>
<path d="M400.515 656.845C403.869 656.191 406.146 653.388 405.599 650.584C405.053 647.78 401.89 646.037 398.535 646.691C395.18 647.345 392.904 650.149 393.451 652.953C393.997 655.757 397.16 657.499 400.515 656.845Z" fill="#236483" fill-opacity="0.4"/>
<path d="M554.397 696.125C557.751 695.471 560.028 692.668 559.481 689.864C558.935 687.06 555.772 685.317 552.417 685.971C549.062 686.625 546.786 689.429 547.333 692.233C547.879 695.037 551.042 696.779 554.397 696.125Z" fill="#236483" fill-opacity="0.4"/>
<path d="M831.135 642.176C834.49 641.522 836.766 638.719 836.22 635.915C835.673 633.111 832.51 631.368 829.156 632.022C825.801 632.676 823.525 635.479 824.071 638.283C824.618 641.087 827.78 642.83 831.135 642.176Z" fill="#236483" fill-opacity="0.4"/>
<path d="M731.88 872.653C735.235 871.999 737.511 869.196 736.965 866.392C736.418 863.588 733.255 861.845 729.9 862.499C726.546 863.153 724.269 865.956 724.816 868.76C725.363 871.564 728.525 873.307 731.88 872.653Z" fill="#236483" fill-opacity="0.4"/>
<path d="M579.332 830.808C582.687 830.154 584.964 827.351 584.417 824.547C583.87 821.743 580.708 820 577.353 820.654C573.998 821.308 571.722 824.111 572.268 826.915C572.815 829.719 575.978 831.462 579.332 830.808Z" fill="#236483" fill-opacity="0.4"/>
<path d="M951.055 758.342C954.41 757.688 956.686 754.885 956.139 752.081C955.593 749.277 952.43 747.534 949.075 748.188C945.721 748.842 943.444 751.645 943.991 754.449C944.538 757.253 947.7 758.996 951.055 758.342Z" fill="#236483" fill-opacity="0.4"/>
<path d="M857.343 776.611C860.697 775.957 862.974 773.154 862.427 770.35C861.881 767.546 858.718 765.803 855.363 766.457C852.008 767.111 849.732 769.914 850.279 772.718C850.825 775.522 853.988 777.265 857.343 776.611Z" fill="#236483" fill-opacity="0.4"/>
<path d="M470.237 471.416L526.599 526.489L495.049 598.693L407.134 615.832L350.769 560.766L382.322 488.555L470.237 471.416ZM471.912 467.574L379.322 485.624L346.094 561.675L405.454 619.669L498.044 601.619L531.274 525.574L471.912 467.574Z" fill="#236483" fill-opacity="0.4"/>
<path d="M112.816 524.098L169.179 579.171L137.629 651.379L49.7143 668.517L-6.6511 613.448L24.9014 541.237L112.816 524.098ZM114.492 520.259L21.9025 538.309L-11.3262 614.36L48.0346 672.357L140.625 654.307L173.857 578.259L114.492 520.259Z" fill="#236483" fill-opacity="0.4"/>
<path d="M95.1177 327.176L95.7096 330.213L96.6912 330.022L96.0992 326.985L95.1177 327.176ZM-22.9204 353.339L-23.6192 354.055L-23.2439 354.421L-22.729 354.321L-22.9204 353.339ZM-99.9649 278.066L-100.881 277.666L-101.158 278.299L-100.664 278.782L-99.9649 278.066ZM-57.2127 180.227L-56.9582 179.26L-57.7862 179.042L-58.129 179.826L-57.2127 180.227ZM-53.776 181.131L-52.8597 181.532L-52.392 180.461L-53.5215 180.164L-53.776 181.131ZM-95.7746 277.25L-96.6909 276.849L-96.9675 277.482L-96.4734 277.965L-95.7746 277.25ZM-21.4171 349.894L-22.1159 350.61L-21.7406 350.976L-21.2257 350.876L-21.4171 349.894ZM164.271 670.929L164.015 671.896L164.844 672.115L165.187 671.33L164.271 670.929ZM160.833 670.022L159.917 669.621L159.45 670.691L160.578 670.989L160.833 670.022ZM203.213 573.045L203.467 572.078L202.639 571.86L202.297 572.645L203.213 573.045ZM206.645 573.947L207.562 574.348L208.03 573.277L206.9 572.98L206.645 573.947ZM290.59 380.937L290.781 381.918L291.296 381.818L291.506 381.337L290.59 380.937ZM170.42 404.363L169.721 405.079L170.096 405.445L170.611 405.345L170.42 404.363ZM93.3753 329.09L92.459 328.69L92.1824 329.323L92.6765 329.806L93.3753 329.09ZM136.505 230.393L136.314 229.412L135.799 229.512L135.589 229.993L136.505 230.393ZM256.675 206.966L257.374 206.251L256.999 205.885L256.484 205.985L256.675 206.966ZM333.716 282.237L334.632 282.637L334.909 282.004L334.414 281.522L333.716 282.237ZM171.921 400.925L171.222 401.64L171.597 402.007L172.112 401.907L171.921 400.925ZM287.9 378.315L288.092 379.297L288.607 379.197L288.817 378.716L287.9 378.315ZM329.526 283.057L330.442 283.457L330.719 282.824L330.225 282.342L329.526 283.057ZM255.168 210.412L255.867 209.697L255.492 209.33L254.977 209.431L255.168 210.412ZM139.189 233.022L138.997 232.04L138.482 232.141L138.272 232.622L139.189 233.022ZM97.5663 328.277L96.65 327.876L96.3734 328.509L96.8674 328.992L97.5663 328.277ZM323.914 551.876L324.106 552.858L324.62 552.758L324.831 552.277L323.914 551.876ZM203.744 575.303L203.045 576.018L203.42 576.385L203.935 576.285L203.744 575.303ZM127.373 500.689L126.773 499.889L125.838 500.588L126.674 501.405L127.373 500.689ZM130.218 498.56L130.917 497.845L130.304 497.247L129.619 497.76L130.218 498.56ZM205.244 571.862L204.545 572.577L204.921 572.944L205.436 572.843L205.244 571.862ZM321.224 549.252L321.415 550.234L321.93 550.133L322.14 549.653L321.224 549.252ZM362.849 453.994L363.766 454.394L364.042 453.761L363.548 453.278L362.849 453.994ZM287.823 380.692L287.223 379.892L286.289 380.592L287.124 381.407L287.823 380.692ZM290.668 378.56L291.366 377.845L290.754 377.246L290.068 377.76L290.668 378.56ZM367.04 453.177L367.956 453.577L368.233 452.944L367.739 452.462L367.04 453.177ZM130.573 500.849L130.765 501.831L131.28 501.731L131.49 501.25L130.573 500.849ZM10.4031 524.276L9.70426 524.991L10.0795 525.358L10.5945 525.258L10.4031 524.276ZM-66.6414 449.003L-67.5578 448.603L-67.8344 449.236L-67.3403 449.719L-66.6414 449.003ZM-23.5123 350.303L-23.7036 349.321L-24.2186 349.422L-24.4287 349.902L-23.5123 350.303ZM-20.8251 352.931L-21.0165 351.949L-21.5314 352.05L-21.7414 352.53L-20.8251 352.931ZM-62.4511 448.186L-63.3674 447.786L-63.644 448.419L-63.1499 448.902L-62.4511 448.186ZM11.907 520.834L11.2082 521.549L11.5834 521.916L12.0983 521.816L11.907 520.834ZM127.887 498.224L128.078 499.206L128.593 499.106L128.803 498.625L127.887 498.224ZM169.889 402.105L170.145 401.139L169.316 400.919L168.973 401.705L169.889 402.105ZM173.323 403.014L174.239 403.414L174.706 402.345L173.578 402.047L173.323 403.014ZM484.491 431.071L484.236 432.038L485.064 432.256L485.407 431.471L484.491 431.071ZM481.054 430.166L480.138 429.766L479.67 430.836L480.799 431.133L481.054 430.166ZM523.052 334.045L523.968 334.445L524.245 333.812L523.751 333.329L523.052 334.045ZM448.694 261.4L449.393 260.685L449.018 260.318L448.503 260.418L448.694 261.4ZM331.669 284.214L330.687 284.405L330.879 285.386L331.86 285.195L331.669 284.214ZM331.077 281.177L330.886 280.196L329.904 280.387L330.095 281.368L331.077 281.177ZM450.201 257.954L450.9 257.239L450.525 256.872L450.01 256.973L450.201 257.954ZM527.242 333.228L528.159 333.628L528.435 332.995L527.941 332.513L527.242 333.228ZM451.167 260.131L450.911 261.098L451.74 261.316L452.083 260.531L451.167 260.131ZM447.729 259.223L446.813 258.823L446.346 259.892L447.474 260.19L447.729 259.223ZM490.106 162.25L490.36 161.283L489.532 161.066L489.19 161.85L490.106 162.25ZM493.542 163.152L494.458 163.552L494.926 162.481L493.796 162.184L493.542 163.152ZM524.852 332.123L524.661 331.141L523.679 331.332L523.871 332.314L524.852 332.123ZM726.626 292.788L727.608 292.596L727.416 291.615L726.435 291.806L726.626 292.788ZM727.217 295.818L727.408 296.799L728.39 296.608L728.198 295.627L727.217 295.818ZM525.443 335.153L524.461 335.344L524.653 336.326L525.634 336.135L525.443 335.153ZM-347.621 502.208L-347.813 501.226L-348.794 501.418L-348.603 502.399L-347.621 502.208ZM-64.8413 447.081L-63.8598 446.89L-64.0512 445.908L-65.0327 446.1L-64.8413 447.081ZM-64.2506 450.112L-64.0592 451.093L-63.0777 450.902L-63.269 449.92L-64.2506 450.112ZM-347.031 505.238L-348.012 505.43L-347.821 506.411L-346.839 506.22L-347.031 505.238ZM924.292 620.766L924.483 621.747L924.998 621.647L925.208 621.166L924.292 620.766ZM829.399 639.265L828.7 639.98L829.075 640.347L829.59 640.246L829.399 639.265ZM768.562 579.826L767.646 579.426L767.369 580.059L767.863 580.541L768.562 579.826ZM802.618 501.888L802.426 500.907L801.912 501.007L801.702 501.488L802.618 501.888ZM897.511 483.389L898.209 482.674L897.834 482.307L897.319 482.408L897.511 483.389ZM958.348 542.828L959.264 543.228L959.541 542.595L959.046 542.113L958.348 542.828ZM830.947 635.72L830.248 636.435L830.623 636.801L831.138 636.701L830.947 635.72ZM921.526 618.062L921.717 619.043L922.232 618.943L922.442 618.462L921.526 618.062ZM954.033 543.669L954.95 544.07L955.226 543.437L954.732 542.954L954.033 543.669ZM895.963 486.935L896.662 486.219L896.286 485.853L895.771 485.953L895.963 486.935ZM805.384 504.592L805.193 503.611L804.678 503.711L804.468 504.192L805.384 504.592ZM772.876 578.985L771.96 578.585L771.683 579.218L772.177 579.7L772.876 578.985ZM519.536 769.14L519.727 770.121L520.709 769.93L520.518 768.949L519.536 769.14ZM425.722 787.429L425.023 788.144L425.398 788.511L425.913 788.41L425.722 787.429ZM364.88 727.984L363.964 727.584L363.687 728.217L364.181 728.7L364.88 727.984ZM398.55 650.937L398.803 649.97L397.976 649.753L397.633 650.537L398.55 650.937ZM402.093 651.865L403.009 652.266L403.478 651.194L402.346 650.898L402.093 651.865ZM369.198 727.143L368.282 726.742L368.005 727.375L368.499 727.858L369.198 727.143ZM427.269 783.88L426.57 784.595L426.946 784.962L427.46 784.862L427.269 783.88ZM518.926 766.012L519.908 765.821L519.716 764.839L518.735 765.031L518.926 766.012ZM672.461 809.002L672.652 809.983L673.167 809.883L673.377 809.402L672.461 809.002ZM577.568 827.501L576.869 828.216L577.245 828.583L577.759 828.482L577.568 827.501ZM516.731 768.062L515.815 767.661L515.538 768.294L516.032 768.777L516.731 768.062ZM550.787 690.124L550.596 689.142L550.081 689.243L549.871 689.723L550.787 690.124ZM645.68 671.625L646.379 670.91L646.003 670.543L645.489 670.643L645.68 671.625ZM706.517 731.064L707.433 731.464L707.71 730.831L707.216 730.348L706.517 731.064ZM579.117 823.958L578.418 824.674L578.793 825.04L579.308 824.94L579.117 823.958ZM669.695 806.3L669.887 807.282L670.401 807.182L670.612 806.701L669.695 806.3ZM702.203 731.908L703.119 732.308L703.396 731.675L702.902 731.193L702.203 731.908ZM644.132 675.173L644.831 674.458L644.456 674.091L643.941 674.192L644.132 675.173ZM553.554 692.831L553.363 691.85L552.848 691.95L552.638 692.431L553.554 692.831ZM521.046 767.224L520.13 766.823L519.853 767.456L520.347 767.939L521.046 767.224ZM729.063 866.838L728.364 867.553L728.977 868.152L729.662 867.639L729.063 866.838ZM669.613 808.748L669.013 807.947L668.078 808.647L668.914 809.463L669.613 808.748ZM672.544 806.554L673.243 805.839L672.63 805.241L671.945 805.754L672.544 806.554ZM731.998 864.644L732.597 865.445L733.533 864.746L732.697 863.929L731.998 864.644ZM824.845 848.166L824.591 849.133L825.419 849.35L825.761 848.566L824.845 848.166ZM821.301 847.235L820.385 846.834L819.917 847.905L821.047 848.202L821.301 847.235ZM854.196 771.954L855.112 772.355L855.389 771.722L854.894 771.239L854.196 771.954ZM794.698 713.873L793.782 713.472L793.505 714.106L793.999 714.589L794.698 713.873ZM797.625 711.681L798.324 710.965L797.711 710.367L797.026 710.88L797.625 711.681ZM858.514 771.113L859.43 771.513L859.707 770.88L859.212 770.397L858.514 771.113ZM798.235 714.809L797.979 715.775L798.808 715.994L799.151 715.209L798.235 714.809ZM828.411 636.815L828.665 635.848L827.837 635.63L827.494 636.414L828.411 636.815ZM831.951 637.746L832.867 638.147L833.335 637.077L832.205 636.779L831.951 637.746ZM856.052 769.971L855.861 768.989L854.879 769.181L855.071 770.162L856.052 769.971ZM955.835 750.518L956.816 750.327L956.625 749.346L955.644 749.537L955.835 750.518ZM956.443 753.64L956.635 754.622L957.616 754.43L957.425 753.449L956.443 753.64ZM856.661 773.093L855.679 773.284L855.87 774.265L856.852 774.074L856.661 773.093ZM319.936 579.992L320.634 579.276L320.259 578.91L319.744 579.01L319.936 579.992ZM378.096 636.816L379.012 637.217L379.288 636.584L378.794 636.101L378.096 636.816ZM345.539 711.326L345.73 712.307L346.245 712.207L346.455 711.726L345.539 711.326ZM254.822 729.011L254.123 729.726L254.498 730.093L255.013 729.992L254.822 729.011ZM196.665 672.186L195.749 671.785L195.472 672.418L195.966 672.901L196.665 672.186ZM229.219 597.677L229.027 596.695L228.512 596.796L228.302 597.276L229.219 597.677ZM321.612 576.153L322.31 575.437L321.935 575.071L321.42 575.171L321.612 576.153ZM226.219 594.749L226.028 593.768L225.513 593.868L225.303 594.349L226.219 594.749ZM191.987 673.098L191.07 672.697L190.794 673.33L191.288 673.813L191.987 673.098ZM253.141 732.845L252.442 733.56L252.817 733.927L253.332 733.826L253.141 732.845ZM348.533 714.248L348.724 715.23L349.239 715.129L349.449 714.649L348.533 714.248ZM382.771 635.905L383.687 636.305L383.964 635.672L383.469 635.19L382.771 635.905ZM470.237 471.416L470.936 470.701L470.56 470.334L470.045 470.435L470.237 471.416ZM526.599 526.489L527.516 526.889L527.792 526.256L527.298 525.774L526.599 526.489ZM495.049 598.693L495.24 599.675L495.755 599.575L495.965 599.094L495.049 598.693ZM407.134 615.832L406.435 616.547L406.811 616.914L407.326 616.814L407.134 615.832ZM350.769 560.766L349.853 560.366L349.576 560.999L350.071 561.481L350.769 560.766ZM382.322 488.555L382.131 487.573L381.616 487.674L381.406 488.154L382.322 488.555ZM471.912 467.574L472.611 466.859L472.236 466.492L471.721 466.592L471.912 467.574ZM379.322 485.624L379.131 484.643L378.616 484.743L378.406 485.224L379.322 485.624ZM346.094 561.675L345.177 561.274L344.901 561.907L345.395 562.39L346.094 561.675ZM405.454 619.669L404.755 620.384L405.13 620.751L405.645 620.65L405.454 619.669ZM498.044 601.619L498.235 602.6L498.75 602.5L498.96 602.019L498.044 601.619ZM531.274 525.574L532.19 525.975L532.466 525.342L531.972 524.859L531.274 525.574ZM112.816 524.098L113.515 523.383L113.14 523.016L112.625 523.117L112.816 524.098ZM169.179 579.171L170.095 579.571L170.372 578.938L169.878 578.456L169.179 579.171ZM137.629 651.379L137.821 652.36L138.336 652.26L138.546 651.779L137.629 651.379ZM49.7143 668.517L49.0154 669.233L49.3907 669.599L49.9056 669.499L49.7143 668.517ZM-6.6511 613.448L-7.56746 613.048L-7.844 613.681L-7.34993 614.164L-6.6511 613.448ZM24.9014 541.237L24.7101 540.255L24.1951 540.356L23.9851 540.836L24.9014 541.237ZM114.492 520.259L115.191 519.544L114.816 519.177L114.301 519.278L114.492 520.259ZM21.9025 538.309L21.7111 537.328L21.1962 537.428L20.9861 537.909L21.9025 538.309ZM-11.3262 614.36L-12.2425 613.959L-12.5191 614.592L-12.025 615.075L-11.3262 614.36ZM48.0346 672.357L47.3357 673.072L47.711 673.439L48.2259 673.339L48.0346 672.357ZM140.625 654.307L140.816 655.289L141.331 655.188L141.541 654.707L140.625 654.307ZM173.857 578.259L174.774 578.659L175.05 578.026L174.556 577.544L173.857 578.259ZM96.0091 329.136L-23.1117 352.358L-22.729 354.321L96.3918 331.099L96.0091 329.136ZM-22.2215 352.624L-99.2661 277.351L-100.664 278.782L-23.6192 354.055L-22.2215 352.624ZM-99.0486 278.467L-56.2963 180.627L-58.129 179.826L-100.881 277.666L-99.0486 278.467ZM-57.4671 181.194L-54.0305 182.098L-53.5215 180.164L-56.9582 179.26L-57.4671 181.194ZM-54.6923 180.731L-96.6909 276.849L-94.8582 277.65L-52.8597 181.532L-54.6923 180.731ZM-96.4734 277.965L-22.1159 350.61L-20.7182 349.179L-95.0757 276.534L-96.4734 277.965ZM-21.2257 350.876L95.7998 328.062L95.4171 326.099L-21.6084 348.913L-21.2257 350.876ZM164.526 669.962L161.089 669.055L160.578 670.989L164.015 671.896L164.526 669.962ZM161.75 670.422L204.129 573.446L202.297 572.645L159.917 669.621L161.75 670.422ZM202.959 574.012L206.391 574.914L206.9 572.98L203.467 572.078L202.959 574.012ZM205.729 573.547L163.354 670.529L165.187 671.33L207.562 574.348L205.729 573.547ZM290.399 379.955L170.229 403.382L170.611 405.345L290.781 381.918L290.399 379.955ZM171.119 403.648L94.0741 328.375L92.6765 329.806L169.721 405.079L171.119 403.648ZM94.2916 329.491L137.421 230.794L135.589 229.993L92.459 328.69L94.2916 329.491ZM136.696 231.375L256.867 207.948L256.484 205.985L136.314 229.412L136.696 231.375ZM255.976 207.682L333.017 282.952L334.414 281.522L257.374 206.251L255.976 207.682ZM332.799 281.837L289.674 380.536L291.506 381.337L334.632 282.637L332.799 281.837ZM172.112 401.907L288.092 379.297L287.709 377.334L171.729 399.944L172.112 401.907ZM288.817 378.716L330.442 283.457L328.609 282.657L286.984 377.915L288.817 378.716ZM330.225 282.342L255.867 209.697L254.469 211.127L328.827 283.772L330.225 282.342ZM254.977 209.431L138.997 232.04L139.38 234.003L255.36 211.394L254.977 209.431ZM138.272 232.622L96.65 327.876L98.4826 328.677L140.105 233.422L138.272 232.622ZM96.8674 328.992L171.222 401.64L172.62 400.21L98.2652 327.561L96.8674 328.992ZM323.723 550.895L203.553 574.322L203.935 576.285L324.106 552.858L323.723 550.895ZM204.443 574.588L128.071 499.974L126.674 501.405L203.045 576.018L204.443 574.588ZM127.972 501.49L130.817 499.361L129.619 497.76L126.773 499.889L127.972 501.49ZM129.519 499.276L204.545 572.577L205.943 571.147L130.917 497.845L129.519 499.276ZM205.436 572.843L321.415 550.234L321.033 548.271L205.053 570.88L205.436 572.843ZM322.14 549.653L363.766 454.394L361.933 453.593L320.308 548.852L322.14 549.653ZM363.548 453.278L288.522 379.977L287.124 381.407L362.151 454.709L363.548 453.278ZM288.423 381.492L291.267 379.36L290.068 377.76L287.223 379.892L288.423 381.492ZM289.969 379.275L366.341 453.892L367.739 452.462L291.366 377.845L289.969 379.275ZM366.123 452.776L322.998 551.476L324.831 552.277L367.956 453.577L366.123 452.776ZM130.382 499.868L10.2118 523.295L10.5945 525.258L130.765 501.831L130.382 499.868ZM11.102 523.561L-65.9426 448.288L-67.3403 449.719L9.70426 524.991L11.102 523.561ZM-65.7251 449.404L-22.596 350.703L-24.4287 349.902L-67.5578 448.603L-65.7251 449.404ZM-23.321 351.284L95.7998 328.062L95.4171 326.099L-23.7036 349.321L-23.321 351.284ZM96.0091 329.136L-21.0165 351.949L-20.6338 353.912L96.3918 331.099L96.0091 329.136ZM-21.7414 352.53L-63.3674 447.786L-61.5347 448.587L-19.9088 353.331L-21.7414 352.53ZM-63.1499 448.902L11.2082 521.549L12.6058 520.119L-61.7522 447.471L-63.1499 448.902ZM12.0983 521.816L128.078 499.206L127.695 497.243L11.7156 519.853L12.0983 521.816ZM128.803 498.625L170.805 402.506L168.973 401.705L126.97 497.824L128.803 498.625ZM169.633 403.072L173.067 403.98L173.578 402.047L170.145 401.139L169.633 403.072ZM172.406 402.613L129.657 500.449L131.49 501.25L174.239 403.414L172.406 402.613ZM484.745 430.103L481.308 429.199L480.799 431.133L484.236 432.038L484.745 430.103ZM481.97 430.566L523.968 334.445L522.136 333.644L480.138 429.766L481.97 430.566ZM523.751 333.329L449.393 260.685L447.996 262.115L522.353 334.76L523.751 333.329ZM448.503 260.418L331.478 283.232L331.86 285.195L448.886 262.381L448.503 260.418ZM332.65 284.022L332.059 280.986L330.095 281.368L330.687 284.405L332.65 284.022ZM331.268 282.159L450.393 258.936L450.01 256.973L330.886 280.196L331.268 282.159ZM449.503 258.669L526.543 333.943L527.941 332.513L450.9 257.239L449.503 258.669ZM526.326 332.827L483.574 430.67L485.407 431.471L528.159 333.628L526.326 332.827ZM451.422 259.164L447.985 258.256L447.474 260.19L450.911 261.098L451.422 259.164ZM448.646 259.624L491.022 162.651L489.19 161.85L446.813 258.823L448.646 259.624ZM489.852 163.218L493.288 164.119L493.796 162.184L490.36 161.283L489.852 163.218ZM492.626 162.751L450.25 259.73L452.083 260.531L494.458 163.552L492.626 162.751ZM525.043 333.104L726.817 293.769L726.435 291.806L524.661 331.141L525.043 333.104ZM725.644 292.979L726.235 296.009L728.198 295.627L727.608 292.596L725.644 292.979ZM727.025 294.836L525.252 334.171L525.634 336.135L727.408 296.799L727.025 294.836ZM526.424 334.962L525.834 331.931L523.871 332.314L524.461 335.344L526.424 334.962ZM-347.43 503.19L-64.65 448.063L-65.0327 446.1L-347.813 501.226L-347.43 503.19ZM-65.8229 447.272L-65.2321 450.303L-63.269 449.92L-63.8598 446.89L-65.8229 447.272ZM-64.4419 449.13L-347.222 504.257L-346.839 506.22L-64.0592 451.093L-64.4419 449.13ZM-346.049 505.047L-346.64 502.017L-348.603 502.399L-348.012 505.43L-346.049 505.047ZM134.142 498.579C134.537 500.601 132.884 502.921 129.998 503.484L130.38 505.447C134.006 504.74 136.772 501.618 136.105 498.197L134.142 498.579ZM129.998 503.484C127.111 504.046 124.708 502.517 124.314 500.495L122.351 500.878C123.018 504.299 126.754 506.153 130.38 505.447L129.998 503.484ZM124.314 500.495C123.92 498.473 125.573 496.154 128.459 495.591L128.076 493.628C124.45 494.335 121.684 497.457 122.351 500.878L124.314 500.495ZM128.459 495.591C131.345 495.028 133.748 496.557 134.142 498.579L136.105 498.197C135.439 494.775 131.702 492.921 128.076 493.628L128.459 495.591ZM16.0674 521.598C16.4616 523.62 14.8088 525.939 11.9225 526.502L12.3052 528.465C15.9312 527.758 18.6974 524.636 18.0305 521.215L16.0674 521.598ZM11.9225 526.502C9.03632 527.065 6.63322 525.536 6.23904 523.514L4.27599 523.896C4.94293 527.317 8.67921 529.172 12.3052 528.465L11.9225 526.502ZM6.23904 523.514C5.84485 521.491 7.49764 519.172 10.3839 518.609L10.0012 516.646C6.37522 517.353 3.60905 520.475 4.27599 523.896L6.23904 523.514ZM10.3839 518.609C13.2701 518.047 15.6732 519.575 16.0674 521.598L18.0305 521.215C17.3635 517.794 13.6272 515.939 10.0012 516.646L10.3839 518.609ZM167.466 669.516C167.86 671.538 166.207 673.858 163.321 674.42L163.704 676.383C167.33 675.676 170.096 672.554 169.429 669.133L167.466 669.516ZM163.321 674.42C160.435 674.983 158.032 673.454 157.638 671.432L155.674 671.815C156.341 675.236 160.078 677.09 163.704 676.383L163.321 674.42ZM157.638 671.432C157.243 669.41 158.896 667.09 161.782 666.528L161.4 664.565C157.774 665.271 155.008 668.394 155.674 671.815L157.638 671.432ZM161.782 666.528C164.669 665.965 167.072 667.494 167.466 669.516L169.429 669.133C168.762 665.712 165.026 663.858 161.4 664.565L161.782 666.528ZM176.518 401.6C176.912 403.622 175.259 405.942 172.373 406.505L172.756 408.468C176.382 407.761 179.148 404.639 178.481 401.218L176.518 401.6ZM172.373 406.505C169.487 407.067 167.084 405.538 166.689 403.516L164.726 403.899C165.393 407.32 169.13 409.174 172.756 408.468L172.373 406.505ZM166.689 403.516C166.295 401.494 167.948 399.175 170.834 398.612L170.452 396.649C166.826 397.356 164.059 400.478 164.726 403.899L166.689 403.516ZM170.834 398.612C173.721 398.049 176.124 399.578 176.518 401.6L178.481 401.218C177.814 397.796 174.078 395.942 170.452 396.649L170.834 398.612ZM209.842 572.54C210.236 574.562 208.583 576.882 205.697 577.444L206.08 579.407C209.706 578.701 212.472 575.579 211.805 572.157L209.842 572.54ZM205.697 577.444C202.811 578.007 200.408 576.478 200.014 574.456L198.05 574.839C198.717 578.26 202.454 580.114 206.08 579.407L205.697 577.444ZM200.014 574.456C199.619 572.434 201.272 570.114 204.158 569.552L203.776 567.589C200.15 568.296 197.384 571.418 198.05 574.839L200.014 574.456ZM204.158 569.552C207.045 568.989 209.448 570.518 209.842 572.54L211.805 572.157C211.138 568.736 207.402 566.882 203.776 567.589L204.158 569.552ZM295.118 378.48C295.512 380.502 293.859 382.821 290.973 383.384L291.355 385.347C294.981 384.64 297.748 381.518 297.081 378.097L295.118 378.48ZM290.973 383.384C288.086 383.947 285.683 382.418 285.289 380.396L283.326 380.778C283.993 384.199 287.729 386.054 291.355 385.347L290.973 383.384ZM285.289 380.396C284.895 378.374 286.548 376.054 289.434 375.491L289.051 373.528C285.425 374.235 282.659 377.357 283.326 380.778L285.289 380.396ZM289.434 375.491C292.32 374.929 294.723 376.458 295.118 378.48L297.081 378.097C296.414 374.676 292.677 372.821 289.051 373.528L289.434 375.491ZM261.794 207.543C262.188 209.565 260.535 211.885 257.649 212.447L258.032 214.41C261.658 213.703 264.424 210.581 263.757 207.16L261.794 207.543ZM257.649 212.447C254.763 213.01 252.36 211.481 251.966 209.459L250.003 209.842C250.67 213.263 254.406 215.117 258.032 214.41L257.649 212.447ZM251.966 209.459C251.572 207.437 253.224 205.117 256.111 204.555L255.728 202.592C252.102 203.298 249.336 206.42 250.003 209.842L251.966 209.459ZM256.111 204.555C258.997 203.992 261.4 205.521 261.794 207.543L263.757 207.16C263.09 203.739 259.354 201.885 255.728 202.592L256.111 204.555ZM142.761 230.748C143.155 232.77 141.502 235.09 138.616 235.652L138.999 237.615C142.625 236.909 145.391 233.786 144.724 230.365L142.761 230.748ZM138.616 235.652C135.73 236.215 133.326 234.686 132.932 232.664L130.969 233.047C131.636 236.468 135.373 238.322 138.999 237.615L138.616 235.652ZM132.932 232.664C132.538 230.642 134.191 228.322 137.077 227.76L136.695 225.797C133.068 226.504 130.302 229.626 130.969 233.047L132.932 232.664ZM137.077 227.76C139.963 227.197 142.367 228.726 142.761 230.748L144.724 230.365C144.057 226.944 140.321 225.09 136.695 225.797L137.077 227.76ZM530.061 332.678C530.456 334.7 528.803 337.02 525.916 337.583L526.299 339.546C529.925 338.839 532.691 335.717 532.024 332.296L530.061 332.678ZM525.916 337.583C523.03 338.145 520.627 336.616 520.233 334.594L518.27 334.977C518.937 338.398 522.673 340.252 526.299 339.546L525.916 337.583ZM520.233 334.594C519.839 332.572 521.492 330.253 524.378 329.69L523.995 327.727C520.369 328.434 517.603 331.556 518.27 334.977L520.233 334.594ZM524.378 329.69C527.264 329.127 529.667 330.656 530.061 332.678L532.024 332.296C531.357 328.874 527.621 327.02 523.995 327.727L524.378 329.69ZM731.835 293.343C732.229 295.365 730.577 297.685 727.69 298.248L728.073 300.211C731.699 299.504 734.465 296.382 733.798 292.961L731.835 293.343ZM727.69 298.248C724.804 298.81 722.401 297.281 722.007 295.259L720.044 295.642C720.711 299.063 724.447 300.917 728.073 300.211L727.69 298.248ZM722.007 295.259C721.613 293.237 723.266 290.918 726.152 290.355L725.769 288.392C722.143 289.099 719.377 292.221 720.044 295.642L722.007 295.259ZM726.152 290.355C729.038 289.792 731.441 291.321 731.835 293.343L733.798 292.961C733.131 289.539 729.395 287.685 725.769 288.392L726.152 290.355ZM-59.6321 447.637C-59.2379 449.659 -60.8907 451.978 -63.777 452.541L-63.3943 454.504C-59.7683 453.797 -57.0021 450.675 -57.669 447.254L-59.6321 447.637ZM-63.777 452.541C-66.6632 453.104 -69.0663 451.575 -69.4605 449.553L-71.4235 449.935C-70.7566 453.357 -67.0203 455.211 -63.3943 454.504L-63.777 452.541ZM-69.4605 449.553C-69.8546 447.531 -68.2018 445.211 -65.3156 444.648L-65.6983 442.685C-69.3243 443.392 -72.0904 446.514 -71.4235 449.935L-69.4605 449.553ZM-65.3156 444.648C-62.4294 444.086 -60.0263 445.615 -59.6321 447.637L-57.669 447.254C-58.336 443.833 -62.0723 441.979 -65.6983 442.685L-65.3156 444.648ZM100.819 327.643C101.213 329.665 99.5603 331.984 96.6741 332.547L97.0568 334.51C100.683 333.803 103.449 330.681 102.782 327.26L100.819 327.643ZM96.6741 332.547C93.7879 333.11 91.3848 331.581 90.9906 329.559L89.0275 329.941C89.6945 333.362 93.4308 335.217 97.0568 334.51L96.6741 332.547ZM90.9906 329.559C90.5964 327.537 92.2492 325.217 95.1355 324.654L94.7528 322.691C91.1268 323.398 88.3606 326.52 89.0275 329.941L90.9906 329.559ZM95.1355 324.654C98.0217 324.092 100.425 325.621 100.819 327.643L102.782 327.26C102.115 323.839 98.3788 321.984 94.7528 322.691L95.1355 324.654ZM-17.2561 350.661C-16.8619 352.683 -18.5147 355.002 -21.4009 355.565L-21.0182 357.528C-17.3922 356.821 -14.6261 353.699 -15.293 350.278L-17.2561 350.661ZM-21.4009 355.565C-24.2872 356.128 -26.6902 354.599 -27.0844 352.577L-29.0475 352.959C-28.3805 356.381 -24.6442 358.235 -21.0182 357.528L-21.4009 355.565ZM-27.0844 352.577C-27.4786 350.555 -25.8258 348.235 -22.9396 347.672L-23.3223 345.709C-26.9483 346.416 -29.7144 349.538 -29.0475 352.959L-27.0844 352.577ZM-22.9396 347.672C-20.0533 347.11 -17.6502 348.639 -17.2561 350.661L-15.293 350.278C-15.9599 346.857 -19.6963 345.003 -23.3223 345.709L-22.9396 347.672ZM454.177 258.757C454.571 260.779 452.918 263.098 450.032 263.661L450.414 265.624C454.04 264.917 456.807 261.795 456.14 258.374L454.177 258.757ZM450.032 263.661C447.145 264.224 444.742 262.695 444.348 260.673L442.385 261.055C443.052 264.477 446.788 266.331 450.414 265.624L450.032 263.661ZM444.348 260.673C443.954 258.651 445.607 256.331 448.493 255.768L448.11 253.805C444.484 254.512 441.718 257.634 442.385 261.055L444.348 260.673ZM448.493 255.768C451.379 255.206 453.782 256.735 454.177 258.757L456.14 258.374C455.473 254.953 451.736 253.099 448.11 253.805L448.493 255.768ZM496.738 161.742C497.132 163.764 495.479 166.083 492.593 166.646L492.976 168.609C496.602 167.902 499.368 164.78 498.701 161.359L496.738 161.742ZM492.593 166.646C489.707 167.209 487.304 165.68 486.909 163.658L484.946 164.04C485.613 167.461 489.35 169.316 492.976 168.609L492.593 166.646ZM486.909 163.658C486.515 161.636 488.168 159.316 491.054 158.753L490.672 156.79C487.046 157.497 484.279 160.619 484.946 164.04L486.909 163.658ZM491.054 158.753C493.941 158.191 496.344 159.72 496.738 161.742L498.701 161.359C498.034 157.938 494.298 156.083 490.672 156.79L491.054 158.753ZM336.102 281.775C336.496 283.797 334.843 286.117 331.957 286.679L332.339 288.642C335.965 287.936 338.732 284.814 338.065 281.392L336.102 281.775ZM331.957 286.679C329.071 287.242 326.667 285.713 326.273 283.691L324.31 284.074C324.977 287.495 328.713 289.349 332.339 288.642L331.957 286.679ZM326.273 283.691C325.879 281.669 327.532 279.349 330.418 278.787L330.035 276.824C326.409 277.531 323.643 280.653 324.31 284.074L326.273 283.691ZM330.418 278.787C333.304 278.224 335.708 279.753 336.102 281.775L338.065 281.392C337.398 277.971 333.661 276.117 330.035 276.824L330.418 278.787ZM328.442 549.419C328.836 551.441 327.183 553.761 324.297 554.324L324.679 556.287C328.305 555.58 331.072 552.458 330.405 549.037L328.442 549.419ZM324.297 554.324C321.41 554.886 319.007 553.357 318.613 551.335L316.65 551.718C317.317 555.139 321.053 556.994 324.679 556.287L324.297 554.324ZM318.613 551.335C318.219 549.313 319.872 546.994 322.758 546.431L322.375 544.468C318.749 545.175 315.983 548.297 316.65 551.718L318.613 551.335ZM322.758 546.431C325.644 545.869 328.047 547.397 328.442 549.419L330.405 549.037C329.738 545.616 326.001 543.761 322.375 544.468L322.758 546.431ZM369.425 452.712C369.819 454.734 368.166 457.053 365.28 457.616L365.663 459.579C369.289 458.872 372.055 455.75 371.388 452.329L369.425 452.712ZM365.28 457.616C362.394 458.179 359.991 456.65 359.597 454.628L357.634 455.01C358.301 458.432 362.037 460.286 365.663 459.579L365.28 457.616ZM359.597 454.628C359.203 452.606 360.855 450.286 363.742 449.723L363.359 447.76C359.733 448.467 356.967 451.589 357.634 455.01L359.597 454.628ZM363.742 449.723C366.628 449.161 369.031 450.69 369.425 452.712L371.388 452.329C370.721 448.908 366.985 447.054 363.359 447.76L363.742 449.723ZM487.5 429.693C487.894 431.715 486.241 434.035 483.355 434.598L483.738 436.561C487.364 435.854 490.13 432.732 489.463 429.311L487.5 429.693ZM483.355 434.598C480.469 435.161 478.066 433.632 477.672 431.609L475.709 431.992C476.376 435.413 480.112 437.268 483.738 436.561L483.355 434.598ZM477.672 431.609C477.277 429.587 478.93 427.268 481.816 426.705L481.434 424.742C477.808 425.449 475.042 428.571 475.709 431.992L477.672 431.609ZM481.816 426.705C484.703 426.143 487.106 427.671 487.5 429.693L489.463 429.311C488.796 425.89 485.06 424.035 481.434 424.742L481.816 426.705ZM-92.9555 276.7C-92.5614 278.722 -94.2142 281.042 -97.1004 281.604L-96.7177 283.567C-93.0917 282.861 -90.3256 279.738 -90.9925 276.317L-92.9555 276.7ZM-97.1004 281.604C-99.9867 282.167 -102.39 280.638 -102.784 278.616L-104.747 278.999C-104.08 282.42 -100.344 284.274 -96.7177 283.567L-97.1004 281.604ZM-102.784 278.616C-103.178 276.594 -101.525 274.274 -98.6391 273.712L-99.0218 271.749C-102.648 272.456 -105.414 275.578 -104.747 278.999L-102.784 278.616ZM-98.6391 273.712C-95.7528 273.149 -93.3497 274.678 -92.9555 276.7L-90.9925 276.317C-91.6594 272.896 -95.3957 271.042 -99.0218 271.749L-98.6391 273.712ZM-50.3076 181.119C-49.9134 183.141 -51.5662 185.461 -54.4525 186.023L-54.0698 187.986C-50.4438 187.279 -47.6776 184.157 -48.3445 180.736L-50.3076 181.119ZM-54.4525 186.023C-57.3387 186.586 -59.7418 185.057 -60.136 183.035L-62.099 183.418C-61.4321 186.839 -57.6958 188.693 -54.0698 187.986L-54.4525 186.023ZM-60.136 183.035C-60.5302 181.013 -58.8773 178.693 -55.9911 178.131L-56.3738 176.168C-59.9998 176.874 -62.766 179.997 -62.099 183.418L-60.136 183.035ZM-55.9911 178.131C-53.1049 177.568 -50.7018 179.097 -50.3076 181.119L-48.3445 180.736C-49.0115 177.315 -52.7478 175.461 -56.3738 176.168L-55.9911 178.131ZM924.1 619.784L829.208 638.283L829.59 640.246L924.483 621.747L924.1 619.784ZM830.098 638.55L769.261 579.111L767.863 580.541L828.7 639.98L830.098 638.55ZM769.478 580.226L803.534 502.289L801.702 501.488L767.646 579.426L769.478 580.226ZM802.809 502.87L897.702 484.371L897.319 482.408L802.426 500.907L802.809 502.87ZM896.812 484.104L957.649 543.543L959.046 542.113L898.209 482.674L896.812 484.104ZM957.431 542.428L923.375 620.366L925.208 621.166L959.264 543.228L957.431 542.428ZM831.138 636.701L921.717 619.043L921.334 617.08L830.756 634.738L831.138 636.701ZM922.442 618.462L954.95 544.07L953.117 543.269L920.609 617.661L922.442 618.462ZM954.732 542.954L896.662 486.219L895.264 487.65L953.335 544.384L954.732 542.954ZM895.771 485.953L805.193 503.611L805.576 505.574L896.154 487.916L895.771 485.953ZM804.468 504.192L771.96 578.585L773.793 579.385L806.301 504.993L804.468 504.192ZM772.177 579.7L830.248 636.435L831.646 635.004L773.575 578.27L772.177 579.7ZM519.345 768.158L425.53 786.447L425.913 788.41L519.727 770.121L519.345 768.158ZM426.421 786.713L365.579 727.269L364.181 728.7L425.023 788.144L426.421 786.713ZM365.796 728.385L399.466 651.338L397.633 650.537L363.964 727.584L365.796 728.385ZM398.296 651.905L401.84 652.833L402.346 650.898L398.803 649.97L398.296 651.905ZM401.177 651.465L368.282 726.742L370.114 727.543L403.009 652.266L401.177 651.465ZM368.499 727.858L426.57 784.595L427.968 783.165L369.897 726.427L368.499 727.858ZM427.46 784.862L519.118 766.994L518.735 765.031L427.078 782.899L427.46 784.862ZM517.945 766.203L518.554 769.331L520.518 768.949L519.908 765.821L517.945 766.203ZM672.27 808.02L577.377 826.519L577.759 828.482L672.652 809.983L672.27 808.02ZM578.267 826.785L517.43 767.346L516.032 768.777L576.869 828.216L578.267 826.785ZM517.648 768.462L551.703 690.524L549.871 689.723L515.815 767.661L517.648 768.462ZM550.978 691.105L645.871 672.606L645.489 670.643L550.596 689.142L550.978 691.105ZM644.981 672.34L705.818 731.779L707.216 730.348L646.379 670.91L644.981 672.34ZM705.601 730.663L671.545 808.601L673.377 809.402L707.433 731.464L705.601 730.663ZM579.308 824.94L669.887 807.282L669.504 805.319L578.925 822.977L579.308 824.94ZM670.612 806.701L703.119 732.308L701.287 731.507L668.779 805.9L670.612 806.701ZM702.902 731.193L644.831 674.458L643.434 675.889L701.504 732.623L702.902 731.193ZM643.941 674.192L553.363 691.85L553.745 693.813L644.324 676.155L643.941 674.192ZM552.638 692.431L520.13 766.823L521.962 767.624L554.47 693.232L552.638 692.431ZM520.347 767.939L578.418 824.674L579.815 823.243L521.745 766.508L520.347 767.939ZM729.762 866.123L670.311 808.032L668.914 809.463L728.364 867.553L729.762 866.123ZM670.212 809.548L673.143 807.355L671.945 805.754L669.013 807.947L670.212 809.548ZM671.845 807.27L731.299 865.359L732.697 863.929L673.243 805.839L671.845 807.27ZM731.399 863.843L728.465 866.037L729.662 867.639L732.597 865.445L731.399 863.843ZM825.099 847.199L821.555 846.268L821.047 848.202L824.591 849.133L825.099 847.199ZM822.218 847.635L855.112 772.355L853.28 771.554L820.385 846.834L822.218 847.635ZM854.894 771.239L795.396 713.158L793.999 714.589L853.497 772.67L854.894 771.239ZM795.297 714.674L798.225 712.481L797.026 710.88L794.098 713.073L795.297 714.674ZM796.927 712.396L857.815 771.828L859.212 770.397L798.324 710.965L796.927 712.396ZM857.597 770.712L823.929 847.765L825.761 848.566L859.43 771.513L857.597 770.712ZM798.491 713.842L794.953 712.906L794.442 714.84L797.979 715.775L798.491 713.842ZM795.614 714.274L829.327 637.215L827.494 636.414L793.782 713.472L795.614 714.274ZM828.156 637.782L831.696 638.713L832.205 636.779L828.665 635.848L828.156 637.782ZM831.035 637.345L797.319 714.408L799.151 715.209L832.867 638.147L831.035 637.345ZM856.243 770.952L956.026 751.5L955.644 749.537L855.861 768.989L856.243 770.952ZM954.853 750.71L955.462 753.832L957.425 753.449L956.816 750.327L954.853 750.71ZM956.252 752.659L856.469 772.111L856.852 774.074L956.635 754.622L956.252 752.659ZM857.642 772.901L857.034 769.779L855.071 770.162L855.679 773.284L857.642 772.901ZM319.237 580.707L377.397 637.532L378.794 636.101L320.634 579.276L319.237 580.707ZM377.179 636.416L344.622 710.926L346.455 711.726L379.012 637.217L377.179 636.416ZM345.347 710.344L254.63 728.029L255.013 729.992L345.73 712.307L345.347 710.344ZM255.52 728.296L197.364 671.47L195.966 672.901L254.123 729.726L255.52 728.296ZM197.582 672.586L230.135 598.077L228.302 597.276L195.749 671.785L197.582 672.586ZM229.41 598.658L320.127 580.973L319.744 579.01L229.027 596.695L229.41 598.658ZM321.42 575.171L226.028 593.768L226.411 595.731L321.803 577.134L321.42 575.171ZM225.303 594.349L191.07 672.697L192.903 673.498L227.136 595.149L225.303 594.349ZM191.288 673.813L252.442 733.56L253.84 732.129L192.685 672.382L191.288 673.813ZM253.332 733.826L348.724 715.23L348.341 713.267L252.949 731.863L253.332 733.826ZM349.449 714.649L383.687 636.305L381.854 635.505L347.616 713.848L349.449 714.649ZM383.469 635.19L322.31 575.437L320.913 576.868L382.072 636.62L383.469 635.19ZM370.612 726.683C371.023 728.788 369.303 731.19 366.318 731.772L366.701 733.735C370.425 733.009 373.258 729.804 372.575 726.301L370.612 726.683ZM366.318 731.772C363.333 732.354 360.837 730.774 360.427 728.669L358.464 729.052C359.147 732.555 362.976 734.461 366.701 733.735L366.318 731.772ZM360.427 728.669C360.017 726.565 361.736 724.163 364.721 723.581L364.339 721.618C360.614 722.344 357.781 725.548 358.464 729.052L360.427 728.669ZM364.721 723.581C367.706 722.999 370.202 724.579 370.612 726.683L372.575 726.301C371.892 722.797 368.063 720.892 364.339 721.618L364.721 723.581ZM404.618 650.776C405.028 652.88 403.308 655.282 400.323 655.864L400.706 657.827C404.431 657.101 407.264 653.896 406.581 650.393L404.618 650.776ZM400.323 655.864C397.338 656.446 394.842 654.866 394.432 652.761L392.469 653.144C393.152 656.647 396.981 658.553 400.706 657.827L400.323 655.864ZM394.432 652.761C394.022 650.657 395.742 648.255 398.726 647.673L398.344 645.71C394.619 646.436 391.786 649.64 392.469 653.144L394.432 652.761ZM398.726 647.673C401.711 647.091 404.208 648.671 404.618 650.776L406.581 650.393C405.898 646.889 402.068 644.984 398.344 645.71L398.726 647.673ZM558.5 690.056C558.91 692.16 557.19 694.562 554.205 695.144L554.588 697.107C558.313 696.381 561.146 693.176 560.463 689.673L558.5 690.056ZM554.205 695.144C551.22 695.726 548.724 694.146 548.314 692.041L546.351 692.424C547.034 695.927 550.863 697.833 554.588 697.107L554.205 695.144ZM548.314 692.041C547.904 689.937 549.624 687.535 552.608 686.953L552.226 684.99C548.501 685.716 545.668 688.92 546.351 692.424L548.314 692.041ZM552.608 686.953C555.593 686.371 558.089 687.951 558.5 690.056L560.463 689.673C559.78 686.169 555.95 684.264 552.226 684.99L552.608 686.953ZM835.238 636.106C835.648 638.211 833.929 640.613 830.944 641.195L831.326 643.158C835.051 642.432 837.884 639.227 837.201 635.724L835.238 636.106ZM830.944 641.195C827.959 641.777 825.463 640.196 825.053 638.092L823.09 638.475C823.773 641.978 827.602 643.884 831.326 643.158L830.944 641.195ZM825.053 638.092C824.642 635.988 826.362 633.586 829.347 633.004L828.964 631.041C825.24 631.767 822.407 634.971 823.09 638.475L825.053 638.092ZM829.347 633.004C832.332 632.422 834.828 634.002 835.238 636.106L837.201 635.724C836.518 632.22 832.689 630.315 828.964 631.041L829.347 633.004ZM735.983 866.583C736.393 868.687 734.673 871.089 731.689 871.671L732.071 873.634C735.796 872.908 738.629 869.704 737.946 866.2L735.983 866.583ZM731.689 871.671C728.704 872.253 726.208 870.673 725.797 868.569L723.834 868.951C724.517 872.455 728.347 874.36 732.071 873.634L731.689 871.671ZM725.797 868.569C725.387 866.464 727.107 864.062 730.092 863.48L729.709 861.517C725.984 862.243 723.151 865.448 723.834 868.951L725.797 868.569ZM730.092 863.48C733.077 862.898 735.573 864.479 735.983 866.583L737.946 866.2C737.263 862.697 733.434 860.791 729.709 861.517L730.092 863.48ZM583.435 824.738C583.846 826.843 582.126 829.245 579.141 829.826L579.524 831.79C583.248 831.063 586.081 827.859 585.398 824.355L583.435 824.738ZM579.141 829.826C576.156 830.408 573.66 828.828 573.25 826.724L571.287 827.106C571.97 830.61 575.799 832.516 579.524 831.79L579.141 829.826ZM573.25 826.724C572.84 824.619 574.559 822.217 577.544 821.635L577.162 819.672C573.437 820.398 570.604 823.603 571.287 827.106L573.25 826.724ZM577.544 821.635C580.529 821.054 583.025 822.634 583.435 824.738L585.398 824.355C584.715 820.852 580.886 818.946 577.162 819.672L577.544 821.635ZM955.158 752.272C955.568 754.377 953.849 756.779 950.864 757.361L951.246 759.324C954.971 758.597 957.804 755.393 957.121 751.89L955.158 752.272ZM950.864 757.361C947.879 757.942 945.383 756.362 944.973 754.258L943.009 754.641C943.692 758.144 947.522 760.05 951.246 759.324L950.864 757.361ZM944.973 754.258C944.562 752.153 946.282 749.751 949.267 749.169L948.884 747.206C945.16 747.933 942.326 751.137 943.009 754.641L944.973 754.258ZM949.267 749.169C952.252 748.588 954.748 750.168 955.158 752.272L957.121 751.89C956.438 748.386 952.609 746.48 948.884 747.206L949.267 749.169ZM861.446 770.541C861.856 772.645 860.136 775.048 857.151 775.629L857.534 777.592C861.259 776.866 864.092 773.662 863.409 770.158L861.446 770.541ZM857.151 775.629C854.166 776.211 851.67 774.631 851.26 772.527L849.297 772.909C849.98 776.413 853.809 778.319 857.534 777.592L857.151 775.629ZM851.26 772.527C850.85 770.422 852.57 768.02 855.555 767.438L855.172 765.475C851.447 766.201 848.614 769.406 849.297 772.909L851.26 772.527ZM855.555 767.438C858.539 766.856 861.036 768.437 861.446 770.541L863.409 770.158C862.726 766.655 858.896 764.749 855.172 765.475L855.555 767.438ZM469.538 472.131L525.9 527.204L527.298 525.774L470.936 470.701L469.538 472.131ZM525.683 526.088L494.133 598.293L495.965 599.094L527.516 526.889L525.683 526.088ZM494.858 597.712L406.943 614.851L407.326 616.814L495.24 599.675L494.858 597.712ZM407.833 615.117L351.468 560.051L350.071 561.481L406.435 616.547L407.833 615.117ZM351.686 561.167L383.238 488.955L381.406 488.154L349.853 560.366L351.686 561.167ZM382.513 489.536L470.428 472.398L470.045 470.435L382.131 487.573L382.513 489.536ZM471.721 466.592L379.131 484.643L379.514 486.606L472.104 468.555L471.721 466.592ZM378.406 485.224L345.177 561.274L347.01 562.075L380.239 486.024L378.406 485.224ZM345.395 562.39L404.755 620.384L406.153 618.954L346.793 560.959L345.395 562.39ZM405.645 620.65L498.235 602.6L497.853 600.637L405.263 618.687L405.645 620.65ZM498.96 602.019L532.19 525.975L530.357 525.174L497.128 601.218L498.96 602.019ZM531.972 524.859L472.611 466.859L471.213 468.289L530.575 526.29L531.972 524.859ZM112.117 524.813L168.48 579.886L169.878 578.456L113.515 523.383L112.117 524.813ZM168.262 578.771L136.713 650.978L138.546 651.779L170.095 579.571L168.262 578.771ZM137.438 650.397L49.5229 667.536L49.9056 669.499L137.821 652.36L137.438 650.397ZM50.4131 667.802L-5.95227 612.733L-7.34993 614.164L49.0154 669.233L50.4131 667.802ZM-5.73477 613.849L25.8178 541.637L23.9851 540.836L-7.56746 613.048L-5.73477 613.849ZM25.0928 542.218L113.008 525.08L112.625 523.117L24.7101 540.255L25.0928 542.218ZM114.301 519.278L21.7111 537.328L22.0938 539.291L114.684 521.241L114.301 519.278ZM20.9861 537.909L-12.2425 613.959L-10.4098 614.76L22.8188 538.71L20.9861 537.909ZM-12.025 615.075L47.3357 673.072L48.7334 671.642L-10.6273 613.644L-12.025 615.075ZM48.2259 673.339L140.816 655.289L140.433 653.326L47.8432 671.376L48.2259 673.339ZM141.541 654.707L174.774 578.659L172.941 577.858L139.708 653.907L141.541 654.707ZM174.556 577.544L115.191 519.544L113.794 520.974L173.159 578.974L174.556 577.544Z" fill="#2E6F86" fill-opacity="0.3" mask="url(#path-1-inside-1)"/>
<path d="M2064.62 996.89L1905.37 758.611C1901.54 752.753 1892.74 747.909 1885.57 747.711L1599.05 734.21C1591.88 734.013 1589.46 738.413 1593.29 744.271L1752.23 981.932C1756.06 987.79 1764.86 992.634 1772.03 992.832L2058.54 1006.33C2066.03 1007.15 2068.46 1002.75 2064.62 996.89Z" fill="#0E2538"/>
<path d="M2067.46 1001.65L2222.44 743.877C2225.86 737.431 2227.41 727.109 2224.28 720.648L2108.21 448.982C2105.08 442.521 2099.85 441.863 2096.43 448.308L1941.45 706.084C1938.03 712.53 1936.48 722.852 1939.61 729.314L2055.68 1000.98C2058.14 1007.76 2064.03 1008.1 2067.46 1001.65Z" fill="#0E2538"/>
<path d="M1957.76 475.463C1958.57 475.732 1958.83 477.074 1957.76 477.611L1928.76 494.245L1914.53 487.526L1941.12 472.234C1943.26 470.892 1947.02 470.625 1949.44 471.7L1957.76 475.463Z" fill="#0E2538"/>
<path d="M1947.81 519.744L1909.94 541.744C1909.67 542.013 1909.13 542.012 1908.86 541.744L1864.57 522.393C1861.35 521.049 1861.08 518.364 1864.31 516.486L1898.68 496.632L1912.91 503.351L1898.94 511.399C1898.14 511.936 1898.14 513.01 1898.94 513.547L1913.44 519.998C1913.71 520.266 1914.24 519.998 1914.51 519.998L1929.55 511.413L1947.81 519.744Z" fill="#0E2538"/>
<path d="M1945.66 502.033L1929.55 511.423L1912.9 503.63L1928.75 494.239L1945.66 502.033Z" fill="#0E2538"/>
<path d="M1928.75 494.237L1912.9 503.628L1898.68 496.909L1914.79 487.787L1928.75 494.237Z" fill="#0E2538"/>
<path d="M1906.74 484.024L1914.52 487.786L1898.68 496.908L1892.5 493.952C1891.97 493.683 1891.97 492.878 1892.5 492.341L1905.93 484.024C1906.2 484.024 1906.47 484.024 1906.74 484.024Z" fill="#0E2538"/>
<path d="M1875.79 575.32C1880.65 574.69 1882.86 577.765 1880.07 581.984L1857.91 620.454L1822.31 623.608L1828.11 613.3C1828.71 612.082 1827.96 610.777 1826.6 610.69L1804.46 613.034C1803.94 612.897 1803.48 613.6 1803.15 613.788L1796.43 625.503L1768.4 628.201L1793.49 584.997C1793.63 584.482 1794.28 584.105 1794.79 584.243L1875.79 575.32Z" fill="#0E2538"/>
<path d="M1867.48 619.713C1868.32 619.662 1868.89 620.641 1868.61 621.671L1857.16 641.772C1857.02 642.287 1856.7 642.475 1856.18 642.338L1844.92 643.184L1857.91 620.458L1867.48 619.713Z" fill="#0E2538"/>
<path d="M1857.9 620.446L1844.92 643.172L1809.32 646.326L1822.3 623.6L1857.9 620.446Z" fill="#0E2538"/>
<path d="M1844.93 643.189L1817.85 689.721C1816.18 692.859 1811.61 695.497 1808.11 696.215L1781.95 699.138C1780.78 699.377 1779.52 697.934 1780.44 696.528L1809.33 646.343L1844.93 643.189Z" fill="#0E2538"/>
<path d="M1822.31 623.617L1809.33 646.343L1783.45 648.237L1796.29 626.026L1822.31 623.617Z" fill="#0E2538"/>
<path d="M1796.3 626.026L1783.45 648.237L1755.42 650.936L1768.41 628.21L1796.3 626.026Z" fill="#0E2538"/>
<path d="M1764.42 587.424C1765.59 587.185 1766.86 588.628 1765.93 590.035L1742.38 630.615L1720.37 632.445L1741.93 595.192C1743.6 592.053 1747.98 589.089 1751.67 588.698L1764.42 587.424Z" fill="#0E2538"/>
<path d="M1783.44 648.213L1752.88 701.537C1752.75 702.051 1752.09 702.428 1751.58 702.29L1684.17 709.889C1679.32 710.519 1677.11 707.445 1679.7 702.9L1707.52 654.636L1729.53 652.806L1718.21 672.393C1717.61 673.61 1718.36 674.916 1719.72 675.003L1741.86 672.658C1742.38 672.796 1742.84 672.093 1743.17 671.905L1755.41 650.911L1783.44 648.213Z" fill="#0E2538"/>
<path d="M1768.4 628.213L1755.41 650.939L1729.72 653.159L1742.38 630.622L1768.4 628.213Z" fill="#0E2538"/>
<path d="M1742.38 630.616L1729.73 653.153L1707.72 654.983L1720.89 632.584L1742.38 630.616Z" fill="#0E2538"/>
<path d="M1708.45 633.662L1720.55 632.766L1707.71 654.977L1698.13 655.721C1697.29 655.772 1696.73 654.793 1697 653.764L1707.48 634.227C1707.8 634.039 1708.13 633.851 1708.45 633.662Z" fill="#0E2538"/>
<path d="M1752.01 537.605C1754.41 540.133 1753.58 542.698 1749.98 542.872L1718.53 546.319L1701.73 527.177L1710.1 526.17C1711.05 526.004 1711.49 525.021 1710.97 524.205L1700.3 512.459C1700.16 512.105 1699.56 512.134 1699.32 512.026L1689.75 513.091L1676.4 498.109L1711.8 494.351C1712.16 494.213 1712.65 494.43 1712.79 494.784L1752.01 537.605Z" fill="#0E2538"/>
<path d="M1722.99 551.514C1723.37 551.976 1723.04 552.713 1722.34 552.988L1705.96 554.863C1705.6 555.001 1705.36 554.892 1705.22 554.538L1699.99 548.42L1718.53 546.32L1722.99 551.514Z" fill="#0E2538"/>
<path d="M1718.53 546.315L1700 548.415L1683.21 529.273L1701.74 527.173L1718.53 546.315Z" fill="#0E2538"/>
<path d="M1699.99 548.434L1661.84 552.446C1659.33 552.808 1655.89 551.291 1654.01 549.579L1641.32 535.768C1640.69 535.197 1640.98 533.861 1642.18 533.803L1683.2 529.291L1699.99 548.434Z" fill="#0E2538"/>
<path d="M1701.73 527.184L1683.2 529.284L1671.22 515.198L1689.4 513.235L1701.73 527.184Z" fill="#0E2538"/>
<path d="M1689.4 513.231L1671.22 515.194L1657.87 500.212L1676.4 498.112L1689.4 513.231Z" fill="#0E2538"/>
<path d="M1698.18 478.662C1698.81 479.233 1698.51 480.57 1697.31 480.628L1664.06 484.162L1653.75 472.279L1684.24 468.999C1686.75 468.637 1690.3 469.908 1692.08 471.865L1698.18 478.662Z" fill="#0E2538"/>
<path d="M1671.22 515.176L1627.7 520.049C1627.35 520.186 1626.85 519.969 1626.72 519.615L1593.98 484.054C1591.57 481.526 1592.41 478.961 1596.12 478.541L1635.58 474.225L1645.89 486.108L1629.87 487.846C1628.91 488.012 1628.48 488.995 1629 489.811L1639.67 501.557C1639.8 501.911 1640.4 501.882 1640.65 501.99L1657.87 500.194L1671.22 515.176Z" fill="#0E2538"/>
<path d="M1676.4 498.107L1657.87 500.207L1645.78 486.366L1664.06 484.158L1676.4 498.107Z" fill="#0E2538"/>
<path d="M1664.06 484.167L1645.78 486.375L1635.47 474.493L1653.89 472.639L1664.06 484.167Z" fill="#0E2538"/>
<path d="M1648.03 465.938L1653.64 472.519L1635.46 474.481L1631.01 469.288C1630.62 468.825 1630.95 468.088 1631.66 467.814L1647.3 465.613C1647.54 465.722 1647.79 465.83 1648.03 465.938Z" fill="#0E2538"/>
<path d="M1875.18 322.362C1877.87 320.139 1880.37 321.155 1880.29 324.756L1881.51 356.371L1861.24 371.778L1860.82 363.361C1860.72 362.398 1859.77 361.897 1858.92 362.359L1846.46 372.173C1846.09 372.285 1846.08 372.885 1845.95 373.122L1846.34 382.739L1830.46 395L1829.2 359.421C1829.09 359.059 1829.34 358.584 1829.7 358.472L1875.18 322.362Z" fill="#0E2538"/>
<path d="M1887 352.288C1887.49 351.938 1888.2 352.314 1888.43 353.04L1889.15 369.51C1889.26 369.873 1889.13 370.11 1888.77 370.222L1882.3 375.004L1881.51 356.37L1887 352.288Z" fill="#0E2538"/>
<path d="M1881.51 356.371L1882.3 375.004L1862.02 390.411L1861.23 371.778L1881.51 356.371Z" fill="#0E2538"/>
<path d="M1882.31 375.009L1883.63 413.352C1883.81 415.878 1882.06 419.202 1880.22 420.963L1865.55 432.65C1864.94 433.237 1863.62 432.848 1863.65 431.648L1862.04 390.416L1882.31 375.009Z" fill="#0E2538"/>
<path d="M1861.24 371.785L1862.03 390.418L1847.14 401.38L1846.46 383.109L1861.24 371.785Z" fill="#0E2538"/>
<path d="M1846.47 383.11L1847.14 401.381L1831.26 413.642L1830.47 395.008L1846.47 383.11Z" fill="#0E2538"/>
<path d="M1812.59 371.914C1813.21 371.327 1814.52 371.717 1814.49 372.917L1815.68 406.332L1803.1 415.783L1801.97 385.132C1801.79 382.606 1803.31 379.156 1805.38 377.52L1812.59 371.914Z" fill="#0E2538"/>
<path d="M1847.13 401.376L1848.93 445.134C1849.04 445.497 1848.79 445.972 1848.42 446.084L1810.65 476.238C1807.96 478.461 1805.46 477.445 1805.3 473.718L1803.77 434.05L1816.35 424.599L1816.96 440.706C1817.05 441.669 1818 442.17 1818.86 441.709L1831.32 431.895C1831.69 431.783 1831.7 431.182 1831.82 430.945L1831.24 413.637L1847.13 401.376Z" fill="#0E2538"/>
<path d="M1830.47 395.011L1831.26 413.645L1816.6 424.732L1815.68 406.335L1830.47 395.011Z" fill="#0E2538"/>
<path d="M1815.68 406.323L1816.59 424.719L1804.01 434.171L1803.46 415.662L1815.68 406.323Z" fill="#0E2538"/>
<path d="M1796.37 421.032L1803.33 415.901L1804.01 434.172L1798.51 438.254C1798.02 438.604 1797.31 438.228 1797.09 437.502L1795.99 421.744C1796.12 421.507 1796.24 421.269 1796.37 421.032Z" fill="#0E2538"/>
<path d="M1712.17 384.308C1713.86 385.651 1713.57 387.296 1711.38 387.713L1692.39 392.533L1680.44 382.239L1685.48 380.902C1686.05 380.718 1686.23 380.078 1685.84 379.622L1678.29 373.337C1678.18 373.132 1677.81 373.201 1677.65 373.156L1671.88 374.632L1662.4 366.593L1683.79 361.242C1683.99 361.127 1684.31 361.218 1684.43 361.423L1712.17 384.308Z" fill="#0E2538"/>
<path d="M1695.55 395.319C1695.83 395.57 1695.69 396.05 1695.28 396.279L1685.4 398.838C1685.19 398.953 1685.03 398.908 1684.92 398.703L1681.19 395.4L1692.37 392.518L1695.55 395.319Z" fill="#0E2538"/>
<path d="M1692.38 392.531L1681.2 395.414L1669.25 385.12L1680.43 382.238L1692.38 392.531Z" fill="#0E2538"/>
<path d="M1681.2 395.415L1658.14 401.158C1656.64 401.596 1654.4 400.962 1653.09 400.074L1644.12 392.696C1643.69 392.401 1643.76 391.555 1644.49 391.417L1669.25 385.121L1681.2 395.415Z" fill="#0E2538"/>
<path d="M1680.43 382.242L1669.25 385.125L1660.69 377.517L1671.67 374.75L1680.43 382.242Z" fill="#0E2538"/>
<path d="M1671.67 374.742L1660.69 377.509L1651.21 369.47L1662.4 366.588L1671.67 374.742Z" fill="#0E2538"/>
<path d="M1674.07 352.777C1674.5 353.073 1674.44 353.918 1673.71 354.057L1653.62 359.085L1646.27 352.685L1664.69 348.05C1666.2 347.612 1668.49 348.086 1669.74 349.134L1674.07 352.777Z" fill="#0E2538"/>
<path d="M1660.69 377.503L1634.42 384.236C1634.21 384.351 1633.89 384.261 1633.78 384.055L1610.64 365.065C1608.95 363.721 1609.24 362.076 1611.48 361.5L1635.3 355.458L1642.65 361.857L1632.97 364.302C1632.4 364.486 1632.22 365.126 1632.61 365.582L1640.16 371.867C1640.28 372.072 1640.64 372.003 1640.8 372.048L1651.21 369.464L1660.69 377.503Z" fill="#0E2538"/>
<path d="M1662.4 366.586L1651.21 369.468L1642.61 362.021L1653.63 359.094L1662.4 366.586Z" fill="#0E2538"/>
<path d="M1653.63 359.083L1642.6 362.011L1635.26 355.611L1646.4 352.889L1653.63 359.083Z" fill="#0E2538"/>
<path d="M1642.24 349.311L1646.25 352.864L1635.27 355.631L1632.09 352.83C1631.81 352.579 1631.95 352.1 1632.36 351.87L1641.76 349.175C1641.92 349.22 1642.08 349.266 1642.24 349.311Z" fill="#0E2538"/>
</svg>
