<svg width="20" height="20" viewBox="0 0 20 20" fill="none" xmlns="http://www.w3.org/2000/svg">
<path d="M9.57143 18.6975C11.8447 18.6975 14.0249 17.7945 15.6323 16.187C17.2398 14.5796 18.1429 12.3994 18.1429 10.1261C18.1429 7.85283 17.2398 5.67266 15.6323 4.0652C14.0249 2.45775 11.8447 1.55469 9.57143 1.55469C7.29814 1.55469 5.11797 2.45775 3.51051 4.0652C1.90306 5.67266 1 7.85283 1 10.1261C1 12.3994 1.90306 14.5796 3.51051 16.187C5.11797 17.7945 7.29814 18.6975 9.57143 18.6975V18.6975ZM7.42857 6.91183C7.14441 6.91183 6.87189 7.02471 6.67096 7.22565C6.47003 7.42658 6.35714 7.6991 6.35714 7.98326V12.269C6.35714 12.5531 6.47003 12.8257 6.67096 13.0266C6.87189 13.2275 7.14441 13.3404 7.42857 13.3404H11.7143C11.9984 13.3404 12.271 13.2275 12.4719 13.0266C12.6728 12.8257 12.7857 12.5531 12.7857 12.269V7.98326C12.7857 7.6991 12.6728 7.42658 12.4719 7.22565C12.271 7.02471 11.9984 6.91183 11.7143 6.91183H7.42857Z" stroke="white" stroke-width="2" stroke-linecap="round" stroke-linejoin="round"/>
</svg>
