<svg width="49" height="50" viewBox="0 0 49 50" fill="none" xmlns="http://www.w3.org/2000/svg">
<path d="M24.9712 48.8447L22.3435 25.3271C22.2778 24.7359 21.818 24.0789 21.2924 23.7505L0.796637 11.8603C0.271104 11.5975 -0.0573626 11.7946 0.00832906 12.3858L2.636 35.9035C2.70169 36.4947 3.16153 37.1516 3.68707 37.48L24.1829 49.3702C24.7084 49.633 25.0369 49.4359 24.9712 48.8447Z" fill="#F05359"/>
<path d="M26.9419 49.5672L46.6494 36.4289C47.1092 36.1004 47.5691 35.3778 47.5691 34.7866L48.6858 11.1376C48.6858 10.5464 48.3574 10.3493 47.8318 10.6778L28.1243 23.8161C27.6645 24.1446 27.2046 24.8672 27.2046 25.4584L26.0879 49.1074C26.0879 49.6986 26.4163 49.8957 26.9419 49.5672Z" fill="url(#paint0_linear)"/>
<path d="M42.7728 7.78792C43.4954 8.11638 43.4954 8.64192 42.8385 9.03607L36.9262 12.452L31.9336 10.1528L33.5102 9.23314C33.7073 9.10176 33.7073 8.83899 33.5102 8.7733L30.4227 7.39378C30.3571 7.32809 30.2914 7.39378 30.2257 7.39378L28.452 8.44484L24.5762 6.60547L31.211 2.79536C31.2767 2.72967 31.3424 2.72967 31.4081 2.79536L42.7728 7.78792Z" fill="#F05359"/>
<path d="M38.2408 12.9779C38.3722 13.0436 38.3722 13.2407 38.2408 13.3064L35.219 15.0801C35.1533 15.0801 35.0876 15.1458 35.0219 15.0801L33.4453 14.3575L36.927 12.3867L38.2408 12.9779Z" fill="#565656"/>
<path d="M36.9261 12.3851L33.4445 14.4216L28.5176 12.0567L31.9336 10.0859L36.9261 12.3851Z" fill="#565656"/>
<path d="M33.4449 14.4228L26.3502 18.4957C25.8904 18.7584 25.1021 18.8241 24.5765 18.5614L20.8978 16.9191C20.7007 16.8534 20.7007 16.5906 20.8978 16.4592L28.5837 11.9922L33.4449 14.4228Z" fill="#F05359"/>
<path d="M31.934 10.0876L28.5181 12.0584L24.9707 10.4161L28.3867 8.44531L31.934 10.0876Z" fill="#565656"/>
<path d="M28.3868 8.44484L24.9708 10.4156L21.0293 8.57622L24.511 6.60547L28.3868 8.44484Z" fill="#F05359"/>
<path d="M27.0718 0.889882C27.2689 0.955574 27.2689 1.21834 27.0718 1.34972L20.8968 4.89708L17.875 3.51755L23.5902 0.232965C24.05 -0.0298014 24.8383 -0.0954871 25.3638 0.16728L27.0718 0.889882Z" fill="#F05359"/>
<path d="M24.9708 10.4152L16.8907 15.0793C16.8251 15.145 16.7593 15.145 16.6937 15.0793L7.23406 10.9407C6.51145 10.6122 6.51144 10.0867 7.16836 9.69255L14.5258 5.48828L17.5477 6.9335L14.5915 8.64148C14.3945 8.77287 14.3945 9.03563 14.5915 9.10132L17.679 10.4809C17.7447 10.5465 17.8104 10.4809 17.8761 10.4809L21.095 8.64148L24.9708 10.4152Z" fill="#F05359"/>
<path d="M24.5114 6.60446L21.0298 8.57521L17.4824 6.86723L20.8984 4.89648L24.5114 6.60446Z" fill="#565656"/>
<path d="M20.8987 4.89711L17.4828 6.86786L14.4609 5.48833L17.8769 3.51758L20.8987 4.89711Z" fill="#565656"/>
<path d="M16.1672 2.72852L17.8752 3.51681L14.4592 5.48756L13.1454 4.89634C13.014 4.83065 13.014 4.63358 13.1454 4.56788L16.0358 2.79421C16.0358 2.72852 16.1015 2.72852 16.1672 2.72852Z" fill="#565656"/>
<defs>
<linearGradient id="paint0_linear" x1="26.0964" y1="30.1117" x2="48.6483" y2="30.1117" gradientUnits="userSpaceOnUse">
<stop offset="0.3007" stop-color="#A51D30"/>
<stop offset="1" stop-color="#F05359"/>
</linearGradient>
</defs>
</svg>
