<?xml version="1.0" encoding="utf-8"?>
<!-- Svg Vector Icons : http://www.onlinewebfonts.com/icon -->
<!DOCTYPE svg PUBLIC "-//W3C//DTD SVG 1.1//EN" "http://www.w3.org/Graphics/SVG/1.1/DTD/svg11.dtd">
<svg version="1.1" xmlns="http://www.w3.org/2000/svg" xmlns:xlink="http://www.w3.org/1999/xlink" x="0px" y="0px" viewBox="0 0 1000 1000" enable-background="new 0 0 1000 1000" xml:space="preserve">
<metadata> Svg Vector Icons : http://www.onlinewebfonts.com/icon </metadata>
<g><g transform="translate(0.000000,512.000000) scale(0.100000,-0.100000)"><path d="M4654,5003.5c-914.3-93.9-1761.6-552.1-2325.1-1253.6c-492.6-615.3-741.8-1318.8-741.8-2100.9c0-1301.5,745.6-2470.8,1939.8-3036.3C4613.7-1902.8,5903.8-1807,6906.3-1138C7489-750.8,7908.8-239,8171.4,403.1c320.1,780.2,322,1704.1,5.7,2482.3c-320.1,791.7-927.7,1435.7-1706,1803.8C5911.4,4953.7,5265.5,5064.9,4654,5003.5z M5439.9,4689.2c877.9-124.6,1660-613.4,2150.7-1339.9c534.8-791.6,669-1752,368-2654.8c-322.1-968-1138.6-1734.7-2137.3-2003.1C4378-1695.8,2867.5-1023,2198.5,307.3c-358.4,713.1-415.9,1529.7-159.1,2302.1c289.4,868.3,966.1,1569.9,1842.1,1905.3c197.4,76.7,513.7,157.2,705.4,182.1C4801.6,4723.7,5221.4,4719.8,5439.9,4689.2z"/><path d="M4845.7,3734.6v-295.2l-105.4-23c-557.8-124.6-883.7-682.4-699.6-1201.9c95.8-274.1,337.4-469.6,853-688.1c277.9-118.8,408.3-199.4,525.2-327.8c147.6-161,187.8-333.5,124.6-546.3c-23-80.5-53.7-126.5-138-208.9c-153.3-147.6-254.9-182.1-540.6-180.2c-258.8,0-394.9,32.6-628.7,143.8c-88.2,42.2-164.9,74.8-168.7,70.9c-3.8-3.8-34.5-88.2-69-184c-59.4-172.5-59.4-178.3-23-205.1c120.8-92,555.9-220.4,751.4-220.4h80.5v-297.1v-297.1h172.5h170.6l5.8,300.9l5.7,302.9l118.8,30.7c483.1,126.5,772.5,486.9,772.5,966.1c0,310.5-82.4,496.4-308.6,707.3c-109.3,101.6-187.9,151.4-398.7,253c-143.8,69-337.4,164.9-433.2,210.8c-316.3,155.3-435.1,300.9-435.1,534.8c0,162.9,70.9,300.9,201.3,387.2c124.6,84.3,220.4,107.3,425.5,107.3c201.3-1.9,381.5-40.3,557.8-120.8c70.9-30.7,130.4-57.5,132.3-57.5c3.8,0,13.4,23,24.9,53.7c9.6,28.8,40.3,109.3,67.1,182.1l49.8,128.4l-111.2,55.6c-134.2,69-312.4,116.9-490.7,134.2l-134.2,11.5l-5.7,283.7l-5.8,281.8h-170.6h-172.5V3734.6z"/><path d="M6383-2648.5c-233.9-233.9-425.5-435.1-425.5-444.7c0-24.9,176.4-201.3,201.3-201.3c9.6,0,128.4,109.3,262.6,243.5l245.4,245.4v-973.8v-971.8H6820h153.3v983.3v981.4l245.4-254.9c134.2-139.9,253-253,262.6-253c11.5,0,65.2,46,120.8,101.6l99.7,99.7l-437,437c-239.6,239.6-439,435.1-444.7,435.1S6618.8-2412.7,6383-2648.5z"/><path d="M3024.7-3231.2V-4205L2769.8-3950l-253,253l-105.4-105.4l-105.4-105.4l437-437L3178-4780l435.1,435.1l437,437l-105.4,105.4L3839.4-3697l-253-253L3331.4-4205v973.8v971.8H3178h-153.3V-3231.2z"/></g></g>
</svg>