<?xml version="1.0" encoding="utf-8"?>
<!-- Svg Vector Icons : http://www.onlinewebfonts.com/icon -->
<!DOCTYPE svg PUBLIC "-//W3C//DTD SVG 1.1//EN" "http://www.w3.org/Graphics/SVG/1.1/DTD/svg11.dtd">
<svg version="1.1" xmlns="http://www.w3.org/2000/svg" xmlns:xlink="http://www.w3.org/1999/xlink" x="0px" y="0px" viewBox="0 0 1000 1000" enable-background="new 0 0 1000 1000" xml:space="preserve">
<metadata> Svg Vector Icons : http://www.onlinewebfonts.com/icon </metadata>
<g><g transform="translate(0.000000,512.000000) scale(0.100000,-0.100000)"><path d="M4530.1,5007.9C3375.4,4889,2341.7,4400,1530.4,3588.6C751.6,2809.9,287.5,1860.5,124.4,723.1c-32.6-226.3-32.6-982,0-1208.3c163-1137.4,629.1-2086.8,1405.9-2865.5c776.8-776.8,1730-1244.8,2865.5-1405.9c226.3-32.6,982-32.6,1208.3,0c939.8,134.3,1779.9,491,2474.2,1053c987.8,797.9,1611.1,1916.1,1797.2,3218.4c32.6,226.3,32.6,982,0,1208.3c-161.1,1135.5-629.1,2088.7-1405.9,2865.5c-759.5,759.5-1687.8,1223.7-2779.2,1392.5C5448.8,5017.5,4775.6,5034.8,4530.1,5007.9z M5537,4586c801.7-92.1,1611.1-431.5,2267.1-949.4c180.3-141.9,571.6-533.2,713.5-713.5C9025.9,2276.7,9348.1,1521,9461.2,704c42.2-308.8,42.2-865,0-1170c-113.2-819-435.4-1572.8-943.6-2219.1c-141.9-180.3-533.2-571.6-713.5-713.5C7157.7-3906.9,6404-4229.1,5585-4342.3c-305-42.2-861.2-42.2-1170,0c-819,113.2-1567,431.6-2219.1,943.7c-203.3,159.2-617.6,583.1-774.9,794.1c-489.1,654-792.1,1400.1-891.9,2201.8c-28.8,234-28.8,820.9,0,1049.1c105.5,811.3,397,1536.3,884.2,2186.5c182.2,245.5,627.2,690.5,872.7,872.7c734.6,548.5,1549.7,847.8,2483.8,909.1C4919.4,4624.4,5343.3,4609,5537,4586z"/><path d="M4606.8,3780.4c-928.3-95.9-1820.2-571.6-2422.4-1292.7C636.6,640.7,1238.8-2150,3410-3199.1c1825.9-880.4,4022-107.4,4906.2,1726.2c728.8,1511.4,337.6,3331.6-947.5,4407.6C6599.6,3579,5604.2,3884,4606.8,3780.4z M5266.6,3379.6C7232.5,3205,8602,1373.3,8203-548.5c-201.4-966.7-836.2-1793.3-1730-2249.8c-1053-535.1-2303.5-458.4-3295.1,203.3C1820-1687.8,1340.5,111.3,2067.4,1565.1c552.4,1106.7,1641.8,1795.2,2894.2,1831.7C5009.6,3396.8,5145.8,3389.2,5266.6,3379.6z"/><path d="M4867.7,2332.3c-65.2-46-97.8-141.9-97.8-283.9c0-120.8-1.9-126.6-51.8-136.2c-337.6-72.9-583.1-255.1-711.6-525.5c-63.3-130.4-69-159.2-76.7-354.8c-7.7-182.2-1.9-230.2,34.5-335.6c101.7-305,220.6-399,1010.8-796c627.2-316.5,696.2-379.8,696.2-646.4c0-157.3-47.9-274.3-151.5-368.2c-134.3-118.9-262.8-157.3-529.4-157.3c-251.3,0-372.1,36.4-504.4,153.4c-99.7,88.2-136.2,164.9-157.3,331.8c-11.5,86.3-28.8,136.2-59.4,168.8c-84.4,90.1-249.3,76.7-316.5-26.8c-24.9-38.4-30.7-78.6-21.1-211c7.7-134.3,21.1-184.1,78.6-299.2c120.8-245.5,352.9-425.8,644.4-496.7l105.5-26.9l9.6-151.5c5.8-82.5,21.1-170.7,34.5-193.7c63.3-115.1,212.9-136.2,314.6-46c61.4,53.7,63.3,63.3,69,218.7l7.7,163l126.6,30.7c383.6,92.1,659.8,351,732.7,684.7c38.4,176.5,17.3,445-44.1,581.1C5890-130.4,5746.1-23,5021.1,339.6c-537,268.5-632.9,339.5-673.2,492.9c-30.7,111.2-13.4,295.4,34.5,393.2c97.8,189.9,316.5,293.4,617.6,293.4c395.1,0,652.1-188,652.1-477.6c0-138.1,95.9-251.3,214.8-251.3c67.1,0,159.2,65.2,188,134.3c34.5,84.4-1.9,316.5-76.7,475.7c-113.2,241.7-375.9,439.2-665.5,500.6l-117,24.9l-7.7,163c-5.7,155.4-7.7,164.9-69,218.7C5046,2372.6,4940.5,2382.2,4867.7,2332.3z"/></g></g>
</svg>