<?xml version="1.0" encoding="utf-8"?>
<!-- Svg Vector Icons : http://www.onlinewebfonts.com/icon -->
<!DOCTYPE svg PUBLIC "-//W3C//DTD SVG 1.1//EN" "http://www.w3.org/Graphics/SVG/1.1/DTD/svg11.dtd">
<svg version="1.1" xmlns="http://www.w3.org/2000/svg" xmlns:xlink="http://www.w3.org/1999/xlink" x="0px" y="0px" viewBox="0 0 1000 1000" enable-background="new 0 0 1000 1000" xml:space="preserve">
<metadata> Svg Vector Icons : http://www.onlinewebfonts.com/icon </metadata>
<g><g transform="translate(0.000000,511.000000) scale(0.100000,-0.100000)"><path d="M493.1,600v-4410h3724h3724v1063.3v1063.3l-196,149.5l-196,151.9v-1016.7V-3418h-3332h-3332V600v4018h3332h3332V2111.7V-394.7l181.3-139.6c100.4-76,188.6-139.6,196-139.6c7.3,0,14.7,1278.9,14.7,2842v2842h-3724h-3724V600z"/><path d="M8088.1,3834v-196h318.5h318.5V1168.4v-2469.6l164.2-122.5c88.2-66.2,176.4-129.9,196-139.7c26.9-17.2,31.8,455.7,31.8,2788.1V4030h-514.5h-514.5V3834z"/><path d="M4351.8,3799.7c-470.4-90.6-806-269.5-1151.5-615c-257.3-257.2-355.2-399.3-490-715.4c-112.7-259.7-159.3-512-159.3-847.7c0-845.2,470.4-1590.1,1237.2-1955.1c318.5-149.5,499.8-193.6,860-210.7c485.1-22,886.9,88.2,1283.8,347.9c112.7,73.5,208.3,134.8,213.2,134.8s668.8-507.2,1474.9-1124.6c806-619.8,1506.8-1153.9,1558.2-1188.3c117.6-80.8,183.8-80.8,267.1,0c68.6,71.1,80.8,139.7,31.8,223c-14.7,29.4-700.7,568.4-1523.9,1198C7132.6-323.6,6449,198.2,6436.8,208c-9.8,12.2,19.6,73.5,71.1,139.7c134.7,176.4,296.4,529.2,357.7,779.1c76,301.3,76,720.3,2.5,1024.1c-193.6,788.9-801.2,1406.3-1585.2,1609.7C5030.5,3826.7,4587,3846.2,4351.8,3799.7z M5079.5,3407.7c793.8-151.9,1391.6-830.5,1457.7-1656.2c24.5-328.3-71.1-732.5-242.6-1024.1c-122.5-213.2-487.5-563.5-693.3-671.3c-328.3-169-470.4-203.4-869.7-203.4c-318.5,2.5-374.8,7.4-551.3,68.6c-286.7,95.5-487.5,222.9-722.7,458.1c-352.8,352.8-517,747.2-519.4,1249.5c-2.4,313.6,46.6,529.2,176.4,796.3c181.3,374.8,458.2,646.8,845.3,835.4C4317.5,3432.2,4689.9,3481.2,5079.5,3407.7z"/><path d="M5001.1,1678V698h196h196v980v980h-196h-196V1678z"/><path d="M4021.1,1384V698h196h196v686v686h-196h-196V1384z"/><path d="M1669.1-1458v-196h2450h2450v196v196h-2450h-2450V-1458z"/><path d="M8725.1-3342.1V-4398h-3332h-3332v196v196h-196h-196v-392v-392h3724h3724v1100.1v1100l-164.2,129.8c-93.1,68.6-181.3,137.2-196,151.9C8732.4-2291,8725.1-2499.2,8725.1-3342.1z"/><path d="M1669.1-2634v-196h2450h2450v196v196h-2450h-2450V-2634z"/></g></g>
</svg>