<svg width="18" height="18" viewBox="0 0 18 18" fill="none" xmlns="http://www.w3.org/2000/svg">
<path d="M7.47856 10.5214C8.10366 11.1463 8.95135 11.4974 9.83523 11.4974C10.7191 11.4974 11.5668 11.1463 12.1919 10.5214L15.5252 7.1881C16.1324 6.55943 16.4684 5.71742 16.4608 4.84343C16.4532 3.96944 16.1027 3.1334 15.4846 2.51537C14.8666 1.89735 14.0306 1.54678 13.1566 1.53919C12.2826 1.53159 11.4406 1.86758 10.8119 2.47477L9.89523 3.39144M10.5252 7.47477C9.90014 6.84986 9.05244 6.49881 8.16856 6.49881C7.28468 6.49881 6.43699 6.84986 5.8119 7.47477L2.47856 10.8081C2.1602 11.1156 1.90626 11.4834 1.73156 11.8901C1.55686 12.2968 1.46491 12.7342 1.46106 13.1768C1.45722 13.6194 1.54156 14.0583 1.70916 14.4679C1.87676 14.8776 2.12427 15.2498 2.43725 15.5628C2.75022 15.8757 3.1224 16.1232 3.53205 16.2908C3.94171 16.4584 4.38064 16.5428 4.82324 16.5389C5.26583 16.5351 5.70323 16.4431 6.10991 16.2684C6.51659 16.0937 6.88441 15.8398 7.1919 15.5214L8.11023 14.6039L10.5252 7.47477Z" stroke="#333333" stroke-width="2" stroke-linecap="round" stroke-linejoin="round"/>
</svg>
