<svg width="132" height="50" viewBox="0 0 132 50" fill="none" xmlns="http://www.w3.org/2000/svg">
<path d="M24.9712 48.8447L22.3435 25.3271C22.2778 24.7359 21.818 24.0789 21.2924 23.7505L0.796637 11.8603C0.271104 11.5975 -0.0573626 11.7946 0.00832906 12.3858L2.636 35.9035C2.70169 36.4947 3.16153 37.1516 3.68707 37.48L24.1829 49.3702C24.7084 49.633 25.0369 49.4359 24.9712 48.8447Z" fill="#F05359"/>
<path d="M26.9419 49.5672L46.6494 36.4289C47.1092 36.1004 47.5691 35.3778 47.5691 34.7866L48.6858 11.1376C48.6858 10.5464 48.3574 10.3493 47.8318 10.6778L28.1243 23.8161C27.6645 24.1446 27.2046 24.8672 27.2046 25.4584L26.0879 49.1074C26.0879 49.6986 26.4163 49.8957 26.9419 49.5672Z" fill="url(#paint0_linear)"/>
<path d="M42.7728 7.78792C43.4954 8.11638 43.4954 8.64192 42.8385 9.03607L36.9262 12.452L31.9336 10.1528L33.5102 9.23314C33.7073 9.10176 33.7073 8.83899 33.5102 8.7733L30.4227 7.39378C30.3571 7.32809 30.2914 7.39378 30.2257 7.39378L28.452 8.44484L24.5762 6.60547L31.211 2.79536C31.2767 2.72967 31.3424 2.72967 31.4081 2.79536L42.7728 7.78792Z" fill="#F05359"/>
<path d="M38.2403 12.977C38.3717 13.0427 38.3717 13.2397 38.2403 13.3054L35.2185 15.0791C35.1528 15.0791 35.0871 15.1448 35.0214 15.0791L33.4448 14.3565L36.9265 12.3857L38.2403 12.977Z" fill="#565656"/>
<path d="M36.9266 12.3861L33.4449 14.4226L28.5181 12.0577L31.934 10.0869L36.9266 12.3861Z" fill="#565656"/>
<path d="M33.4439 14.4228L26.3492 18.4957C25.8894 18.7584 25.1011 18.8241 24.5755 18.5614L20.8968 16.9191C20.6998 16.8534 20.6998 16.5906 20.8968 16.4592L28.5827 11.9922L33.4439 14.4228Z" fill="#F05359"/>
<path d="M31.9335 10.0866L28.5176 12.0574L24.9702 10.4151L28.3862 8.44434L31.9335 10.0866Z" fill="#565656"/>
<path d="M28.3863 8.44484L24.9703 10.4156L21.0288 8.57622L24.5105 6.60547L28.3863 8.44484Z" fill="#F05359"/>
<path d="M27.0718 0.889882C27.2689 0.955574 27.2689 1.21834 27.0718 1.34972L20.8968 4.89708L17.875 3.51755L23.5902 0.232965C24.05 -0.0298014 24.8383 -0.0954871 25.3638 0.16728L27.0718 0.889882Z" fill="#F05359"/>
<path d="M24.9703 10.4152L16.8903 15.0793C16.8246 15.145 16.7589 15.145 16.6932 15.0793L7.23357 10.9407C6.51096 10.6122 6.51096 10.0867 7.16787 9.69255L14.5254 5.48828L17.5472 6.9335L14.591 8.64148C14.394 8.77287 14.394 9.03563 14.591 9.10132L17.6785 10.4809C17.7442 10.5465 17.8099 10.4809 17.8756 10.4809L21.0945 8.64148L24.9703 10.4152Z" fill="#F05359"/>
<path d="M24.51 6.60544L21.0283 8.57619L17.481 6.86821L20.8969 4.89746L24.51 6.60544Z" fill="#565656"/>
<path d="M20.8973 4.89711L17.4813 6.86786L14.4595 5.48833L17.8754 3.51758L20.8973 4.89711Z" fill="#565656"/>
<path d="M16.1672 2.72949L17.8752 3.51779L14.4592 5.48854L13.1454 4.89732C13.014 4.83163 13.014 4.63455 13.1454 4.56886L16.0358 2.79519C16.0358 2.7295 16.1015 2.72949 16.1672 2.72949Z" fill="#565656"/>
<path d="M58.6307 20.5591C58.83 20.8249 59.0682 21.0796 59.345 21.3233C59.6275 21.5614 59.9403 21.7718 60.2837 21.9546C60.627 22.1373 60.9952 22.2841 61.3884 22.3948C61.7871 22.5056 62.1969 22.561 62.6177 22.561C63.1937 22.561 63.7613 22.4751 64.3206 22.3035C64.8854 22.1318 65.4004 21.8881 65.8655 21.5725C66.3307 21.2513 66.7294 20.8665 67.0617 20.4179C67.3939 19.9694 67.6182 19.471 67.7345 18.9228C67.8508 18.3635 67.8452 17.89 67.7179 17.5024C67.596 17.1147 67.3856 16.7853 67.0866 16.5139C66.7875 16.237 66.4193 16.0045 65.9818 15.8162C65.5444 15.6279 65.0764 15.4535 64.5781 15.2929C64.2569 15.1987 63.9634 15.1046 63.6976 15.0105C63.4318 14.9108 63.2075 14.8 63.0248 14.6782C62.842 14.5564 62.7091 14.4179 62.6261 14.2629C62.543 14.1023 62.5264 13.9113 62.5762 13.6897C62.6371 13.4129 62.7451 13.1914 62.9002 13.0252C63.0608 12.8536 63.2463 12.7207 63.4567 12.6265C63.6671 12.5269 63.8886 12.4604 64.1212 12.4272C64.3538 12.394 64.5725 12.3773 64.7774 12.3773C65.01 12.3773 65.2287 12.4106 65.4336 12.477C65.6385 12.5379 65.8268 12.6182 65.9984 12.7179C66.1701 12.8176 66.3252 12.9256 66.4636 13.0419C66.6076 13.1581 66.7322 13.2689 66.8374 13.3741C66.8928 13.4295 66.9481 13.4766 67.0035 13.5153C67.0644 13.5541 67.1253 13.5735 67.1863 13.5735C67.2582 13.5735 67.3385 13.5402 67.4271 13.4738L68.291 12.7511C68.5291 12.5407 68.5734 12.3358 68.4239 12.1365C68.2356 11.8762 68.0114 11.6381 67.7511 11.4221C67.4964 11.2006 67.2167 11.0123 66.9121 10.8573C66.6131 10.6967 66.2975 10.5721 65.9652 10.4835C65.6385 10.3949 65.309 10.3506 64.9768 10.3506C64.3344 10.3506 63.7446 10.4253 63.2075 10.5749C62.6704 10.7244 62.1969 10.9403 61.7871 11.2228C61.3773 11.4996 61.0368 11.8347 60.7654 12.2278C60.4996 12.621 60.3113 13.064 60.2006 13.5568C60.1065 13.9777 60.1203 14.3764 60.2421 14.753C60.364 15.124 60.5688 15.4673 60.8568 15.783C61.1503 16.0931 61.513 16.3672 61.9449 16.6053C62.3769 16.8379 62.8559 17.0289 63.3819 17.1784C63.5813 17.2338 63.8028 17.3058 64.0464 17.3944C64.2901 17.4775 64.5116 17.5854 64.711 17.7183C64.9158 17.8457 65.0764 18.0035 65.1927 18.1918C65.309 18.3745 65.3395 18.5933 65.2841 18.848C65.2398 19.0474 65.1484 19.2412 65.01 19.4295C64.8715 19.6122 64.6943 19.7783 64.4784 19.9278C64.2679 20.0718 64.0243 20.1881 63.7474 20.2767C63.4705 20.3598 63.1743 20.4013 62.8586 20.4013C62.5541 20.4013 62.2744 20.3653 62.0197 20.2933C61.765 20.2213 61.5324 20.1272 61.322 20.0109C61.1115 19.8891 60.9232 19.7534 60.7571 19.6039C60.591 19.4488 60.4415 19.291 60.3086 19.1304C60.2643 19.0806 60.2172 19.0391 60.1674 19.0058C60.1231 18.9726 60.0705 18.956 60.0095 18.956C59.9376 18.956 59.86 18.9864 59.777 19.0474L58.6805 19.9528C58.5421 20.0635 58.4812 20.1715 58.4978 20.2767C58.5199 20.3764 58.5642 20.4705 58.6307 20.5591Z" fill="#F05359"/>
<path d="M69.8069 18.3995C69.7792 18.5213 69.7986 18.6127 69.8651 18.6736C69.937 18.7289 70.0146 18.7566 70.0976 18.7566H75.3473C75.4636 18.7566 75.5632 18.7262 75.6463 18.6653C75.7349 18.5988 75.793 18.5102 75.8207 18.3995L76.0533 17.2947C76.1087 17.0511 76.0173 16.9292 75.7792 16.9292H70.488C70.3994 16.9292 70.3081 16.9625 70.2139 17.0289C70.1253 17.0954 70.0672 17.1923 70.0395 17.3196L69.8069 18.3995Z" fill="#F05359"/>
<path d="M78.269 16.489C78.0918 17.3307 78.0835 18.1226 78.2441 18.8646C78.4047 19.6011 78.701 20.2435 79.1329 20.7917C79.5704 21.3399 80.1241 21.7746 80.7942 22.0958C81.4697 22.4114 82.2284 22.5693 83.0701 22.5693C83.6349 22.5693 84.1915 22.4973 84.7397 22.3533C85.2879 22.2093 85.814 22.0072 86.3179 21.7469C86.8274 21.4811 87.3036 21.1627 87.7466 20.7917C88.1951 20.4207 88.5994 20.0109 88.9593 19.5624C89.3193 19.1083 89.6266 18.6237 89.8813 18.1087C90.1361 17.5882 90.3216 17.0483 90.4379 16.489C90.6151 15.6473 90.6234 14.8582 90.4628 14.1217C90.3077 13.3796 90.0142 12.7345 89.5823 12.1863C89.1504 11.6325 88.5994 11.1978 87.9293 10.8822C87.2593 10.561 86.5034 10.4004 85.6617 10.4004C85.1024 10.4004 84.5459 10.4724 83.9921 10.6164C83.4439 10.7604 82.9151 10.9653 82.4056 11.2311C81.9017 11.4913 81.4227 11.807 80.9686 12.178C80.5201 12.549 80.1158 12.9616 79.7559 13.4156C79.3959 13.8642 79.0886 14.3487 78.8339 14.8693C78.5791 15.3898 78.3909 15.9297 78.269 16.489ZM80.6031 16.489C80.7194 15.9518 80.9326 15.4507 81.2427 14.9855C81.5583 14.5148 81.9321 14.1051 82.3641 13.7562C82.796 13.4073 83.2639 13.1332 83.7678 12.9339C84.2718 12.7345 84.7729 12.6348 85.2713 12.6348C85.886 12.6348 86.401 12.7345 86.8163 12.9339C87.2316 13.1332 87.5528 13.4073 87.7798 13.7562C88.0124 14.1051 88.1536 14.5148 88.2034 14.9855C88.2588 15.4507 88.2284 15.9518 88.1121 16.489C87.9958 17.0261 87.7798 17.5301 87.4642 18.0008C87.1485 18.4659 86.7748 18.8729 86.3428 19.2218C85.9164 19.5651 85.4513 19.8365 84.9473 20.0358C84.449 20.2352 83.9561 20.3348 83.4688 20.3348C82.8652 20.3348 82.3558 20.2352 81.9404 20.0358C81.5251 19.8365 81.1984 19.5651 80.9603 19.2218C80.7222 18.8729 80.5727 18.4659 80.5117 18.0008C80.4564 17.5301 80.4868 17.0261 80.6031 16.489Z" fill="#F05359"/>
<path d="M99.0952 22.1207C99.1893 22.3145 99.3278 22.4114 99.5105 22.4114H101.197C101.418 22.4114 101.554 22.3035 101.604 22.0875L103.988 10.8822C104.004 10.7881 103.982 10.7133 103.921 10.6579C103.86 10.597 103.791 10.5666 103.714 10.5666H102.127C102.016 10.5666 101.928 10.597 101.861 10.6579C101.795 10.7188 101.753 10.7936 101.737 10.8822L100.075 18.7317L96.2212 10.8656C96.1215 10.6662 95.9858 10.5666 95.8142 10.5666H94.1197C94.0144 10.5666 93.9286 10.5998 93.8622 10.6662C93.8013 10.7327 93.7625 10.8047 93.7459 10.8822L91.3619 22.0875C91.3121 22.3035 91.3924 22.4114 91.6028 22.4114H93.1977C93.4192 22.4114 93.5548 22.3035 93.6047 22.0875L95.3158 14.022L99.0952 22.1207Z" fill="#F05359"/>
<path d="M104.195 22.0958C104.145 22.3062 104.226 22.4114 104.436 22.4114H112.377C112.593 22.4114 112.726 22.3062 112.776 22.0958L113.1 20.5591C113.144 20.3487 113.055 20.2435 112.834 20.2435H106.911L107.534 17.3196H111.937C112.048 17.3196 112.139 17.2947 112.211 17.2449C112.288 17.1895 112.338 17.1092 112.36 17.004L112.684 15.4922C112.707 15.3815 112.69 15.3012 112.635 15.2513C112.585 15.196 112.504 15.1683 112.394 15.1683H107.991L108.506 12.7511H114.279C114.49 12.7511 114.62 12.6459 114.67 12.4355L114.994 10.8905C115.043 10.6801 114.958 10.5749 114.736 10.5749H106.945C106.745 10.5749 106.621 10.6801 106.571 10.8905L104.195 22.0958Z" fill="#F05359"/>
<path d="M59.5903 28.546C59.656 28.349 59.7873 28.2176 59.9844 28.2176H67.6046C67.8017 28.2176 67.8674 28.349 67.8674 28.546L67.539 30.1226C67.4733 30.3197 67.3419 30.4511 67.1448 30.4511H61.4953L60.8384 33.6043H65.1084C65.3054 33.6043 65.3711 33.7357 65.3711 33.9328L65.0427 35.378C64.977 35.575 64.8456 35.7064 64.6485 35.7064H60.3786L59.5246 39.7793C59.4589 39.9764 59.3275 40.1078 59.1304 40.1078H57.4224C57.2254 40.1078 57.094 39.9764 57.1597 39.7793L59.5903 28.546Z" fill="url(#paint1_linear)"/>
<path d="M69.7068 28.546C69.7725 28.349 69.9039 28.2176 70.1009 28.2176H71.8089C72.006 28.2176 72.0717 28.349 72.0717 28.546L69.7068 39.7136C69.6411 39.9107 69.5097 40.0421 69.3126 40.0421H67.6046C67.4076 40.0421 67.2762 39.9107 67.3419 39.7136L69.7068 28.546Z" fill="url(#paint2_linear)"/>
<path d="M76.2102 31.6992L74.5023 39.7793C74.4366 39.9764 74.3052 40.1078 74.1081 40.1078H72.5315C72.3344 40.1078 72.2687 39.9764 72.2687 39.7793L74.6337 28.546C74.6337 28.4804 74.6994 28.4147 74.765 28.349C74.8307 28.2833 74.8964 28.2176 75.0278 28.2176H76.7358C76.9329 28.2176 77.0642 28.349 77.1299 28.546L81.0058 36.429L82.648 28.6117C82.648 28.546 82.7137 28.4804 82.7794 28.4147C82.8451 28.349 82.9108 28.349 83.0422 28.349H84.6188C84.6845 28.349 84.7502 28.349 84.8159 28.4147C84.8816 28.4804 84.8816 28.546 84.8816 28.6117L82.5167 39.845C82.451 40.0421 82.3196 40.1735 82.1225 40.1735H80.4145C80.2174 40.1735 80.0861 40.1078 80.0204 39.9107L76.2102 31.6992Z" fill="url(#paint3_linear)"/>
<path d="M91.1223 28.546C91.2537 28.349 91.385 28.2176 91.5821 28.2176H92.8959C93.093 28.2176 93.2244 28.349 93.2244 28.546L95.3265 39.7136C95.3265 39.845 95.3265 39.9107 95.2608 39.9764C95.1951 40.0421 95.1295 40.0421 94.9981 40.0421H93.3558C93.1587 40.0421 93.0273 39.9764 93.0273 39.7793L92.6332 37.8743H87.772L86.5895 39.7793C86.5239 39.9107 86.4582 39.9764 86.3925 40.0421C86.3268 40.1078 86.2611 40.1078 86.1297 40.1078H84.2903C84.159 40.1078 84.0933 40.1078 84.0933 40.0421C84.0933 39.9764 84.0933 39.9107 84.1589 39.7793L91.1223 28.546ZM91.7135 31.3051L89.0858 35.8378H92.4361L91.7135 31.3051Z" fill="url(#paint4_linear)"/>
<path d="M100.976 31.6992L99.268 39.7793C99.2023 39.9764 99.071 40.1078 98.8739 40.1078H97.2973C97.1002 40.1078 97.0345 39.9764 97.0345 39.7793L99.3994 28.546C99.3994 28.4804 99.4651 28.4147 99.5308 28.349C99.5965 28.2833 99.6622 28.2176 99.7936 28.2176H101.502C101.699 28.2176 101.83 28.349 101.896 28.546L105.772 36.429L107.414 28.6117C107.414 28.546 107.479 28.4804 107.545 28.4147C107.611 28.349 107.677 28.349 107.808 28.349H109.385C109.45 28.349 109.516 28.349 109.582 28.4147C109.647 28.4804 109.647 28.546 109.647 28.6117L107.282 39.845C107.217 40.0421 107.085 40.1735 106.888 40.1735H105.18C104.983 40.1735 104.852 40.1078 104.786 39.9107L100.976 31.6992Z" fill="url(#paint5_linear)"/>
<path d="M118.253 37.2173C118.319 37.2173 118.384 37.1516 118.384 37.1516C118.45 37.1516 118.516 37.2173 118.581 37.283L119.173 38.5969C119.238 38.6626 119.238 38.7939 119.238 38.8596C119.238 38.9253 119.107 38.991 119.041 39.0567C118.516 39.3852 117.924 39.6479 117.333 39.845C116.742 40.0421 116.085 40.1735 115.362 40.1735C114.509 40.1735 113.786 40.0421 113.063 39.7136C112.406 39.3852 111.815 38.991 111.421 38.3998C110.961 37.8743 110.698 37.2173 110.501 36.429C110.37 35.7064 110.37 34.9181 110.501 34.0641C110.633 33.4729 110.83 32.9474 111.093 32.4218C111.355 31.8963 111.618 31.4365 112.012 30.9766C112.341 30.5168 112.735 30.1226 113.195 29.7285C113.655 29.3343 114.114 29.0716 114.64 28.8088C115.165 28.546 115.691 28.349 116.216 28.2176C116.742 28.0862 117.333 28.0205 117.859 28.0205C118.516 28.0205 119.173 28.1519 119.698 28.349C120.224 28.546 120.684 28.8745 121.078 29.203C121.143 29.2687 121.209 29.3343 121.143 29.4C121.143 29.4657 121.078 29.5314 121.078 29.5971L120.158 30.8453C120.092 30.9109 120.027 30.9109 119.961 30.9109C119.895 30.9109 119.83 30.9109 119.698 30.8453C119.37 30.6482 119.041 30.4511 118.713 30.3197C118.384 30.1883 117.99 30.1226 117.596 30.1226C117.07 30.1226 116.545 30.254 116.019 30.4511C115.494 30.6482 115.034 30.9109 114.64 31.3051C114.246 31.6336 113.852 32.0934 113.523 32.5532C113.195 33.0131 112.998 33.5386 112.866 34.0641C112.735 34.5897 112.669 35.1152 112.735 35.5751C112.801 36.0349 112.932 36.4947 113.129 36.8232C113.326 37.1516 113.655 37.4801 114.049 37.6772C114.443 37.8743 114.968 38.0056 115.494 38.0056C115.691 38.0056 115.954 38.0056 116.151 37.94C116.414 37.8743 116.611 37.8743 116.808 37.8086C117.005 37.7429 117.268 37.6772 117.465 37.6115C117.662 37.5458 117.859 37.4144 118.056 37.3487C118.122 37.283 118.187 37.283 118.253 37.2173Z" fill="url(#paint6_linear)"/>
<path d="M123.508 28.546C123.574 28.349 123.705 28.2176 123.902 28.2176H131.72C131.917 28.2176 132.048 28.349 131.982 28.546L131.654 30.1226C131.588 30.3197 131.457 30.4511 131.26 30.4511H125.479L124.953 32.8817H129.355C129.486 32.8817 129.552 32.8817 129.618 32.9474C129.683 33.0131 129.683 33.0788 129.683 33.2101L129.355 34.7211C129.355 34.8524 129.289 34.9181 129.223 34.9838C129.158 35.0495 129.026 35.0495 128.961 35.0495H124.559L123.968 38.0056H129.88C130.077 38.0056 130.209 38.137 130.143 38.3341L129.815 39.845C129.749 40.0421 129.618 40.1735 129.421 40.1735H121.472C121.275 40.1735 121.209 40.0421 121.209 39.845L123.508 28.546Z" fill="url(#paint7_linear)"/>
<defs>
<linearGradient id="paint0_linear" x1="26.0964" y1="30.1117" x2="48.6483" y2="30.1117" gradientUnits="userSpaceOnUse">
<stop offset="0.3007" stop-color="#A51D30"/>
<stop offset="1" stop-color="#F05359"/>
</linearGradient>
<linearGradient id="paint1_linear" x1="57.1706" y1="34.1557" x2="131.956" y2="34.1557" gradientUnits="userSpaceOnUse">
<stop offset="0.222" stop-color="#58595B"/>
<stop offset="0.2689" stop-color="#616264"/>
<stop offset="0.5077" stop-color="#87898B"/>
<stop offset="0.6892" stop-color="#9EA0A3"/>
<stop offset="0.7909" stop-color="#A7A9AC"/>
</linearGradient>
<linearGradient id="paint2_linear" x1="57.1706" y1="34.1557" x2="131.956" y2="34.1557" gradientUnits="userSpaceOnUse">
<stop offset="0.222" stop-color="#58595B"/>
<stop offset="0.2689" stop-color="#616264"/>
<stop offset="0.5077" stop-color="#87898B"/>
<stop offset="0.6892" stop-color="#9EA0A3"/>
<stop offset="0.7909" stop-color="#A7A9AC"/>
</linearGradient>
<linearGradient id="paint3_linear" x1="57.1706" y1="34.1557" x2="131.956" y2="34.1557" gradientUnits="userSpaceOnUse">
<stop offset="0.222" stop-color="#58595B"/>
<stop offset="0.2689" stop-color="#616264"/>
<stop offset="0.5077" stop-color="#87898B"/>
<stop offset="0.6892" stop-color="#9EA0A3"/>
<stop offset="0.7909" stop-color="#A7A9AC"/>
</linearGradient>
<linearGradient id="paint4_linear" x1="57.1706" y1="34.1557" x2="131.956" y2="34.1557" gradientUnits="userSpaceOnUse">
<stop offset="0.222" stop-color="#58595B"/>
<stop offset="0.2689" stop-color="#616264"/>
<stop offset="0.5077" stop-color="#87898B"/>
<stop offset="0.6892" stop-color="#9EA0A3"/>
<stop offset="0.7909" stop-color="#A7A9AC"/>
</linearGradient>
<linearGradient id="paint5_linear" x1="57.1706" y1="34.1557" x2="131.956" y2="34.1557" gradientUnits="userSpaceOnUse">
<stop offset="0.222" stop-color="#58595B"/>
<stop offset="0.2689" stop-color="#616264"/>
<stop offset="0.5077" stop-color="#87898B"/>
<stop offset="0.6892" stop-color="#9EA0A3"/>
<stop offset="0.7909" stop-color="#A7A9AC"/>
</linearGradient>
<linearGradient id="paint6_linear" x1="57.1706" y1="34.1557" x2="131.956" y2="34.1557" gradientUnits="userSpaceOnUse">
<stop offset="0.222" stop-color="#58595B"/>
<stop offset="0.2689" stop-color="#616264"/>
<stop offset="0.5077" stop-color="#87898B"/>
<stop offset="0.6892" stop-color="#9EA0A3"/>
<stop offset="0.7909" stop-color="#A7A9AC"/>
</linearGradient>
<linearGradient id="paint7_linear" x1="57.1706" y1="34.1557" x2="131.956" y2="34.1557" gradientUnits="userSpaceOnUse">
<stop offset="0.222" stop-color="#58595B"/>
<stop offset="0.2689" stop-color="#616264"/>
<stop offset="0.5077" stop-color="#87898B"/>
<stop offset="0.6892" stop-color="#9EA0A3"/>
<stop offset="0.7909" stop-color="#A7A9AC"/>
</linearGradient>
</defs>
</svg>
