<svg width="133" height="50" viewBox="0 0 133 50" fill="none" xmlns="http://www.w3.org/2000/svg">
<path d="M24.9712 48.8447L22.3435 25.3271C22.2778 24.7359 21.818 24.0789 21.2924 23.7505L0.796637 11.8603C0.271104 11.5975 -0.0573626 11.7946 0.00832906 12.3858L2.636 35.9035C2.70169 36.4947 3.16153 37.1516 3.68707 37.48L24.1829 49.3702C24.7084 49.633 25.0369 49.4359 24.9712 48.8447Z" fill="#F05359"/>
<path d="M26.9438 49.5672L46.6513 36.4289C47.1112 36.1004 47.571 35.3778 47.571 34.7866L48.6878 11.1376C48.6878 10.5464 48.3593 10.3493 47.8338 10.6778L28.1263 23.8161C27.6664 24.1446 27.2066 24.8672 27.2066 25.4584L26.0898 49.1074C26.0898 49.6986 26.4183 49.8957 26.9438 49.5672Z" fill="url(#paint0_linear)"/>
<path d="M42.7747 7.78792C43.4973 8.11638 43.4973 8.64192 42.8404 9.03607L36.9282 12.452L31.9356 10.1528L33.5122 9.23314C33.7093 9.10176 33.7093 8.83899 33.5122 8.7733L30.4247 7.39378C30.359 7.32809 30.2933 7.39378 30.2276 7.39378L28.454 8.44484L24.5781 6.60547L31.213 2.79536C31.2787 2.72967 31.3444 2.72967 31.4101 2.79536L42.7747 7.78792Z" fill="#F05359"/>
<path d="M38.2408 12.977C38.3722 13.0427 38.3722 13.2397 38.2408 13.3054L35.219 15.0791C35.1533 15.0791 35.0876 15.1448 35.0219 15.0791L33.4453 14.3565L36.927 12.3857L38.2408 12.977Z" fill="#565656"/>
<path d="M36.9281 12.3861L33.4464 14.4226L28.5195 12.0577L31.9355 10.0869L36.9281 12.3861Z" fill="#565656"/>
<path d="M33.4449 14.4228L26.3502 18.4957C25.8904 18.7584 25.1021 18.8241 24.5765 18.5614L20.8978 16.9191C20.7007 16.8534 20.7007 16.5906 20.8978 16.4592L28.5837 11.9922L33.4449 14.4228Z" fill="#F05359"/>
<path d="M31.936 10.0866L28.52 12.0574L24.9727 10.4151L28.3886 8.44434L31.936 10.0866Z" fill="#565656"/>
<path d="M28.3848 8.44484L24.9688 10.4156L21.0273 8.57622L24.509 6.60547L28.3848 8.44484Z" fill="#F05359"/>
<path d="M27.0718 0.889882C27.2689 0.955574 27.2689 1.21834 27.0718 1.34972L20.8968 4.89708L17.875 3.51755L23.5902 0.232965C24.05 -0.0298014 24.8383 -0.0954871 25.3638 0.16728L27.0718 0.889882Z" fill="#F05359"/>
<path d="M24.9708 10.4152L16.8907 15.0793C16.8251 15.145 16.7593 15.145 16.6937 15.0793L7.23406 10.9407C6.51145 10.6122 6.51144 10.0867 7.16836 9.69255L14.5258 5.48828L17.5477 6.9335L14.5915 8.64148C14.3945 8.77287 14.3945 9.03563 14.5915 9.10132L17.679 10.4809C17.7447 10.5465 17.8104 10.4809 17.8761 10.4809L21.095 8.64148L24.9708 10.4152Z" fill="#F05359"/>
<path d="M24.5095 6.60544L21.0278 8.57619L17.4805 6.86821L20.8964 4.89746L24.5095 6.60544Z" fill="#565656"/>
<path d="M20.8987 4.89711L17.4828 6.86786L14.4609 5.48833L17.8769 3.51758L20.8987 4.89711Z" fill="#565656"/>
<path d="M16.1672 2.72949L17.8752 3.51779L14.4592 5.48854L13.1454 4.89732C13.014 4.83163 13.014 4.63455 13.1454 4.56886L16.0358 2.79519C16.0358 2.7295 16.1015 2.72949 16.1672 2.72949Z" fill="#565656"/>
<path d="M58.6317 20.5591C58.831 20.8249 59.0691 21.0796 59.346 21.3233C59.6284 21.5614 59.9413 21.7718 60.2846 21.9546C60.628 22.1373 60.9962 22.2841 61.3894 22.3948C61.7881 22.5056 62.1979 22.561 62.6187 22.561C63.1946 22.561 63.7622 22.4751 64.3215 22.3035C64.8864 22.1318 65.4014 21.8881 65.8665 21.5725C66.3317 21.2513 66.7304 20.8665 67.0626 20.4179C67.3949 19.9694 67.6192 19.471 67.7354 18.9228C67.8517 18.3635 67.8462 17.89 67.7188 17.5024C67.597 17.1147 67.3866 16.7853 67.0876 16.5139C66.7885 16.237 66.4203 16.0045 65.9828 15.8162C65.5453 15.6279 65.0774 15.4535 64.579 15.2929C64.2578 15.1987 63.9644 15.1046 63.6986 15.0105C63.4327 14.9108 63.2085 14.8 63.0257 14.6782C62.843 14.5564 62.7101 14.4179 62.627 14.2629C62.544 14.1023 62.5274 13.9113 62.5772 13.6897C62.6381 13.4129 62.7461 13.1914 62.9011 13.0252C63.0617 12.8536 63.2472 12.7207 63.4577 12.6265C63.6681 12.5269 63.8896 12.4604 64.1222 12.4272C64.3548 12.394 64.5735 12.3773 64.7784 12.3773C65.011 12.3773 65.2297 12.4106 65.4346 12.477C65.6395 12.5379 65.8278 12.6182 65.9994 12.7179C66.1711 12.8176 66.3261 12.9256 66.4646 13.0419C66.6086 13.1581 66.7331 13.2689 66.8384 13.3741C66.8937 13.4295 66.9491 13.4766 67.0045 13.5153C67.0654 13.5541 67.1263 13.5735 67.1872 13.5735C67.2592 13.5735 67.3395 13.5402 67.4281 13.4738L68.292 12.7511C68.5301 12.5407 68.5744 12.3358 68.4249 12.1365C68.2366 11.8762 68.0123 11.6381 67.7521 11.4221C67.4973 11.2006 67.2177 11.0123 66.9131 10.8573C66.6141 10.6967 66.2984 10.5721 65.9662 10.4835C65.6395 10.3949 65.31 10.3506 64.9777 10.3506C64.3354 10.3506 63.7456 10.4253 63.2085 10.5749C62.6713 10.7244 62.1979 10.9403 61.7881 11.2228C61.3783 11.4996 61.0377 11.8347 60.7664 12.2278C60.5006 12.621 60.3123 13.064 60.2016 13.5568C60.1074 13.9777 60.1213 14.3764 60.2431 14.753C60.3649 15.124 60.5698 15.4673 60.8578 15.783C61.1513 16.0931 61.514 16.3672 61.9459 16.6053C62.3778 16.8379 62.8568 17.0289 63.3829 17.1784C63.5823 17.2338 63.8038 17.3058 64.0474 17.3944C64.2911 17.4775 64.5126 17.5854 64.7119 17.7183C64.9168 17.8457 65.0774 18.0035 65.1937 18.1918C65.31 18.3745 65.3404 18.5933 65.2851 18.848C65.2408 19.0474 65.1494 19.2412 65.011 19.4295C64.8725 19.6122 64.6953 19.7783 64.4794 19.9278C64.2689 20.0718 64.0253 20.1881 63.7484 20.2767C63.4715 20.3598 63.1753 20.4013 62.8596 20.4013C62.555 20.4013 62.2754 20.3653 62.0207 20.2933C61.7659 20.2213 61.5334 20.1272 61.3229 20.0109C61.1125 19.8891 60.9242 19.7534 60.7581 19.6039C60.592 19.4488 60.4425 19.291 60.3096 19.1304C60.2653 19.0806 60.2182 19.0391 60.1683 19.0058C60.124 18.9726 60.0714 18.956 60.0105 18.956C59.9385 18.956 59.861 18.9864 59.7779 19.0474L58.6815 19.9528C58.5431 20.0635 58.4822 20.1715 58.4988 20.2767C58.5209 20.3764 58.5652 20.4705 58.6317 20.5591Z" fill="#F05359"/>
<path d="M69.8079 18.3995C69.7802 18.5213 69.7996 18.6127 69.866 18.6736C69.938 18.7289 70.0155 18.7566 70.0986 18.7566H75.3482C75.4645 18.7566 75.5642 18.7262 75.6473 18.6653C75.7359 18.5988 75.794 18.5102 75.8217 18.3995L76.0543 17.2947C76.1097 17.0511 76.0183 16.9292 75.7802 16.9292H70.489C70.4004 16.9292 70.309 16.9625 70.2149 17.0289C70.1263 17.0954 70.0682 17.1923 70.0405 17.3196L69.8079 18.3995Z" fill="#F05359"/>
<path d="M78.27 16.489C78.0928 17.3307 78.0845 18.1226 78.2451 18.8646C78.4057 19.6011 78.7019 20.2435 79.1339 20.7917C79.5713 21.3399 80.1251 21.7746 80.7951 22.0958C81.4707 22.4114 82.2294 22.5693 83.0711 22.5693C83.6359 22.5693 84.1924 22.4973 84.7407 22.3533C85.2889 22.2093 85.815 22.0072 86.3189 21.7469C86.8283 21.4811 87.3046 21.1627 87.7476 20.7917C88.1961 20.4207 88.6004 20.0109 88.9603 19.5624C89.3202 19.1083 89.6276 18.6237 89.8823 18.1087C90.137 17.5882 90.3225 17.0483 90.4388 16.489C90.616 15.6473 90.6243 14.8582 90.4638 14.1217C90.3087 13.3796 90.0152 12.7345 89.5833 12.1863C89.1514 11.6325 88.6004 11.1978 87.9303 10.8822C87.2603 10.561 86.5044 10.4004 85.6627 10.4004C85.1034 10.4004 84.5469 10.4724 83.9931 10.6164C83.4449 10.7604 82.916 10.9653 82.4066 11.2311C81.9027 11.4913 81.4237 11.807 80.9696 12.178C80.521 12.549 80.1168 12.9616 79.7568 13.4156C79.3969 13.8642 79.0896 14.3487 78.8348 14.8693C78.5801 15.3898 78.3918 15.9297 78.27 16.489ZM80.6041 16.489C80.7204 15.9518 80.9336 15.4507 81.2437 14.9855C81.5593 14.5148 81.9331 14.1051 82.365 13.7562C82.797 13.4073 83.2649 13.1332 83.7688 12.9339C84.2727 12.7345 84.7739 12.6348 85.2723 12.6348C85.8869 12.6348 86.4019 12.7345 86.8173 12.9339C87.2326 13.1332 87.5538 13.4073 87.7808 13.7562C88.0134 14.1051 88.1546 14.5148 88.2044 14.9855C88.2598 15.4507 88.2293 15.9518 88.1131 16.489C87.9968 17.0261 87.7808 17.5301 87.4652 18.0008C87.1495 18.4659 86.7757 18.8729 86.3438 19.2218C85.9174 19.5651 85.4522 19.8365 84.9483 20.0358C84.4499 20.2352 83.9571 20.3348 83.4698 20.3348C82.8662 20.3348 82.3567 20.2352 81.9414 20.0358C81.5261 19.8365 81.1994 19.5651 80.9613 19.2218C80.7232 18.8729 80.5736 18.4659 80.5127 18.0008C80.4573 17.5301 80.4878 17.0261 80.6041 16.489Z" fill="#F05359"/>
<path d="M99.0962 22.1207C99.1903 22.3145 99.3287 22.4114 99.5115 22.4114H101.198C101.419 22.4114 101.555 22.3035 101.605 22.0875L103.989 10.8822C104.005 10.7881 103.983 10.7133 103.922 10.6579C103.861 10.597 103.792 10.5666 103.715 10.5666H102.128C102.017 10.5666 101.929 10.597 101.862 10.6579C101.796 10.7188 101.754 10.7936 101.738 10.8822L100.076 18.7317L96.2221 10.8656C96.1225 10.6662 95.9868 10.5666 95.8151 10.5666H94.1206C94.0154 10.5666 93.9296 10.5998 93.8631 10.6662C93.8022 10.7327 93.7635 10.8047 93.7469 10.8822L91.3629 22.0875C91.3131 22.3035 91.3934 22.4114 91.6038 22.4114H93.1986C93.4201 22.4114 93.5558 22.3035 93.6056 22.0875L95.3168 14.022L99.0962 22.1207Z" fill="#F05359"/>
<path d="M104.196 22.0958C104.146 22.3062 104.227 22.4114 104.437 22.4114H112.378C112.594 22.4114 112.727 22.3062 112.777 22.0958L113.101 20.5591C113.145 20.3487 113.056 20.2435 112.835 20.2435H106.912L107.535 17.3196H111.938C112.049 17.3196 112.14 17.2947 112.212 17.2449C112.289 17.1895 112.339 17.1092 112.361 17.004L112.685 15.4922C112.708 15.3815 112.691 15.3012 112.636 15.2513C112.586 15.196 112.505 15.1683 112.395 15.1683H107.992L108.507 12.7511H114.28C114.491 12.7511 114.621 12.6459 114.671 12.4355L114.995 10.8905C115.044 10.6801 114.959 10.5749 114.737 10.5749H106.946C106.746 10.5749 106.622 10.6801 106.572 10.8905L104.196 22.0958Z" fill="#F05359"/>
<path d="M59.5922 28.546C59.6579 28.349 59.7893 28.2176 59.9864 28.2176H67.6066C67.8037 28.2176 67.8694 28.349 67.8694 28.546L67.5409 30.1226C67.4752 30.3197 67.3438 30.4511 67.1468 30.4511H61.4973L60.8404 33.6043H65.1103C65.3074 33.6043 65.3731 33.7357 65.3731 33.9328L65.0446 35.378C64.9789 35.575 64.8475 35.7064 64.6505 35.7064H60.3805L59.5265 39.7793C59.4608 39.9764 59.3294 40.1078 59.1324 40.1078H57.4244C57.2273 40.1078 57.0959 39.9764 57.1616 39.7793L59.5922 28.546Z" fill="url(#paint1_linear)"/>
<path d="M69.7087 28.546C69.7744 28.349 69.9058 28.2176 70.1029 28.2176H71.8109C72.008 28.2176 72.0736 28.349 72.0736 28.546L69.7087 39.7136C69.643 39.9107 69.5117 40.0421 69.3146 40.0421H67.6066C67.4095 40.0421 67.2781 39.9107 67.3438 39.7136L69.7087 28.546Z" fill="url(#paint2_linear)"/>
<path d="M76.2122 31.6992L74.5042 39.7793C74.4385 39.9764 74.3072 40.1078 74.1101 40.1078H72.5335C72.3364 40.1078 72.2707 39.9764 72.2707 39.7793L74.6356 28.546C74.6356 28.4804 74.7013 28.4147 74.767 28.349C74.8327 28.2833 74.8984 28.2176 75.0298 28.2176H76.7377C76.9348 28.2176 77.0662 28.349 77.1319 28.546L81.0077 36.429L82.65 28.6117C82.65 28.546 82.7157 28.4804 82.7814 28.4147C82.8471 28.349 82.9127 28.349 83.0441 28.349H84.6207C84.6864 28.349 84.7521 28.349 84.8178 28.4147C84.8835 28.4804 84.8835 28.546 84.8835 28.6117L82.5186 39.845C82.4529 40.0421 82.3215 40.1735 82.1245 40.1735H80.4165C80.2194 40.1735 80.088 40.1078 80.0223 39.9107L76.2122 31.6992Z" fill="url(#paint3_linear)"/>
<path d="M91.1242 28.546C91.2556 28.349 91.387 28.2176 91.584 28.2176H92.8979C93.095 28.2176 93.2263 28.349 93.2263 28.546L95.3285 39.7136C95.3285 39.845 95.3285 39.9107 95.2628 39.9764C95.1971 40.0421 95.1314 40.0421 95 40.0421H93.3577C93.1607 40.0421 93.0293 39.9764 93.0293 39.7793L92.6351 37.8743H87.7739L86.5915 39.7793C86.5258 39.9107 86.4601 39.9764 86.3944 40.0421C86.3287 40.1078 86.263 40.1078 86.1316 40.1078H84.2923C84.1609 40.1078 84.0952 40.1078 84.0952 40.0421C84.0952 39.9764 84.0952 39.9107 84.1609 39.7793L91.1242 28.546ZM91.7154 31.3051L89.0878 35.8378H92.4381L91.7154 31.3051Z" fill="url(#paint4_linear)"/>
<path d="M100.978 31.6992L99.27 39.7793C99.2043 39.9764 99.0729 40.1078 98.8758 40.1078H97.2992C97.1022 40.1078 97.0365 39.9764 97.0365 39.7793L99.4014 28.546C99.4014 28.4804 99.4671 28.4147 99.5327 28.349C99.5984 28.2833 99.6641 28.2176 99.7955 28.2176H101.503C101.701 28.2176 101.832 28.349 101.898 28.546L105.773 36.429L107.416 28.6117C107.416 28.546 107.481 28.4804 107.547 28.4147C107.613 28.349 107.679 28.349 107.81 28.349H109.387C109.452 28.349 109.518 28.349 109.584 28.4147C109.649 28.4804 109.649 28.546 109.649 28.6117L107.284 39.845C107.219 40.0421 107.087 40.1735 106.89 40.1735H105.182C104.985 40.1735 104.854 40.1078 104.788 39.9107L100.978 31.6992Z" fill="url(#paint5_linear)"/>
<path d="M118.255 37.2173C118.321 37.2173 118.386 37.1516 118.386 37.1516C118.452 37.1516 118.518 37.2173 118.583 37.283L119.175 38.5969C119.24 38.6626 119.24 38.7939 119.24 38.8596C119.24 38.9253 119.109 38.991 119.043 39.0567C118.518 39.3852 117.926 39.6479 117.335 39.845C116.744 40.0421 116.087 40.1735 115.364 40.1735C114.51 40.1735 113.788 40.0421 113.065 39.7136C112.408 39.3852 111.817 38.991 111.423 38.3998C110.963 37.8743 110.7 37.2173 110.503 36.429C110.372 35.7064 110.372 34.9181 110.503 34.0641C110.635 33.4729 110.832 32.9474 111.094 32.4218C111.357 31.8963 111.62 31.4365 112.014 30.9766C112.343 30.5168 112.737 30.1226 113.197 29.7285C113.656 29.3343 114.116 29.0716 114.642 28.8088C115.167 28.546 115.693 28.349 116.218 28.2176C116.744 28.0862 117.335 28.0205 117.861 28.0205C118.518 28.0205 119.175 28.1519 119.7 28.349C120.226 28.546 120.685 28.8745 121.08 29.203C121.145 29.2687 121.211 29.3343 121.145 29.4C121.145 29.4657 121.08 29.5314 121.08 29.5971L120.16 30.8453C120.094 30.9109 120.029 30.9109 119.963 30.9109C119.897 30.9109 119.831 30.9109 119.7 30.8453C119.372 30.6482 119.043 30.4511 118.715 30.3197C118.386 30.1883 117.992 30.1226 117.598 30.1226C117.072 30.1226 116.547 30.254 116.021 30.4511C115.496 30.6482 115.036 30.9109 114.642 31.3051C114.248 31.6336 113.854 32.0934 113.525 32.5532C113.197 33.0131 113 33.5386 112.868 34.0641C112.737 34.5897 112.671 35.1152 112.737 35.5751C112.802 36.0349 112.934 36.4947 113.131 36.8232C113.328 37.1516 113.656 37.4801 114.051 37.6772C114.445 37.8743 114.97 38.0056 115.496 38.0056C115.693 38.0056 115.956 38.0056 116.153 37.94C116.416 37.8743 116.613 37.8743 116.81 37.8086C117.007 37.7429 117.27 37.6772 117.467 37.6115C117.664 37.5458 117.861 37.4144 118.058 37.3487C118.123 37.283 118.189 37.283 118.255 37.2173Z" fill="url(#paint6_linear)"/>
<path d="M123.51 28.546C123.576 28.349 123.707 28.2176 123.904 28.2176H131.722C131.919 28.2176 132.05 28.349 131.984 28.546L131.656 30.1226C131.59 30.3197 131.459 30.4511 131.262 30.4511H125.481L124.955 32.8817H129.357C129.488 32.8817 129.554 32.8817 129.62 32.9474C129.685 33.0131 129.685 33.0788 129.685 33.2101L129.357 34.7211C129.357 34.8524 129.291 34.9181 129.225 34.9838C129.16 35.0495 129.028 35.0495 128.963 35.0495H124.561L123.97 38.0056H129.882C130.079 38.0056 130.211 38.137 130.145 38.3341L129.817 39.845C129.751 40.0421 129.62 40.1735 129.422 40.1735H121.474C121.277 40.1735 121.211 40.0421 121.211 39.845L123.51 28.546Z" fill="url(#paint7_linear)"/>
<defs>
<linearGradient id="paint0_linear" x1="26.0983" y1="30.1117" x2="48.6503" y2="30.1117" gradientUnits="userSpaceOnUse">
<stop offset="0.3007" stop-color="#A51D30"/>
<stop offset="1" stop-color="#F05359"/>
</linearGradient>
<linearGradient id="paint1_linear" x1="57.1726" y1="34.1557" x2="131.958" y2="34.1557" gradientUnits="userSpaceOnUse">
<stop offset="0.2689" stop-color="white"/>
<stop offset="0.7909" stop-color="#A7A9AC"/>
</linearGradient>
<linearGradient id="paint2_linear" x1="57.1726" y1="34.1557" x2="131.958" y2="34.1557" gradientUnits="userSpaceOnUse">
<stop offset="0.2689" stop-color="white"/>
<stop offset="0.7909" stop-color="#A7A9AC"/>
</linearGradient>
<linearGradient id="paint3_linear" x1="57.1726" y1="34.1557" x2="131.958" y2="34.1557" gradientUnits="userSpaceOnUse">
<stop offset="0.2689" stop-color="white"/>
<stop offset="0.7909" stop-color="#A7A9AC"/>
</linearGradient>
<linearGradient id="paint4_linear" x1="57.1726" y1="34.1557" x2="131.958" y2="34.1557" gradientUnits="userSpaceOnUse">
<stop offset="0.2689" stop-color="white"/>
<stop offset="0.7909" stop-color="#A7A9AC"/>
</linearGradient>
<linearGradient id="paint5_linear" x1="57.1726" y1="34.1557" x2="131.958" y2="34.1557" gradientUnits="userSpaceOnUse">
<stop offset="0.2689" stop-color="white"/>
<stop offset="0.7909" stop-color="#A7A9AC"/>
</linearGradient>
<linearGradient id="paint6_linear" x1="57.1726" y1="34.1557" x2="131.958" y2="34.1557" gradientUnits="userSpaceOnUse">
<stop offset="0.2689" stop-color="white"/>
<stop offset="0.7909" stop-color="#A7A9AC"/>
</linearGradient>
<linearGradient id="paint7_linear" x1="57.1726" y1="34.1557" x2="131.958" y2="34.1557" gradientUnits="userSpaceOnUse">
<stop offset="0.2689" stop-color="white"/>
<stop offset="0.7909" stop-color="#A7A9AC"/>
</linearGradient>
</defs>
</svg>
