<svg width="73" height="73" viewBox="0 0 73 73" fill="none" xmlns="http://www.w3.org/2000/svg">
<path d="M37.434 71.7018L33.5239 37.1385C33.4287 36.2939 32.7367 35.2634 31.9841 34.8326L1.20474 17.3652C0.452126 16.9344 -0.0842194 17.2807 0.0109387 18.1254L3.92107 52.6886C4.01623 53.5333 4.70829 54.5637 5.4609 54.9945L36.2489 72.4535C37.0015 72.8843 37.5378 72.5464 37.434 71.7018Z" fill="white"/>
<path d="M40.3234 72.7725L69.9349 53.4553C70.6616 52.9823 71.2758 51.9096 71.319 51.0649L72.9973 16.3328C73.0405 15.4797 72.4869 15.1756 71.7602 15.6486L42.1487 34.9658C41.4221 35.4388 40.8079 36.5116 40.7646 37.3562L39.0864 72.0883C39.0431 72.9414 39.5967 73.2455 40.3234 72.7725Z" fill="white"/>
<path d="M64.131 11.4107C65.1691 11.8584 65.221 12.6692 64.2261 13.2267L55.3591 18.2017L47.8849 14.7978L50.2206 13.4801C50.4888 13.3281 50.4715 12.9395 50.186 12.8128L45.5233 10.811C45.4108 10.7603 45.281 10.7688 45.1772 10.8279L42.5042 12.3398L36.6562 9.67917L46.6046 4.07068C46.7084 4.01155 46.8382 4.00311 46.9506 4.05378L64.131 11.4107Z" fill="white"/>
<path d="M57.3218 19.1024C57.5208 19.1953 57.5381 19.4656 57.3478 19.5754L52.7629 22.1938C52.6851 22.236 52.5899 22.2445 52.5034 22.2022L50.1504 21.1295L55.3581 18.207L57.3218 19.1024Z" fill="#565656"/>
<path d="M55.3583 18.2008L50.1592 21.1233L42.7109 17.7109L47.8841 14.7969L55.3583 18.2008Z" fill="#565656"/>
<path d="M50.1599 21.1266L39.4417 27.1405C38.7237 27.546 37.5212 27.6051 36.7599 27.2841L31.1975 24.9022C30.912 24.7755 30.8861 24.387 31.1629 24.2349L42.7117 17.7227L50.1599 21.1266Z" fill="white"/>
<path d="M47.8844 14.7972L42.7113 17.7112L37.3564 15.2617L42.5036 12.3477L47.8844 14.7972Z" fill="#565656"/>
<path d="M42.5039 12.3555L37.3567 15.2695L31.5088 12.592L36.656 9.69482L42.5039 12.3555Z" fill="white"/>
<path d="M40.5231 1.31239C40.8086 1.43909 40.8345 1.82763 40.5577 1.97967L31.2582 7.23341L26.6992 5.15556L35.2721 0.349488C35.9901 -0.0559451 37.1926 -0.115071 37.9452 0.205897L40.5231 1.31239Z" fill="white"/>
<path d="M37.3569 15.2693L25.1939 22.1617C25.0901 22.2208 24.9604 22.2292 24.8479 22.1786L10.5828 16.0717C9.53609 15.624 9.49283 14.8047 10.479 14.2557L21.5606 8.03906L26.1196 10.1254L21.6298 12.6593C21.3616 12.8114 21.3789 13.1999 21.6644 13.3266L26.3358 15.3284C26.4483 15.3791 26.578 15.3707 26.6818 15.3115L31.509 12.5917L37.3569 15.2693Z" fill="white"/>
<path d="M36.6567 9.6845L31.5095 12.5817L26.1201 10.1237L31.2587 7.22656L36.6567 9.6845Z" fill="#565656"/>
<path d="M31.258 7.23898L26.1195 10.1361L21.5605 8.0414L26.6991 5.16113L31.258 7.23898Z" fill="#565656"/>
<path d="M24.1567 4.00296L26.6914 5.16013L21.5529 8.0404L19.5718 7.13662C19.3729 7.04371 19.3556 6.78187 19.5372 6.67206L23.8886 4.0283C23.9751 3.96917 24.0789 3.96073 24.1567 4.00296Z" fill="#565656"/>
</svg>
